<svg width="53" height="51" viewBox="0 0 53 51" fill="none" xmlns="http://www.w3.org/2000/svg">
<path d="M0 19.3086C0.406665 16.324 0.609997 13.5384 2.03332 10.9517C3.25332 8.76296 5.48997 7.96706 7.72663 8.36501C9.14996 8.56398 10.5733 9.16091 11.7933 9.95681C14.2333 11.5486 16.6733 13.1404 18.7066 15.3291C19.1133 15.7271 19.7232 16.125 20.1299 16.523C20.7399 16.9209 21.7566 16.9209 22.3666 16.125C23.7899 14.3343 25.2132 12.7425 26.6366 10.9517C29.2799 7.76808 32.7365 5.38039 36.1932 2.99269C38.2265 1.59986 40.8698 0.604987 43.3098 0.207037C45.3431 -0.190913 47.1731 0.00806198 49.0031 0.604987C50.0198 0.803962 50.8331 1.59986 51.2398 2.39576C51.8498 3.39064 52.2564 4.38551 52.6631 5.38039C53.0698 6.37526 53.0698 7.17116 52.8664 8.16603C51.8498 11.9466 50.4265 15.3291 47.3765 18.1148C46.5631 18.9107 45.7498 19.7066 45.3431 20.7015C44.3265 23.8851 42.0898 26.2728 40.4632 28.8594C39.8532 29.8543 38.8365 30.8492 38.4298 32.043C38.2265 32.6399 37.8198 33.2369 37.4132 33.6348C35.1765 36.0225 33.5499 38.6092 31.7199 41.3948C31.5165 41.7928 31.1099 42.1907 30.9065 42.5887C29.2799 43.7825 28.4665 45.5733 27.8565 47.3641C27.6532 47.762 27.4499 48.16 27.2465 48.7569C26.4332 50.3487 25.0099 51.5426 22.3666 50.7467C20.7399 50.3487 19.3166 49.7518 17.8933 48.7569C15.8599 47.1651 13.8266 45.7723 11.7933 44.1805C9.96329 42.7877 8.1333 40.9969 7.11664 38.8082C6.9133 38.2112 6.50664 37.6143 6.09997 37.2164C2.43999 32.242 1.01666 26.6707 0.203329 20.7015C-3.10682e-06 20.1045 0 19.7066 0 19.3086ZM6.9133 22.0943C6.9133 24.8799 7.92997 27.8645 8.7433 30.6502C10.1666 35.4256 13.0133 39.2061 16.8766 42.3897C17.4866 42.9866 18.2999 43.1856 18.9099 43.5836C19.5199 43.9815 20.5366 43.7825 20.9432 42.9866C23.1799 39.4051 25.4166 36.0225 27.8565 32.6399C30.4999 29.2574 32.9399 25.6758 35.5832 22.2933C37.6165 19.5076 39.6498 16.523 41.6832 13.7373C42.6998 12.3445 43.5131 10.7527 44.3265 9.16091C44.5298 8.56398 44.7331 7.96706 44.7331 7.37013C44.9365 6.57424 43.9198 5.77834 43.3098 5.77834C42.2932 5.77834 41.4798 6.17628 40.6665 6.77321C35.9899 9.55886 32.3299 13.1404 28.8732 17.3189C28.0599 18.5127 27.2466 19.7066 26.4332 20.9004C26.0266 21.4974 25.6199 22.0943 25.6199 22.6912C25.6199 24.482 24.6032 25.6758 23.3832 26.6707C22.7732 27.2676 21.9599 27.2676 21.3499 26.6707C20.5366 26.0738 20.1299 25.2779 19.9266 24.283C19.1133 21.2984 17.2833 18.9107 14.8433 16.9209C14.0299 16.324 13.4199 15.7271 12.6066 14.9312C12.2 14.7322 11.7933 14.3343 11.3866 14.1353C10.5733 13.7373 9.14996 14.1353 8.7433 14.9312C7.5233 17.3189 6.9133 19.5076 6.9133 22.0943Z" fill="#E54D2E"/>
</svg>
