<svg width="842" height="655" viewBox="0 0 842 655" fill="none" xmlns="http://www.w3.org/2000/svg">
<rect x="16" y="56.8584" width="289" height="76" rx="38" transform="rotate(-4.96438 16 56.8584)" fill="#5BB98C"/>
<path d="M81.9079 98.3104L80.3974 80.9214L87.0542 80.3431C88.3108 80.234 89.3724 80.3414 90.2389 80.6654C91.1106 80.9832 91.7825 81.4637 92.2547 82.1071C92.7326 82.75 93.0089 83.5016 93.0837 84.362C93.1451 85.0696 93.0619 85.6871 92.8339 86.2144C92.6055 86.7362 92.2755 87.1726 91.8441 87.5238C91.4126 87.8749 90.9198 88.143 90.3655 88.328L90.3803 88.4978C91.0002 88.4782 91.6082 88.6165 92.2043 88.9126C92.8055 89.2025 93.3143 89.6431 93.7306 90.2343C94.147 90.8255 94.3935 91.5626 94.4702 92.4457C94.5484 93.3457 94.4008 94.1741 94.0273 94.9308C93.6534 95.6819 93.0457 96.3021 92.2043 96.7916C91.3628 97.281 90.2769 97.5835 88.9467 97.699L81.9079 98.3104ZM84.8293 95.4047L88.2171 95.1104C89.3605 95.0111 90.1652 94.7216 90.6311 94.242C91.1022 93.7562 91.3078 93.1681 91.2478 92.4775C91.2031 91.9624 91.0354 91.5093 90.7448 91.1182C90.4537 90.7214 90.0629 90.4246 89.5724 90.2277C89.0814 90.0251 88.5105 89.952 87.8595 90.0086L84.3868 90.3102L84.8293 95.4047ZM84.1899 88.0432L87.306 87.7725C87.8494 87.7253 88.3304 87.5837 88.7491 87.3478C89.1672 87.1061 89.4849 86.7905 89.702 86.4009C89.9242 86.0052 90.0132 85.5526 89.969 85.0432C89.9105 84.3696 89.6246 83.8355 89.1112 83.441C88.6035 83.0459 87.8855 82.8887 86.9572 82.9693L83.7732 83.2459L84.1899 88.0432ZM100.808 96.9339C99.9813 97.0057 99.2242 96.9232 98.5363 96.6864C97.8537 96.4434 97.2946 96.0471 96.859 95.4975C96.4291 94.9475 96.177 94.245 96.1028 93.3903C96.0389 92.6544 96.1219 92.0341 96.3518 91.5294C96.5817 91.0247 96.919 90.6075 97.3638 90.278C97.8085 89.9485 98.3188 89.6846 98.8947 89.4863C99.4758 89.2819 100.08 89.1181 100.708 88.9951C101.466 88.8495 102.079 88.7249 102.55 88.6214C103.019 88.5121 103.356 88.3803 103.559 88.2257C103.767 88.065 103.859 87.8375 103.833 87.5432L103.829 87.4922C103.773 86.8526 103.541 86.3738 103.131 86.0557C102.721 85.7377 102.16 85.6097 101.446 85.6717C100.694 85.7371 100.111 85.9531 99.6976 86.3197C99.2902 86.6859 99.0296 87.0992 98.9156 87.5597L96.0103 87.4014C96.1679 86.5893 96.484 85.8945 96.9585 85.3172C97.4326 84.7342 98.0345 84.277 98.7642 83.9456C99.4935 83.6085 100.314 83.4004 101.225 83.3212C101.853 83.2666 102.485 83.2859 103.121 83.379C103.756 83.4721 104.346 83.666 104.891 83.9609C105.435 84.2502 105.888 84.6699 106.249 85.2203C106.616 85.7701 106.838 86.478 106.913 87.3441L107.671 96.0726L104.716 96.3293L104.561 94.5377L104.459 94.5466C104.303 94.9251 104.07 95.2876 103.757 95.634C103.451 95.9744 103.051 96.2629 102.558 96.4996C102.07 96.7302 101.487 96.8749 100.808 96.9339ZM101.41 94.6061C102.027 94.5525 102.551 94.3843 102.983 94.1016C103.414 93.8132 103.734 93.4546 103.942 93.0259C104.155 92.5968 104.241 92.1416 104.199 91.6604L104.066 90.1236C103.977 90.2112 103.819 90.2991 103.593 90.3872C103.372 90.4747 103.123 90.5563 102.844 90.6318C102.565 90.7074 102.289 90.777 102.015 90.8407C101.741 90.9044 101.504 90.9593 101.302 91.0053C100.849 91.1074 100.448 91.2449 100.098 91.4179C99.7477 91.5909 99.479 91.8138 99.2917 92.0867C99.1039 92.354 99.0272 92.6857 99.0616 93.082C99.1108 93.648 99.3545 94.0574 99.7928 94.3102C100.231 94.563 100.77 94.6616 101.41 94.6061ZM111.87 78.1875L113.381 95.5766L110.307 95.8436L108.797 78.4545L111.87 78.1875ZM120.947 95.1504C119.922 95.2394 118.983 95.0558 118.127 94.5997C117.272 94.1436 116.566 93.435 116.009 92.4739C115.452 91.5128 115.112 90.3162 114.987 88.8841C114.862 87.435 114.993 86.1917 115.382 85.1541C115.776 84.1104 116.359 83.2984 117.13 82.7182C117.9 82.1323 118.786 81.7958 119.788 81.7088C120.552 81.6424 121.192 81.718 121.707 81.9356C122.221 82.1476 122.639 82.4222 122.959 82.7593C123.279 83.0909 123.531 83.4083 123.717 83.7115L123.845 83.7004L123.28 77.1965L126.362 76.9288L127.872 94.3178L124.85 94.5804L124.671 92.5256L124.484 92.5419C124.354 92.8726 124.154 93.2293 123.884 93.612C123.615 93.989 123.245 94.3234 122.774 94.6153C122.303 94.9071 121.694 95.0855 120.947 95.1504ZM121.585 92.5542C122.236 92.4976 122.776 92.2739 123.204 91.8832C123.631 91.4867 123.937 90.9612 124.119 90.3066C124.302 89.6519 124.357 88.9029 124.283 88.0595C124.21 87.2161 124.028 86.4934 123.736 85.8914C123.45 85.2889 123.062 84.8349 122.574 84.5294C122.091 84.2235 121.518 84.0993 120.856 84.1568C120.171 84.2163 119.615 84.4443 119.187 84.8407C118.76 85.2371 118.457 85.7596 118.28 86.4081C118.102 87.0565 118.049 87.7855 118.119 88.595C118.19 89.4101 118.369 90.1274 118.657 90.7468C118.95 91.3602 119.341 91.8309 119.832 92.159C120.327 92.4809 120.912 92.6127 121.585 92.5542ZM138.529 87.8657L137.873 80.309L140.947 80.042L142.08 93.0838L139.099 93.3427L138.898 91.0247L138.762 91.0365C138.531 91.7923 138.099 92.4315 137.466 92.9541C136.838 93.4763 136.035 93.7799 135.056 93.865C134.201 93.9393 133.429 93.8153 132.739 93.493C132.055 93.1647 131.497 92.6514 131.065 91.9531C130.634 91.2492 130.372 90.3765 130.282 89.335L129.561 81.031L132.634 80.764L133.314 88.5925C133.386 89.4189 133.67 90.0559 134.165 90.5034C134.66 90.9508 135.275 91.1426 136.011 91.0787C136.464 91.0393 136.893 90.8909 137.298 90.6332C137.704 90.3756 138.023 90.017 138.257 89.5576C138.496 89.092 138.587 88.528 138.529 87.8657ZM144.786 92.8487L143.653 79.8069L146.633 79.548L146.822 81.7217L146.958 81.7099C147.13 80.9364 147.488 80.3208 148.03 79.8631C148.577 79.3992 149.224 79.1348 149.971 79.0699C150.141 79.0552 150.331 79.0472 150.542 79.046C150.758 79.0386 150.938 79.0429 151.082 79.0589L151.328 81.8864C151.194 81.8524 150.984 81.8307 150.698 81.8213C150.417 81.8058 150.146 81.8093 149.886 81.832C149.325 81.8806 148.832 82.0461 148.406 82.3283C147.985 82.6044 147.666 82.9658 147.448 83.4125C147.23 83.8591 147.145 84.3598 147.194 84.9146L147.86 92.5817L144.786 92.8487ZM155.305 74.4147L155.455 76.1469C155.499 76.645 155.447 77.1713 155.302 77.7257C155.161 78.2741 154.948 78.8059 154.662 79.3212C154.375 79.8309 154.037 80.2765 153.649 80.6582L152.142 79.8566C152.412 79.3597 152.64 78.8295 152.825 78.266C153.009 77.6967 153.071 77.0668 153.011 76.3763L152.859 74.6272L155.305 74.4147ZM166.638 81.2837L163.862 81.8327C163.758 81.5566 163.597 81.3026 163.377 81.0707C163.163 80.8384 162.885 80.6601 162.543 80.5357C162.202 80.4114 161.793 80.3699 161.318 80.4112C160.678 80.4668 160.152 80.6522 159.741 80.9674C159.335 81.2821 159.154 81.66 159.198 82.101C159.225 82.4808 159.39 82.7772 159.694 82.9904C160.003 83.2031 160.496 83.357 161.171 83.4523L163.437 83.7346C164.694 83.8935 165.648 84.2355 166.298 84.7608C166.954 85.2855 167.325 86.0146 167.412 86.9481C167.478 87.7694 167.3 88.5148 166.879 89.1845C166.463 89.8479 165.852 90.3915 165.045 90.8152C164.237 91.239 163.29 91.498 162.203 91.5924C160.607 91.7311 159.293 91.5087 158.262 90.9254C157.23 90.3363 156.568 89.4499 156.277 88.2661L159.249 87.7171C159.436 88.294 159.763 88.7132 160.231 88.9749C160.699 89.2365 161.286 89.3366 161.994 89.2752C162.724 89.2118 163.297 89.0109 163.712 88.6725C164.133 88.3337 164.325 87.9435 164.286 87.502C164.254 87.1284 164.083 86.8324 163.773 86.6141C163.469 86.3953 163.011 86.2468 162.4 86.1687L160.135 85.895C158.861 85.7433 157.897 85.385 157.244 84.8201C156.59 84.2495 156.224 83.4886 156.147 82.5371C156.072 81.7338 156.229 81.0186 156.62 80.3916C157.015 79.7584 157.595 79.246 158.36 78.8546C159.129 78.4569 160.035 78.2129 161.076 78.1224C162.605 77.9896 163.836 78.2106 164.77 78.7854C165.709 79.3596 166.332 80.1924 166.638 81.2837ZM186.065 77.3377C185.884 76.8915 185.653 76.4981 185.372 76.1574C185.097 75.8106 184.775 75.522 184.407 75.2917C184.045 75.0608 183.638 74.8994 183.185 74.8076C182.731 74.7101 182.244 74.6839 181.724 74.7292C180.79 74.8103 179.978 75.1175 179.289 75.6507C178.599 76.184 178.085 76.9245 177.745 77.8722C177.41 78.8138 177.3 79.9355 177.413 81.2374C177.527 82.5507 177.83 83.645 178.322 84.5205C178.815 85.3959 179.45 86.0394 180.227 86.451C181.003 86.8569 181.878 87.0175 182.852 86.933C183.735 86.8563 184.485 86.6201 185.1 86.2244C185.722 85.8282 186.181 85.3036 186.478 84.6504C186.774 83.9916 186.886 83.2405 186.813 82.3971L187.535 82.4455L182.814 82.8556L182.601 80.3933L189.656 79.7804L189.838 81.8691C189.967 83.3578 189.762 84.6731 189.222 85.815C188.683 86.9569 187.884 87.8704 186.826 88.5554C185.767 89.2348 184.518 89.637 183.081 89.7619C181.479 89.901 180.041 89.6638 178.767 89.0501C177.499 88.4303 176.467 87.4848 175.672 86.2135C174.882 84.9362 174.408 83.3805 174.249 81.5465C174.127 80.1427 174.216 78.8717 174.516 77.7335C174.822 76.5948 175.301 75.6093 175.953 74.777C176.605 73.9391 177.397 73.2771 178.33 72.7911C179.263 72.2995 180.298 72.0043 181.436 71.9054C182.398 71.8218 183.307 71.8854 184.164 72.0962C185.02 72.3013 185.793 72.6333 186.483 73.0924C187.179 73.551 187.767 74.1158 188.247 74.787C188.728 75.4582 189.07 76.2155 189.275 77.0589L186.065 77.3377ZM196.679 88.6064C195.852 88.6782 195.095 88.5957 194.407 88.3588C193.725 88.1159 193.165 87.7196 192.73 87.17C192.3 86.6199 192.048 85.9175 191.974 85.0627C191.91 84.3269 191.993 83.7066 192.223 83.2018C192.453 82.6971 192.79 82.28 193.235 81.9505C193.679 81.621 194.19 81.3571 194.766 81.1588C195.347 80.9543 195.951 80.7906 196.579 80.6676C197.337 80.522 197.95 80.3974 198.42 80.2938C198.89 80.1846 199.226 80.0527 199.43 79.8982C199.638 79.7375 199.73 79.5099 199.704 79.2156L199.7 79.1647C199.644 78.525 199.411 78.0462 199.002 77.7282C198.592 77.4102 198.031 77.2822 197.317 77.3441C196.564 77.4095 195.982 77.6255 195.569 77.9922C195.161 78.3584 194.901 78.7717 194.787 79.2321L191.881 79.0738C192.039 78.2617 192.355 77.567 192.829 76.9897C193.304 76.4067 193.905 75.9495 194.635 75.618C195.364 75.2809 196.185 75.0728 197.096 74.9936C197.724 74.9391 198.356 74.9583 198.992 75.0514C199.627 75.1445 200.217 75.3385 200.762 75.6334C201.306 75.9226 201.759 76.3424 202.12 76.8927C202.487 77.4425 202.708 78.1505 202.784 79.0165L203.542 87.745L200.587 88.0017L200.431 86.2101L200.33 86.219C200.174 86.5975 199.941 86.96 199.628 87.3065C199.321 87.6468 198.922 87.9353 198.429 88.172C197.941 88.4026 197.358 88.5474 196.679 88.6064ZM197.281 86.2785C197.898 86.2249 198.422 86.0568 198.854 85.774C199.285 85.4856 199.605 85.1271 199.813 84.6984C200.026 84.2692 200.112 83.814 200.07 83.3329L199.937 81.7961C199.847 81.8837 199.69 81.9715 199.464 82.0596C199.243 82.1472 198.993 82.2287 198.715 82.3043C198.436 82.3798 198.16 82.4494 197.886 82.5131C197.612 82.5769 197.375 82.6317 197.173 82.6777C196.72 82.7798 196.319 82.9173 195.969 83.0903C195.619 83.2633 195.35 83.4863 195.163 83.7592C194.975 84.0264 194.898 84.3582 194.933 84.7544C194.982 85.3205 195.225 85.7299 195.664 85.9827C196.102 86.2355 196.641 86.3341 197.281 86.2785ZM211.558 73.9086L211.764 76.286L204.267 76.9372L204.06 74.5598L211.558 73.9086ZM205.64 71.2744L208.714 71.0074L209.777 83.2511C209.813 83.6643 209.903 83.9759 210.047 84.1858C210.195 84.3896 210.378 84.522 210.594 84.5831C210.811 84.6442 211.046 84.6636 211.301 84.6415C211.493 84.6248 211.668 84.5954 211.824 84.5533C211.985 84.5108 212.108 84.4745 212.191 84.4444L212.917 86.8023C212.758 86.8732 212.529 86.9559 212.229 87.0504C211.935 87.1443 211.57 87.2159 211.135 87.2651C210.367 87.3546 209.664 87.2988 209.025 87.0977C208.385 86.8909 207.861 86.5315 207.451 86.0196C207.047 85.5072 206.813 84.8431 206.748 84.0275L205.64 71.2744ZM220.463 86.5319C219.155 86.6455 218.002 86.4719 217.004 86.0111C216.011 85.5441 215.216 84.8318 214.62 83.8741C214.023 82.9108 213.665 81.7471 213.547 80.3829C213.43 79.0414 213.583 77.8418 214.004 76.7844C214.431 75.7207 215.081 74.8658 215.954 74.2196C216.827 73.5678 217.886 73.1878 219.132 73.0796C219.935 73.0098 220.705 73.0741 221.441 73.2725C222.182 73.4648 222.85 73.8059 223.446 74.296C224.048 74.7856 224.543 75.4326 224.932 76.2372C225.321 77.0361 225.565 78.0072 225.664 79.1507L225.746 80.0931L215.056 81.0217L214.876 78.9499L222.62 78.2773C222.563 77.6891 222.39 77.1766 222.102 76.7397C221.812 76.2972 221.432 75.9623 220.962 75.7351C220.497 75.5074 219.971 75.4192 219.382 75.4703C218.754 75.5249 218.215 75.7256 217.766 76.0726C217.317 76.4139 216.98 76.8424 216.757 77.3579C216.539 77.8673 216.452 78.4138 216.497 78.9973L216.655 80.8059C216.72 81.5644 216.916 82.2033 217.24 82.7226C217.564 83.2363 217.988 83.6158 218.511 83.8612C219.034 84.101 219.629 84.1918 220.297 84.1338C220.744 84.095 221.144 83.9976 221.495 83.8416C221.846 83.6799 222.144 83.463 222.388 83.1908C222.633 82.9186 222.807 82.5927 222.911 82.213L225.808 82.2863C225.693 83.0606 225.405 83.7528 224.945 84.3631C224.49 84.9673 223.883 85.4592 223.123 85.8389C222.363 86.2129 221.476 86.4439 220.463 86.5319ZM240.09 84.81C238.867 84.9162 237.762 84.8011 236.775 84.4648C235.793 84.1281 234.995 83.61 234.381 82.9105C233.767 82.211 233.401 81.3731 233.282 80.3967L236.474 80.1194C236.543 80.5868 236.735 80.9837 237.048 81.31C237.361 81.6307 237.761 81.8669 238.247 82.0186C238.734 82.1702 239.269 82.2207 239.852 82.1701C240.474 82.116 241.017 81.9605 241.479 81.7036C241.941 81.441 242.291 81.1027 242.529 80.6885C242.767 80.2743 242.861 79.8128 242.811 79.3038C242.771 78.7769 242.595 78.3245 242.282 77.9467C241.97 77.5689 241.541 77.2897 240.995 77.109C240.454 76.9278 239.816 76.8692 239.08 76.9331L237.543 77.0666L237.333 74.6382L238.869 74.5047C239.475 74.4521 239.995 74.3014 240.43 74.0527C240.87 73.8034 241.204 73.4778 241.431 73.076C241.658 72.6684 241.747 72.213 241.698 71.7097C241.661 71.2168 241.513 70.799 241.255 70.4564C241.003 70.1076 240.664 69.849 240.238 69.6807C239.819 69.5118 239.337 69.451 238.794 69.4982C238.262 69.5444 237.778 69.6834 237.341 69.9152C236.905 70.147 236.564 70.4532 236.318 70.8339C236.071 71.209 235.96 71.6406 235.985 72.1289L232.954 72.3922C232.892 71.4166 233.098 70.5376 233.572 69.755C234.051 68.9663 234.725 68.326 235.595 67.8341C236.464 67.3365 237.462 67.0388 238.589 66.941C239.749 66.8402 240.776 66.9706 241.668 67.3322C242.566 67.6877 243.282 68.2101 243.815 68.8995C244.348 69.5889 244.653 70.3751 244.73 71.2581C244.82 72.2369 244.603 73.0828 244.078 73.7957C243.558 74.5081 242.837 75.007 241.915 75.2924L241.927 75.4283C243.164 75.4919 244.14 75.8634 244.855 76.5427C245.575 77.2159 245.98 78.0961 246.068 79.1834C246.153 80.157 245.951 81.0528 245.463 81.8708C244.981 82.6827 244.274 83.3486 243.344 83.8685C242.42 84.388 241.335 84.7018 240.09 84.81Z" fill="white"/>
<rect x="531.031" y="70.6294" width="188" height="76" rx="38" transform="rotate(4.55118 531.031 70.6294)" fill="#E5484D"/>
<path d="M585.352 109.406C585.331 108.658 585.043 108.053 584.487 107.593C583.937 107.133 583.194 106.866 582.26 106.791C581.603 106.739 581.031 106.793 580.545 106.954C580.059 107.115 579.678 107.355 579.402 107.675C579.126 107.995 578.967 108.373 578.927 108.809C578.898 109.171 578.955 109.492 579.098 109.772C579.247 110.051 579.458 110.296 579.732 110.506C580.007 110.71 580.315 110.889 580.656 111.041C580.997 111.194 581.343 111.327 581.693 111.44L583.292 111.978C583.936 112.183 584.552 112.44 585.137 112.749C585.728 113.058 586.248 113.43 586.698 113.865C587.154 114.3 587.501 114.809 587.739 115.393C587.978 115.976 588.067 116.644 588.007 117.397C587.926 118.417 587.594 119.294 587.011 120.028C586.429 120.757 585.627 121.3 584.607 121.658C583.593 122.011 582.389 122.131 580.996 122.02C579.642 121.913 578.484 121.61 577.52 121.111C576.562 120.613 575.835 119.94 575.338 119.091C574.847 118.242 574.625 117.239 574.672 116.079L577.773 116.326C577.77 116.936 577.917 117.455 578.213 117.883C578.51 118.311 578.913 118.646 579.424 118.886C579.941 119.126 580.528 119.273 581.185 119.325C581.87 119.38 582.479 119.326 583.01 119.163C583.548 118.995 583.979 118.738 584.303 118.394C584.627 118.043 584.812 117.619 584.857 117.121C584.888 116.667 584.784 116.283 584.547 115.968C584.311 115.647 583.965 115.369 583.511 115.133C583.062 114.892 582.533 114.668 581.923 114.459L579.984 113.792C578.58 113.31 577.492 112.662 576.719 111.848C575.952 111.029 575.618 109.996 575.717 108.75C575.799 107.725 576.148 106.849 576.764 106.123C577.386 105.398 578.195 104.861 579.192 104.512C580.189 104.159 581.297 104.03 582.514 104.127C583.749 104.225 584.814 104.527 585.708 105.031C586.609 105.53 587.295 106.181 587.767 106.982C588.24 107.778 588.446 108.666 588.385 109.647L585.352 109.406ZM597.393 109.928L597.203 112.307L589.702 111.71L589.891 109.331L597.393 109.928ZM591.992 106.352L595.067 106.597L594.092 118.848C594.059 119.261 594.096 119.584 594.203 119.814C594.317 120.04 594.475 120.201 594.678 120.297C594.881 120.393 595.11 120.451 595.365 120.471C595.558 120.486 595.735 120.486 595.895 120.471C596.062 120.455 596.188 120.44 596.275 120.424L596.602 122.869C596.433 122.913 596.193 122.957 595.882 123C595.576 123.044 595.205 123.055 594.768 123.031C593.996 122.993 593.311 122.821 592.714 122.517C592.118 122.208 591.66 121.766 591.341 121.194C591.027 120.622 590.906 119.928 590.976 119.113L591.992 106.352ZM602.206 123.709C601.379 123.643 600.646 123.436 600.007 123.089C599.373 122.737 598.888 122.253 598.549 121.639C598.216 121.026 598.083 120.291 598.151 119.436C598.21 118.7 598.394 118.102 598.705 117.642C599.015 117.182 599.416 116.827 599.91 116.575C600.403 116.324 600.95 116.148 601.55 116.047C602.157 115.942 602.781 115.88 603.42 115.863C604.191 115.844 604.817 115.823 605.298 115.798C605.779 115.768 606.133 115.694 606.359 115.575C606.591 115.451 606.719 115.242 606.742 114.947L606.746 114.896C606.797 114.256 606.647 113.746 606.295 113.364C605.944 112.983 605.411 112.764 604.697 112.707C603.944 112.647 603.334 112.764 602.866 113.057C602.403 113.351 602.078 113.715 601.889 114.151L599.05 113.514C599.34 112.739 599.767 112.106 600.33 111.616C600.894 111.119 601.563 110.768 602.338 110.561C603.113 110.349 603.956 110.28 604.868 110.352C605.497 110.402 606.117 110.526 606.728 110.723C607.339 110.92 607.889 111.208 608.377 111.589C608.866 111.964 609.243 112.453 609.509 113.056C609.78 113.659 609.881 114.394 609.812 115.26L609.117 123.994L606.16 123.759L606.303 121.966L606.201 121.958C605.985 122.305 605.695 122.624 605.33 122.914C604.971 123.199 604.529 123.418 604.004 123.57C603.485 123.717 602.886 123.763 602.206 123.709ZM603.184 121.512C603.802 121.562 604.347 121.482 604.819 121.275C605.292 121.062 605.667 120.761 605.943 120.373C606.224 119.985 606.384 119.55 606.423 119.069L606.545 117.531C606.442 117.602 606.272 117.663 606.035 117.712C605.803 117.762 605.543 117.802 605.256 117.83C604.969 117.858 604.685 117.881 604.404 117.899C604.123 117.917 603.88 117.931 603.674 117.943C603.21 117.969 602.791 118.038 602.417 118.151C602.044 118.264 601.742 118.439 601.512 118.678C601.283 118.91 601.152 119.225 601.121 119.621C601.075 120.188 601.248 120.632 601.639 120.953C602.029 121.275 602.544 121.462 603.184 121.512ZM611.755 124.204L612.794 111.154L615.776 111.392L615.603 113.567L615.738 113.577C616.036 112.843 616.49 112.295 617.101 111.933C617.717 111.566 618.399 111.412 619.146 111.472C619.316 111.485 619.505 111.509 619.714 111.543C619.928 111.571 620.105 111.605 620.244 111.645L620.019 114.474C619.892 114.418 619.689 114.362 619.408 114.305C619.134 114.244 618.866 114.203 618.606 114.182C618.045 114.137 617.531 114.219 617.064 114.427C616.604 114.629 616.229 114.933 615.94 115.338C615.652 115.742 615.485 116.222 615.441 116.777L614.83 124.449L611.755 124.204ZM629.135 112.455L628.946 114.834L621.232 114.22L621.421 111.841L629.135 112.455ZM622.311 125.044L623.448 110.763C623.518 109.885 623.757 109.168 624.166 108.614C624.581 108.06 625.108 107.663 625.748 107.423C626.389 107.184 627.086 107.094 627.839 107.154C628.371 107.196 628.841 107.276 629.248 107.394C629.654 107.512 629.954 107.613 630.147 107.696L629.346 110.027C629.219 109.977 629.058 109.924 628.862 109.868C628.668 109.807 628.449 109.767 628.205 109.748C627.633 109.702 627.217 109.809 626.957 110.067C626.703 110.321 626.556 110.702 626.516 111.212L625.395 125.29L622.311 125.044ZM630.051 125.66L631.089 112.611L634.165 112.855L633.126 125.905L630.051 125.66ZM632.783 110.882C632.296 110.843 631.89 110.648 631.564 110.297C631.239 109.941 631.095 109.533 631.131 109.074C631.168 108.61 631.375 108.23 631.752 107.935C632.13 107.635 632.562 107.504 633.049 107.543C633.542 107.582 633.948 107.78 634.267 108.136C634.592 108.486 634.737 108.894 634.7 109.358C634.663 109.817 634.456 110.197 634.079 110.497C633.708 110.793 633.276 110.921 632.783 110.882ZM641.591 126.835C640.283 126.731 639.174 126.369 638.266 125.75C637.364 125.125 636.698 124.291 636.268 123.248C635.838 122.199 635.678 120.993 635.787 119.628C635.894 118.285 636.242 117.127 636.833 116.154C637.429 115.176 638.212 114.44 639.18 113.947C640.149 113.449 641.256 113.249 642.502 113.348C643.306 113.412 644.055 113.603 644.748 113.92C645.447 114.232 646.05 114.679 646.556 115.261C647.069 115.843 647.45 116.563 647.701 117.421C647.952 118.273 648.033 119.271 647.941 120.416L647.866 121.359L637.17 120.507L637.335 118.434L645.083 119.051C645.125 118.461 645.039 117.927 644.826 117.449C644.614 116.965 644.295 116.571 643.868 116.27C643.448 115.968 642.943 115.794 642.354 115.747C641.725 115.697 641.161 115.806 640.661 116.074C640.161 116.336 639.759 116.703 639.453 117.175C639.154 117.641 638.978 118.166 638.926 118.749L638.782 120.559C638.722 121.317 638.808 121.98 639.043 122.546C639.277 123.106 639.632 123.55 640.108 123.879C640.584 124.202 641.156 124.39 641.824 124.443C642.272 124.478 642.682 124.448 643.054 124.353C643.427 124.251 643.756 124.087 644.042 123.859C644.328 123.63 644.554 123.338 644.719 122.98L647.565 123.532C647.324 124.276 646.925 124.912 646.37 125.437C645.822 125.958 645.141 126.343 644.329 126.592C643.518 126.835 642.605 126.916 641.591 126.835ZM654.022 110.059L652.637 127.458L649.561 127.213L650.946 109.814L654.022 110.059ZM660.169 128.288C659.144 128.207 658.247 127.87 657.479 127.279C656.711 126.688 656.132 125.872 655.742 124.833C655.352 123.793 655.214 122.556 655.328 121.123C655.443 119.673 655.778 118.469 656.333 117.51C656.895 116.546 657.603 115.841 658.46 115.396C659.316 114.946 660.246 114.76 661.248 114.84C662.013 114.901 662.631 115.081 663.103 115.381C663.576 115.675 663.942 116.015 664.202 116.401C664.462 116.78 664.659 117.135 664.793 117.465L664.92 117.475L665.438 110.967L668.522 111.213L667.137 128.612L664.113 128.372L664.276 126.316L664.089 126.301C663.905 126.605 663.649 126.924 663.321 127.257C662.993 127.584 662.572 127.853 662.06 128.063C661.547 128.273 660.917 128.348 660.169 128.288ZM661.228 125.834C661.879 125.885 662.449 125.754 662.935 125.439C663.422 125.119 663.81 124.651 664.099 124.036C664.387 123.42 664.565 122.691 664.632 121.847C664.699 121.003 664.639 120.26 664.45 119.618C664.268 118.976 663.961 118.465 663.529 118.083C663.104 117.701 662.56 117.484 661.897 117.431C661.212 117.377 660.625 117.509 660.138 117.83C659.651 118.15 659.266 118.615 658.984 119.226C658.702 119.836 658.528 120.546 658.464 121.356C658.399 122.171 658.457 122.908 658.638 123.567C658.826 124.22 659.134 124.749 659.564 125.154C659.999 125.553 660.554 125.78 661.228 125.834Z" fill="white"/>
<g clip-path="url(#clip0_132_27)">
<path fill-rule="evenodd" clip-rule="evenodd" d="M159.015 444.314C158.835 444.858 145.864 460.677 145.864 460.677C145.864 460.677 203.684 488.717 259.34 460.677L244.75 442.339L205.304 445.756L159.015 444.314Z" fill="#D9D9D9"/>
<path d="M187.295 550.247H150.687V560.088H187.295V550.247Z" fill="#D9D9D9"/>
<path d="M255.921 550.247H219.312V560.088H255.921V550.247Z" fill="#D9D9D9"/>
<path fill-rule="evenodd" clip-rule="evenodd" d="M187.655 377.008C187.655 377.008 186.797 385.73 192.056 390.974C194.374 393.293 197.829 395.079 203.104 395.079C211.293 395.079 215.216 390.261 217.077 385.432C218.104 382.64 218.611 379.684 218.573 376.71C218.532 375.676 218.083 374.7 217.322 373.997C216.562 373.294 215.552 372.92 214.516 372.959C213.48 372.999 212.503 373.448 211.798 374.207C211.093 374.966 210.719 375.974 210.758 377.008C210.769 378.917 210.437 380.813 209.776 382.605C208.887 384.914 207.026 387.223 203.093 387.223C200.523 387.223 198.723 386.546 197.577 385.402C194.75 382.575 195.413 377.823 195.413 377.823C195.528 376.795 195.231 375.764 194.585 374.955C193.939 374.146 192.998 373.626 191.968 373.508C191.454 373.453 190.935 373.5 190.439 373.646C189.943 373.792 189.482 374.035 189.081 374.36C188.68 374.686 188.347 375.087 188.102 375.542C187.858 375.996 187.706 376.494 187.655 377.008Z" fill="black"/>
<path fill-rule="evenodd" clip-rule="evenodd" d="M114.155 543.299C114.155 543.299 89.8697 525.146 132.2 471.734L155.283 443.812L163.369 445.7L157.735 451.426C157.735 451.426 131.038 482.976 124.077 496.162C117.117 509.348 109.883 526.947 117.476 535.511C124.077 542.935 126.818 539.451 127.661 534.105C128.504 528.759 127.609 527.142 133.583 527.07C139.557 526.999 141.808 526.999 141.808 526.999L141.67 535.937L136.313 535.654C135.81 535.623 135.31 535.757 134.89 536.035C134.47 536.312 134.152 536.719 133.984 537.194C133.059 539.359 128.894 553.387 114.155 543.299Z" fill="black"/>
<path fill-rule="evenodd" clip-rule="evenodd" d="M292.309 543.299C292.309 543.299 316.594 525.146 274.264 471.734L251.181 443.812L243.095 445.7L248.709 451.426C248.709 451.426 275.411 482.976 282.371 496.162C289.332 509.348 296.56 526.947 288.967 535.511C282.366 542.935 279.631 539.451 278.783 534.105C277.935 528.759 278.834 527.142 272.866 527.07C266.897 526.999 262.414 526.999 262.414 526.999L262.774 535.824L270.115 535.654C270.618 535.623 271.117 535.756 271.537 536.034C271.956 536.312 272.273 536.719 272.439 537.194C273.406 539.359 277.565 553.387 292.309 543.299Z" fill="black"/>
<path fill-rule="evenodd" clip-rule="evenodd" d="M115.101 511.657C115.101 511.657 134.395 523.792 138.713 528.014L142.06 527.137L142.857 521.493C142.857 521.493 125.589 508.666 117.219 504.258L115.101 511.657Z" fill="black"/>
<path fill-rule="evenodd" clip-rule="evenodd" d="M290.083 511.657C290.083 511.657 270.789 523.792 266.47 528.014L263.124 527.137L262.332 521.493C262.332 521.493 279.6 508.666 287.97 504.258L290.083 511.657Z" fill="black"/>
<path fill-rule="evenodd" clip-rule="evenodd" d="M150.789 341.861C150.789 341.861 135.099 341.861 135.099 359.306C135.099 373.457 136.749 385.273 150.789 385.273C164.829 385.273 166.346 372.631 166.346 363.149C166.346 353.667 162.768 341.861 150.789 341.861Z" fill="black"/>
<path fill-rule="evenodd" clip-rule="evenodd" d="M256.955 341.861C256.955 341.861 241.259 341.861 241.259 359.306C241.259 373.457 242.915 385.273 256.955 385.273C270.994 385.273 272.511 372.631 272.511 363.149C272.511 353.667 268.902 341.861 256.955 341.861Z" fill="black"/>
<path fill-rule="evenodd" clip-rule="evenodd" d="M362.529 362.143C376.003 355.078 377.288 345.211 376.954 342.251C376.62 339.29 374.754 331.589 363.521 334.996C352.288 338.403 343.368 332.358 340.284 329.059C337.199 325.76 340.834 324.334 340.834 324.334C368.142 308.726 365.51 279.597 359.557 270.033C353.604 260.47 345.127 268.386 344.469 269.377C343.81 270.367 338.078 278.392 322.661 276.96C307.243 275.529 313.078 248.74 280.593 225.959C248.107 203.178 218.768 206.929 212.82 207.585C206.872 208.242 213.123 203.994 213.123 203.994C222.454 197.76 231.456 177.005 214.665 177.005C181.763 177.005 175.522 215.005 175.522 215.005C112.068 204.486 89.0521 275.754 87.0985 289.916C85.145 304.077 68.3856 304.082 63.2241 300.649C58.0626 297.217 44.5111 288.412 42.573 307.735C40.6349 327.058 60.0007 334.354 60.0007 334.354L56.8288 337.684C56.7208 337.684 31.3915 352.743 38.1056 381.984C44.8196 411.225 69.933 411.99 72.7965 411.549C75.66 411.107 74.6678 413.637 74.6678 413.637C74.6678 413.637 71.0331 428.804 82.4871 436.279C97.9099 446.341 107.93 437.926 110.68 437.598C113.43 437.27 111.672 442.324 122.026 447.603C132.38 452.883 139.644 446.172 141.849 443.206C144.055 440.24 149.227 443.863 149.227 443.863C161.959 448.176 175.29 450.474 188.735 450.672L217.673 450.312C233.363 450.312 252.045 445.33 252.045 445.33C252.045 445.33 256.605 444.155 258.43 443.391C259.263 443.037 260.965 441.482 264.82 446.1C268.676 450.718 274.732 451.703 281.559 449.615C288.386 447.526 291.692 439.835 292.355 436.977C293.018 434.119 295.547 435.546 295.769 435.546C295.99 435.546 303.917 446.977 318.455 438.404C332.994 429.83 327.267 417.08 329.467 414.001C331.668 410.923 338.279 417.3 354.144 406.638C370.009 395.976 366.482 380.04 364.384 373.226C362.287 366.412 356.03 365.55 362.529 362.143ZM94.9384 394.878C87.7771 395.017 71.3982 390.897 68.0925 370.973C64.7869 351.05 87.7771 343.22 87.7771 343.22C87.7771 343.22 89.2474 342.569 90.435 342.892C91.6226 343.215 91.2781 345.324 91.2781 345.324V368.187C91.2781 383.134 97.2518 392.303 97.2518 393.765C97.2518 395.227 94.9384 394.878 94.9384 394.878ZM281.189 418.275C257.14 442.842 204.075 440.943 204.075 440.943L196.009 440.789C93.9154 439.25 102.768 363.098 102.768 363.098V337.956C102.768 335.201 105.081 335.652 105.081 335.652C146.522 328.279 157.647 274.595 157.647 274.595C157.827 273.153 158.161 272.481 159.272 272.614C160.382 272.748 160.377 274.082 160.377 274.082C172.032 316.458 196.878 331.342 222.351 337.012C247.824 342.682 246.236 332.394 244.658 328.351C243.079 324.308 232.031 311.748 231.291 311.24C230.551 310.732 228.721 309.387 230.391 307.53C232.062 305.673 233.661 308.371 233.661 308.371C265.838 340.66 299.521 335.837 301.424 335.909C303.326 335.981 303.048 337.53 303.048 337.53C303.351 380.666 306.359 392.564 281.189 418.275ZM338.371 370.979C335.066 390.902 318.687 395.022 311.525 394.883C311.525 394.883 309.212 395.258 309.212 393.77C309.212 392.282 315.186 383.139 315.186 368.193V345.324C315.186 345.324 314.836 343.22 316.029 342.892C317.222 342.564 318.687 343.22 318.687 343.22C318.687 343.22 341.672 351.05 338.371 370.979Z" fill="black"/>
<path fill-rule="evenodd" clip-rule="evenodd" d="M123.291 494.161C123.291 494.161 137.916 507.614 145.314 509.636L148.224 503.746C148.224 503.746 136.683 498.297 127.521 488.445L123.291 494.161Z" fill="black"/>
<path fill-rule="evenodd" clip-rule="evenodd" d="M281.893 494.161C281.893 494.161 267.267 507.614 259.865 509.636L256.96 503.746C256.96 503.746 268.501 498.297 277.662 488.445L281.893 494.161Z" fill="black"/>
<path fill-rule="evenodd" clip-rule="evenodd" d="M131.665 479.918C131.665 479.918 146.378 491.17 149.108 491.611C151.838 492.052 150.872 485.367 150.872 485.367C150.872 485.367 142.06 479.918 135.896 473.499L131.665 479.918Z" fill="black"/>
<path fill-rule="evenodd" clip-rule="evenodd" d="M273.519 479.918C273.519 479.918 258.805 491.17 256.075 491.611C253.346 492.052 254.312 485.367 254.312 485.367C254.312 485.367 263.124 479.918 269.293 473.499L273.519 479.918Z" fill="black"/>
<path fill-rule="evenodd" clip-rule="evenodd" d="M141.798 467.034C141.798 467.034 152.481 475.207 154.465 475.525C156.449 475.844 155.745 470.995 155.745 470.995C155.745 470.995 149.345 467.034 144.867 462.375L141.798 467.034Z" fill="black"/>
<path fill-rule="evenodd" clip-rule="evenodd" d="M263.391 467.034C263.391 467.034 252.708 475.207 250.724 475.525C248.739 475.844 249.444 470.995 249.444 470.995C249.444 470.995 255.839 467.034 260.317 462.375L263.391 467.034Z" fill="black"/>
<path fill-rule="evenodd" clip-rule="evenodd" d="M138.714 550.216C138.714 550.216 142.703 500.067 155.643 466.819C155.643 466.819 159.498 462.56 151.792 457.342C144.086 452.124 156.193 449.646 156.193 449.646C156.193 449.646 174.777 488.127 203.273 490.041L190.611 492.925C190.611 492.925 172.988 486.742 161.426 469.02C161.426 469.02 153.442 497.183 153.303 506.798H177.533L182.077 507.353L181.111 513.258L177.512 514.218H151.633L150.255 522.602H179.99L183.018 529.61H153.01C153.01 529.61 149.412 529.472 149.288 532.494C149.165 535.516 148.188 544.859 148.188 544.859C148.188 544.859 147.597 546.522 150.589 546.522H205.741V554.085L145.834 553.295C145.834 553.295 138.539 554.352 138.714 550.216Z" fill="black"/>
<path fill-rule="evenodd" clip-rule="evenodd" d="M266.512 550.216C266.512 550.216 262.522 500.067 249.583 466.819C249.583 466.819 245.727 462.56 253.438 457.342C261.15 452.124 249.033 449.646 249.033 449.646C249.033 449.646 230.448 488.127 201.952 490.041L214.614 492.925C214.614 492.925 232.237 486.742 243.799 469.02C243.799 469.02 251.783 497.183 251.922 506.798H227.693L223.148 507.353L224.115 513.258L227.713 514.218H253.593L254.97 522.602H225.235L222.207 529.61H252.22C252.22 529.61 255.819 529.472 255.937 532.494C256.055 535.516 257.037 544.859 257.037 544.859C257.037 544.859 257.628 546.522 254.636 546.522H199.464V554.085L259.371 553.295C259.371 553.295 266.723 554.352 266.512 550.216Z" fill="black"/>
<path fill-rule="evenodd" clip-rule="evenodd" d="M173.307 446.254C173.307 446.254 177.183 459.081 187.403 466.742C197.623 474.402 200.883 476.064 200.883 476.064C200.883 476.064 202.841 477.727 205.443 476.028C209.668 473.273 226.083 464.894 232.689 447.485L225.903 447.998C225.903 447.998 223.333 458.373 206.173 469.102L203.504 470.81C203.504 470.81 191.233 466.803 179.687 448.476L173.307 446.254Z" fill="black"/>
<path fill-rule="evenodd" clip-rule="evenodd" d="M184.313 444.951C184.313 444.951 180.612 444.684 189.526 453.822C198.44 462.96 200.882 463.324 200.882 463.324C200.882 463.324 202.841 464.987 205.442 463.288C209.668 460.533 219.045 455.002 226.16 445.223L219.59 445.392C219.59 445.392 216.958 447.757 207.355 455.782L203.504 458.491C203.504 458.491 198.667 457.419 189.665 444.407L184.313 444.951Z" fill="black"/>
<path fill-rule="evenodd" clip-rule="evenodd" d="M202.713 497.296C207.74 497.299 212.561 499.293 216.116 502.841C219.671 506.389 221.67 511.201 221.672 516.219C221.674 518.705 221.186 521.168 220.234 523.466C219.282 525.764 217.886 527.853 216.125 529.613C214.365 531.372 212.274 532.768 209.973 533.721C207.671 534.674 205.204 535.166 202.713 535.167C197.685 535.166 192.863 533.172 189.308 529.623C185.752 526.075 183.754 521.262 183.753 516.244C183.751 513.758 184.24 511.295 185.192 508.997C186.143 506.698 187.539 504.61 189.3 502.85C191.061 501.091 193.151 499.695 195.453 498.742C197.754 497.788 200.221 497.297 202.713 497.296ZM202.713 489.276C209.871 489.28 216.735 492.12 221.797 497.172C226.858 502.224 229.704 509.074 229.708 516.219C229.704 523.363 226.858 530.213 221.797 535.265C216.735 540.317 209.871 543.157 202.713 543.161C195.556 543.154 188.695 540.313 183.636 535.262C178.576 530.21 175.732 523.361 175.728 516.219C175.732 509.076 178.576 502.227 183.636 497.176C188.695 492.124 195.556 489.283 202.713 489.276Z" fill="black"/>
<path fill-rule="evenodd" clip-rule="evenodd" d="M202.713 509.045C204.622 509.045 206.452 509.802 207.802 511.149C209.152 512.497 209.91 514.324 209.91 516.229C209.91 518.134 209.152 519.961 207.802 521.308C206.452 522.655 204.622 523.412 202.713 523.412C200.804 523.412 198.973 522.655 197.623 521.308C196.274 519.961 195.515 518.134 195.515 516.229C195.515 514.324 196.274 512.497 197.623 511.149C198.973 509.802 200.804 509.045 202.713 509.045ZM202.713 502.924C206.245 502.926 209.632 504.327 212.13 506.82C214.628 509.312 216.031 512.693 216.033 516.218C216.034 517.965 215.69 519.694 215.02 521.308C214.351 522.922 213.37 524.388 212.134 525.624C210.897 526.859 209.428 527.84 207.812 528.508C206.195 529.177 204.463 529.522 202.713 529.523C199.18 529.521 195.793 528.12 193.295 525.628C190.798 523.135 189.394 519.754 189.393 516.229C189.392 514.482 189.736 512.753 190.405 511.139C191.074 509.525 192.055 508.059 193.292 506.823C194.529 505.588 195.997 504.608 197.614 503.939C199.23 503.27 200.963 502.925 202.713 502.924Z" fill="black"/>
<path fill-rule="evenodd" clip-rule="evenodd" d="M148.075 550.893C148.075 550.893 147.52 577.035 151.607 587.44C151.825 587.9 152.17 588.288 152.6 588.561C153.03 588.833 153.529 588.978 154.039 588.98C160.588 588.98 183.496 588.98 183.496 588.98C183.496 588.98 187.192 589.683 187.547 584.321C187.902 578.959 189.31 558.03 191.423 549.236L182.612 552.227L182.01 561.247C181.987 561.664 181.804 562.055 181.5 562.342C181.196 562.628 180.794 562.787 180.376 562.786H156.969C156.667 562.786 156.377 562.667 156.162 562.455C155.947 562.243 155.825 561.954 155.823 561.653C155.823 558.528 155.74 550.036 155.74 550.036L148.075 550.893Z" fill="black"/>
<path fill-rule="evenodd" clip-rule="evenodd" d="M257.741 550.893C257.741 550.893 258.297 577.035 254.209 587.44C253.991 587.9 253.647 588.288 253.217 588.561C252.786 588.833 252.287 588.978 251.778 588.98C245.228 588.98 222.32 588.98 222.32 588.98C222.32 588.98 218.624 589.683 218.269 584.321C217.915 578.959 216.506 558.03 214.393 549.236L223.205 552.227L223.806 561.247C223.83 561.664 224.012 562.055 224.316 562.342C224.62 562.628 225.023 562.787 225.441 562.786H248.847C249.15 562.786 249.44 562.667 249.655 562.455C249.869 562.243 249.991 561.954 249.994 561.653C249.994 558.528 250.076 550.036 250.076 550.036L257.741 550.893Z" fill="black"/>
<path fill-rule="evenodd" clip-rule="evenodd" d="M118.217 397.659C118.217 397.659 108.701 387.911 112.15 374.263C112.15 374.263 115.322 366.972 120.561 372.887C125.799 378.803 141.382 396.556 141.382 396.556C141.382 396.556 146.183 402.175 142.759 404.124C135.536 408.239 124.561 403.58 118.217 397.659Z" fill="#D9D9D9"/>
<path fill-rule="evenodd" clip-rule="evenodd" d="M288.027 397.659C288.027 397.659 297.542 387.911 294.093 374.263C294.093 374.263 290.921 366.972 285.682 372.887C280.444 378.803 264.862 396.556 264.862 396.556C264.862 396.556 260.055 402.175 263.484 404.124C270.707 408.239 281.683 403.58 288.027 397.659Z" fill="#D9D9D9"/>
</g>
<g clip-path="url(#clip1_132_27)">
<path fill-rule="evenodd" clip-rule="evenodd" d="M550.636 465.352C550.46 465.884 540.983 480.674 540.983 480.674C540.983 480.674 611.204 527.153 680.236 481.066L670.055 464.985L611.777 471.849L550.636 465.352Z" fill="#D9D9D9"/>
<path d="M594.938 551.189H559.101V562.416H594.938V551.189Z" fill="#D9D9D9"/>
<path d="M662.119 551.189H626.281V562.416H662.119V551.189Z" fill="#D9D9D9"/>
<path fill-rule="evenodd" clip-rule="evenodd" d="M451.851 364.86C451.851 364.86 460.577 380.313 478.302 381.64L481.075 402.897L465.736 399.595L449.601 382.956L448.413 372.66L438.625 365.001L437.694 361.539L451.851 364.86Z" fill="#D9D9D9"/>
<path fill-rule="evenodd" clip-rule="evenodd" d="M768.841 364.86C768.841 364.86 760.114 380.313 742.394 381.64L739.616 402.897L754.956 399.595L771.09 382.956L772.278 372.659L782.066 365.001L782.992 361.563L768.841 364.86Z" fill="#D9D9D9"/>
<path fill-rule="evenodd" clip-rule="evenodd" d="M625.914 395.289C625.914 395.289 626.749 386.746 621.601 381.61C619.331 379.339 615.949 377.59 610.791 377.59C602.769 377.59 598.929 382.304 597.107 387.037C596.104 389.762 595.608 392.647 595.643 395.55C595.715 396.539 596.168 397.462 596.908 398.123C597.648 398.784 598.616 399.133 599.609 399.095C600.601 399.057 601.54 398.636 602.227 397.92C602.914 397.205 603.296 396.25 603.292 395.259C603.281 393.39 603.607 391.535 604.254 389.781C605.129 387.515 606.951 385.233 610.796 385.233C613.338 385.233 615.074 385.897 616.191 387.017C618.959 389.786 618.31 394.44 618.31 394.44C618.24 394.945 618.272 395.459 618.405 395.952C618.537 396.445 618.767 396.907 619.081 397.309C619.394 397.712 619.785 398.048 620.231 398.298C620.677 398.547 621.168 398.705 621.676 398.762C622.184 398.819 622.698 398.774 623.188 398.63C623.678 398.485 624.134 398.244 624.529 397.921C624.925 397.598 625.252 397.199 625.49 396.748C625.729 396.297 625.875 395.802 625.919 395.294L625.914 395.289Z" fill="black"/>
<path fill-rule="evenodd" clip-rule="evenodd" d="M559.604 347.091C559.604 347.091 544.24 347.091 544.24 364.177C544.24 378.037 545.855 389.611 559.604 389.611C573.353 389.611 574.833 377.228 574.833 367.941C574.833 358.655 571.325 347.091 559.604 347.091Z" fill="black"/>
<path fill-rule="evenodd" clip-rule="evenodd" d="M661.918 348.146C661.918 348.146 646.553 348.146 646.553 365.233C646.553 379.092 648.174 390.666 661.918 390.666C675.662 390.666 677.147 378.283 677.147 369.002C677.147 359.72 673.644 348.146 661.918 348.146Z" fill="black"/>
<path fill-rule="evenodd" clip-rule="evenodd" d="M527.682 401.742C527.682 401.742 518.372 392.194 521.744 378.826C521.744 378.826 524.849 371.685 529.977 377.479C535.105 383.274 550.359 400.661 550.359 400.661C550.359 400.661 555.065 406.164 551.708 408.074C544.637 412.104 533.892 407.541 527.682 401.742Z" fill="#D9D9D9"/>
<path fill-rule="evenodd" clip-rule="evenodd" d="M693.915 401.742C693.915 401.742 703.23 392.194 699.858 378.826C699.858 378.826 696.753 371.685 691.62 377.479C686.487 383.274 671.238 400.661 671.238 400.661C671.238 400.661 666.537 406.164 669.889 408.074C676.96 412.104 687.71 407.541 693.915 401.742Z" fill="#D9D9D9"/>
<path fill-rule="evenodd" clip-rule="evenodd" d="M507.527 348.358C507.527 348.358 546.142 344.177 560.334 304.381C560.334 304.381 561.22 302.622 562.347 303.15C563.474 303.677 566.756 331.849 592.412 341.709C592.412 341.709 604.4 345.759 605.286 338.538C606.171 331.317 596.227 324.849 593.56 315.08C593.501 314.953 593.47 314.816 593.467 314.677C593.465 314.537 593.491 314.399 593.545 314.27C593.599 314.142 593.679 314.026 593.781 313.93C593.882 313.834 594.002 313.76 594.133 313.713C595.14 313.185 595.895 314.155 596.468 314.989C597.042 315.824 627.077 349.981 661.369 344.262C661.369 344.262 669.421 341.578 666.402 335.106C663.382 328.633 661.596 329.472 661.903 327.065C661.903 327.065 662.567 325.261 664.504 327.201C666.442 329.141 687.911 347.976 711.585 346.257V311.13C711.585 311.13 683.945 256.992 610.429 256.992C536.912 256.992 497.738 313.231 497.738 346.373L507.527 348.358Z" fill="black"/>
<path fill-rule="evenodd" clip-rule="evenodd" d="M514.929 341.438C514.929 341.438 486.369 428.421 610.675 428.421V442.859C610.675 442.859 488.659 447.613 497.738 346.373L515.02 337.222L514.929 341.438Z" fill="black"/>
<path fill-rule="evenodd" clip-rule="evenodd" d="M706.436 341.438C706.436 341.438 735.001 428.416 610.69 428.416V442.854C610.69 442.854 732.712 447.608 723.628 346.368L706.336 337.222L706.436 341.438Z" fill="black"/>
<path fill-rule="evenodd" clip-rule="evenodd" d="M723.613 346.372C723.613 346.372 721.232 329.879 711.58 311.115C701.927 292.35 691.61 316.14 691.61 316.14C691.61 316.14 698.092 329.347 698.485 329.608C698.877 329.869 709.053 343.87 709.053 343.87L723.613 346.372Z" fill="black"/>
<path fill-rule="evenodd" clip-rule="evenodd" d="M745.505 376.007V328.1C745.505 326.422 745.56 324.749 745.646 323.075C745.988 316.356 745.142 289.647 715.349 253.414C676.598 206.327 622.135 204.875 612.346 205.01C611.34 205.01 610.317 205.01 609.276 205.01C599.463 204.875 544.683 206.312 505.942 253.414C476.138 289.647 475.303 316.356 475.645 323.075C475.731 324.754 475.786 326.427 475.786 328.1V376.007C475.786 378.102 475.706 380.198 475.58 382.288C475.051 390.862 476.138 424.049 519.827 453.206C519.827 453.206 555.558 476.709 593.353 476.709H627.927C665.748 476.709 701.454 453.206 701.454 453.206C745.142 424.059 746.244 390.862 745.701 382.288C745.585 380.198 745.505 378.122 745.505 376.007ZM717.543 426.627C716.034 428.18 714.524 429.763 713.105 431.416C679.638 470.443 617.585 468.724 610.942 468.423C610.942 468.423 541.653 470.433 508.186 431.416C506.767 429.763 505.272 428.18 503.747 426.627C497.945 420.707 481.87 399.882 481.87 350.865C481.87 291.144 525.534 232.484 610.811 232.268C696.089 232.464 739.42 291.124 739.42 350.865C739.42 399.882 723.346 420.707 717.543 426.627Z" fill="black"/>
<path fill-rule="evenodd" clip-rule="evenodd" d="M481.166 399.551C465.318 395.209 458.328 386.163 455.253 379.746C453.728 376.525 452.942 373.006 452.953 369.444V344.614C452.953 344.614 450.663 324.191 476.672 317.06L478.081 306.582C478.081 306.582 445.746 314.417 445.746 344.176V373.052C445.746 402.807 482.595 410.023 482.595 410.023L481.166 399.551Z" fill="black"/>
<path d="M460.054 286.425C468.197 286.425 474.799 279.833 474.799 271.701C474.799 263.569 468.197 256.977 460.054 256.977C451.91 256.977 445.308 263.569 445.308 271.701C445.308 279.833 451.91 286.425 460.054 286.425Z" fill="black"/>
<path d="M463.486 281.144H456.612V320.362H463.486V281.144Z" fill="black"/>
<path d="M465.65 317.587H461.242V395.937H465.65V317.587Z" fill="black"/>
<path fill-rule="evenodd" clip-rule="evenodd" d="M443.19 353.705C444.491 352.677 445.902 351.796 447.397 351.076V341.976L437.523 350.403C437.523 350.403 434 353.242 434 359.755C434 366.268 437.523 369.112 437.523 369.112L447.397 377.54V368.434C445.902 367.718 444.49 366.838 443.19 365.811C442.457 365.229 441.863 364.493 441.448 363.655C440.828 362.448 440.505 361.111 440.505 359.755C440.505 358.399 440.828 357.062 441.448 355.856C441.861 355.018 442.456 354.284 443.19 353.705Z" fill="black"/>
<path fill-rule="evenodd" clip-rule="evenodd" d="M740.829 399.551C756.677 395.204 763.687 386.153 766.742 379.746C768.267 376.525 769.053 373.006 769.042 369.444V344.614C769.042 344.614 771.337 324.191 745.328 317.06L743.914 306.582C743.914 306.582 776.274 314.417 776.274 344.176V373.052C776.274 402.807 739.42 410.023 739.42 410.023L740.829 399.551Z" fill="black"/>
<path d="M756.35 395.942H760.758V317.593H756.35V395.942Z" fill="black"/>
<path fill-rule="evenodd" clip-rule="evenodd" d="M778.805 353.705C777.504 352.676 776.093 351.795 774.598 351.076V341.976L784.472 350.403C784.472 350.403 787.995 353.242 787.995 359.755C787.995 366.268 784.472 369.112 784.472 369.112L774.598 377.54V368.434C776.094 367.719 777.505 366.839 778.805 365.811C779.538 365.229 780.132 364.493 780.547 363.655C781.167 362.448 781.49 361.111 781.49 359.755C781.49 358.399 781.167 357.062 780.547 355.856C780.134 355.018 779.539 354.284 778.805 353.705Z" fill="black"/>
<path fill-rule="evenodd" clip-rule="evenodd" d="M542.966 477.458C542.966 477.458 548.96 485.559 559.453 488.011L557.777 494.087C557.777 494.087 544.818 490.479 539.62 482.82L542.966 477.458Z" fill="black"/>
<path fill-rule="evenodd" clip-rule="evenodd" d="M532.479 493.394L557.516 505.369L555.84 513.294L528.951 500.173L532.479 493.394Z" fill="black"/>
<path fill-rule="evenodd" clip-rule="evenodd" d="M677.247 477.458C677.247 477.458 671.248 485.559 660.76 488.011L662.431 494.087C662.431 494.087 675.395 490.479 680.594 482.82L677.247 477.458Z" fill="black"/>
<path fill-rule="evenodd" clip-rule="evenodd" d="M687.735 493.394L662.693 505.369L664.369 513.294L691.258 500.173L687.735 493.394Z" fill="black"/>
<path fill-rule="evenodd" clip-rule="evenodd" d="M672.567 552.376L661.646 469.538L656.533 471.382L663.156 547.059C663.169 547.251 663.142 547.444 663.078 547.626C663.013 547.808 662.912 547.975 662.78 548.116C662.649 548.257 662.49 548.37 662.313 548.447C662.136 548.525 661.945 548.565 661.752 548.566H559.157C559.013 548.566 558.872 548.536 558.741 548.48C558.609 548.423 558.491 548.34 558.392 548.236C558.294 548.132 558.218 548.01 558.168 547.875C558.119 547.741 558.097 547.598 558.105 547.456L558.925 533.073L565.095 470.92L559.192 469.774L550.636 531.36L540.168 529.199C539.655 529.077 539.114 529.154 538.655 529.416C538.196 529.677 537.854 530.102 537.697 530.606C537.083 532.455 535.408 539.501 535.408 539.501C535.408 539.501 534.612 542.581 530.204 540.908C525.795 539.234 518.921 521.364 532.499 498.916C546.077 476.468 552.508 467.136 552.508 467.136L547.395 462.91C547.395 462.91 519.006 497.082 517.069 526.118C515.131 555.155 541.578 548.918 542.811 541.878C544.044 534.837 549.6 538.792 549.6 538.792L548.276 551.029C548.264 551.317 548.277 551.607 548.316 551.893C548.241 556.205 551.452 555.783 551.452 555.783H669.925C673.724 555.808 672.567 552.376 672.567 552.376Z" fill="black"/>
<path fill-rule="evenodd" clip-rule="evenodd" d="M634.283 494.866C630.123 494.865 626.057 496.096 622.597 498.403C619.138 500.71 616.441 503.99 614.849 507.828C613.257 511.665 612.84 515.888 613.651 519.962C614.462 524.037 616.465 527.779 619.407 530.716C622.349 533.654 626.097 535.654 630.177 536.464C634.257 537.274 638.486 536.858 642.329 535.268C646.172 533.678 649.457 530.985 651.767 527.531C654.078 524.076 655.311 520.015 655.31 515.861C655.31 510.293 653.095 504.953 649.151 501.015C645.208 497.078 639.86 494.866 634.283 494.866ZM634.283 530.123C631.458 530.124 628.697 529.289 626.347 527.722C623.998 526.156 622.166 523.929 621.084 521.323C620.003 518.717 619.719 515.849 620.27 513.082C620.82 510.315 622.18 507.774 624.177 505.779C626.175 503.784 628.719 502.425 631.49 501.874C634.261 501.323 637.133 501.605 639.743 502.685C642.353 503.764 644.584 505.592 646.154 507.938C647.723 510.283 648.561 513.041 648.561 515.861C648.562 517.734 648.193 519.589 647.476 521.319C646.758 523.049 645.707 524.621 644.381 525.946C643.055 527.27 641.481 528.321 639.748 529.038C638.016 529.754 636.159 530.123 634.283 530.123Z" fill="black"/>
<path fill-rule="evenodd" clip-rule="evenodd" d="M630.715 497.047L629.653 475.79L635.869 475.393L636.996 496.72L630.715 497.047Z" fill="black"/>
<path fill-rule="evenodd" clip-rule="evenodd" d="M642.879 500.484L642.416 472.684L648.5 471.694L649.361 503.781L642.879 500.484Z" fill="black"/>
<path fill-rule="evenodd" clip-rule="evenodd" d="M558.109 522.203H617.157L616.166 516.922H558.774L558.109 522.203Z" fill="black"/>
<path fill-rule="evenodd" clip-rule="evenodd" d="M651.807 522.203H663.709L662.718 516.922H652.466L651.807 522.203Z" fill="black"/>
<path fill-rule="evenodd" clip-rule="evenodd" d="M597.716 518.113V474.865H603.207V519.038L597.716 518.113Z" fill="black"/>
<path d="M572.855 510.912C575.046 510.912 576.821 509.139 576.821 506.952C576.821 504.765 575.046 502.992 572.855 502.992C570.665 502.992 568.89 504.765 568.89 506.952C568.89 509.139 570.665 510.912 572.855 510.912Z" fill="black"/>
<path d="M587.405 510.912C589.595 510.912 591.37 509.139 591.37 506.952C591.37 504.765 589.595 502.992 587.405 502.992C585.214 502.992 583.439 504.765 583.439 506.952C583.439 509.139 585.214 510.912 587.405 510.912Z" fill="black"/>
<path d="M587.404 498.434C588.975 498.434 590.248 497.163 590.248 495.595C590.248 494.027 588.975 492.755 587.404 492.755C585.834 492.755 584.561 494.027 584.561 495.595C584.561 497.163 585.834 498.434 587.404 498.434Z" fill="black"/>
<path d="M573.056 498.434C574.627 498.434 575.9 497.163 575.9 495.595C575.9 494.027 574.627 492.755 573.056 492.755C571.486 492.755 570.213 494.027 570.213 495.595C570.213 497.163 571.486 498.434 573.056 498.434Z" fill="black"/>
<path d="M623.77 528.345H556.987V532.44H623.77V528.345Z" fill="black"/>
<path fill-rule="evenodd" clip-rule="evenodd" d="M666.925 532.747L680.589 529.229C680.589 529.229 683.608 527.907 683.85 530.636C684.092 533.365 683.85 546.214 690.463 540.144C697.076 534.073 700.78 521.128 688.953 500.529C677.126 479.93 667.444 467.166 667.444 467.166L673.528 464.081C673.528 464.081 700.85 492.609 704.298 524.123C707.116 549.918 682.255 552.381 679.079 544.546C677.338 540.234 677.67 535.566 674.142 537.511C672.337 538.542 670.45 539.425 668.501 540.149L666.925 532.747Z" fill="black"/>
<path fill-rule="evenodd" clip-rule="evenodd" d="M621.888 554.511C621.888 554.511 623.65 578.543 624.621 583.658C625.592 588.774 628.677 589.03 628.677 589.03H659.94C660.5 589.029 661.04 588.817 661.45 588.436C661.861 588.055 662.112 587.533 662.154 586.975L664.645 553.637L657.117 553.506C657.117 553.506 657.298 558.909 657.489 564.758C657.494 564.887 657.471 565.015 657.42 565.134C657.37 565.253 657.294 565.359 657.198 565.445C657.102 565.531 656.988 565.594 656.864 565.631C656.74 565.668 656.61 565.677 656.482 565.658C649.346 564.723 636.015 565.512 631.163 565.849C631.044 565.857 630.925 565.841 630.812 565.801C630.7 565.762 630.596 565.701 630.508 565.62C630.42 565.54 630.35 565.442 630.3 565.334C630.251 565.226 630.225 565.108 630.222 564.989L629.976 553.526L621.888 554.511ZM630.529 577.924L630.403 572.1C630.398 571.886 630.472 571.677 630.611 571.513C630.75 571.35 630.945 571.244 631.158 571.216C639.719 570.083 648.39 570.048 656.961 571.11C657.173 571.136 657.368 571.24 657.509 571.401C657.649 571.563 657.725 571.771 657.72 571.984C657.72 575.502 656.91 578.336 656.91 579.02C656.91 581.136 654.993 580.603 654.993 580.603H632.799C630.534 580.568 630.514 577.904 630.514 577.904L630.529 577.924Z" fill="black"/>
<path fill-rule="evenodd" clip-rule="evenodd" d="M590.927 553.506L590.681 564.969C590.678 565.088 590.651 565.206 590.602 565.314C590.553 565.422 590.482 565.52 590.394 565.6C590.306 565.681 590.203 565.742 590.09 565.781C589.978 565.821 589.858 565.837 589.739 565.829C584.888 565.492 571.552 564.703 564.42 565.638C564.293 565.657 564.162 565.648 564.039 565.611C563.915 565.574 563.801 565.511 563.705 565.425C563.609 565.339 563.533 565.233 563.482 565.114C563.432 564.995 563.409 564.867 563.414 564.738C563.6 558.889 563.786 553.486 563.786 553.486L556.272 553.592L558.789 586.93C558.831 587.488 559.082 588.01 559.493 588.391C559.903 588.772 560.443 588.984 561.003 588.985H592.266C592.266 588.985 595.351 588.719 596.322 583.613C597.293 578.507 599.055 554.466 599.055 554.466L590.927 553.506ZM588.129 580.553H565.935C565.935 580.553 564.018 581.085 564.018 578.97C564.018 578.301 563.212 575.482 563.207 571.934C563.203 571.721 563.279 571.513 563.419 571.351C563.559 571.19 563.755 571.086 563.967 571.06C572.537 569.998 581.208 570.033 589.77 571.165C589.982 571.195 590.176 571.301 590.316 571.464C590.455 571.627 590.529 571.836 590.525 572.05L590.399 577.874C590.399 577.874 590.379 580.568 588.129 580.568V580.553Z" fill="black"/>
<path fill-rule="evenodd" clip-rule="evenodd" d="M538.296 345.935L580.263 366.187L587.138 354.036L580.087 359.318L546.057 332.206L538.296 345.935Z" fill="black"/>
<path fill-rule="evenodd" clip-rule="evenodd" d="M681.032 345.935L639.065 366.187L632.19 354.036L639.241 359.318L673.271 332.206L681.032 345.935Z" fill="black"/>
</g>
<path d="M95.508 16.5267C95.8069 16.5008 96.1231 16.674 96.2487 16.9643C96.4825 17.3455 96.5171 17.744 96.7424 18.0255C97.262 19.3857 97.682 20.7544 98.2017 22.1146C98.4615 22.7946 98.8773 22.9593 99.4751 22.9074C100.073 22.8554 100.77 22.7949 101.359 22.6433C102.845 22.4139 104.357 22.4833 105.868 22.5528C106.068 22.5355 106.176 22.6264 106.284 22.7174C106.492 22.7997 106.834 23.2719 106.752 23.4798C106.431 24.411 106.002 25.2513 105.041 25.7363C104.079 26.2214 103.217 26.6978 102.255 27.1828C101.866 27.317 101.584 27.5422 101.203 27.7761C100.631 28.1269 100.575 28.6337 100.826 29.2141C101.328 30.375 101.831 31.5359 102.723 32.5625C102.84 32.7531 102.957 32.9437 103.173 33.1257C103.515 33.5978 103.459 34.1046 102.896 34.555C102.432 34.9968 101.926 34.9404 101.592 34.5679C101.475 34.3773 101.259 34.1954 101.142 34.0048C100.115 32.5883 98.6426 31.8128 97.17 31.0373C96.3383 30.7081 95.641 30.7686 94.8786 31.2364C94.0339 31.912 93.1805 32.488 92.3272 33.064C92.0456 33.2892 91.7813 33.7137 91.608 34.0299C91.4348 34.346 91.2701 34.7619 91.0968 35.078C90.5597 35.8273 90.0788 36.0699 89.3296 35.5327C89.0134 35.3594 88.6885 35.0865 88.3724 34.9132C88.1558 34.7312 88.1125 34.2331 88.2945 34.0166C88.4764 33.8 88.5587 33.5921 88.7493 33.4752C89.5117 33.0074 89.9493 32.2668 90.2699 31.3356C90.4345 30.9198 90.5905 30.4043 90.7551 29.9885C91.2404 28.6415 91.1148 28.3512 89.6768 27.9743C88.438 27.58 87.2166 27.385 85.9778 26.9907C85.6703 26.917 85.3627 26.8434 85.0465 26.6701C84.739 26.5964 84.6134 26.3062 84.5788 25.9077C84.5529 25.6088 84.8171 25.1843 85.0164 25.167C85.4062 25.0328 85.7961 24.8986 86.1859 24.7643C87.7712 24.5262 89.3566 24.2882 90.9333 23.9504C91.531 23.8985 92.0205 23.7556 92.6096 23.6041C92.8088 23.5868 92.9908 23.3702 93.0731 23.1623C93.3287 22.6382 93.4847 22.1228 93.5411 21.616C93.8357 20.3859 94.1304 19.1558 94.4164 17.8261C94.49 17.5185 94.5637 17.211 94.737 16.8948C94.7197 16.6956 95.2005 16.4531 95.508 16.5267ZM97.8201 26.9658C97.5862 26.5846 97.4433 26.0951 97.2094 25.7139C97.0925 25.5234 96.785 25.4497 96.5771 25.3674C95.9707 25.3197 95.2733 25.3802 94.6929 25.6314C94.1124 25.8826 93.7658 26.5149 93.7181 27.1214C93.7268 27.221 93.7441 27.4202 93.8524 27.5112C94.3938 27.9661 95.0175 28.213 95.7322 28.3517C95.8318 28.343 96.031 28.3257 96.2216 28.2088C96.6028 27.9749 97.0836 27.7324 97.3565 27.4076C97.5644 27.4899 97.6381 27.1824 97.8201 26.9658ZM101.125 24.5708C100.328 24.64 100.237 24.7483 99.5658 25.1078C99.3752 25.2247 99.3016 25.5322 99.4185 25.7228C99.5354 25.9134 99.8343 25.8875 100.042 25.9698C100.142 25.9611 100.241 25.9525 100.241 25.9525C100.722 25.7099 101.203 25.4674 101.675 25.1253C101.775 25.1166 101.749 24.8178 101.74 24.7181C101.74 24.7181 101.632 24.6272 101.532 24.6358C101.532 24.6358 101.333 24.6531 101.125 24.5708ZM96.0445 22.7035C95.919 22.4132 95.802 22.2226 95.6851 22.032C95.6851 22.032 95.4772 21.9497 95.4858 22.0494C95.1047 22.2832 94.9573 22.8983 95.2822 23.1712C95.3904 23.2622 95.5897 23.2449 95.6893 23.2362C95.7803 23.1279 95.8626 22.92 96.0445 22.7035ZM93.0074 30.4955C93.198 30.3786 93.3886 30.2616 93.471 30.0537C93.5619 29.9455 93.5446 29.7462 93.4363 29.6552C93.3281 29.5643 93.1202 29.482 93.0292 29.5902C92.739 29.7158 92.5657 30.032 92.5916 30.3309C92.5916 30.3309 92.7995 30.4132 93.0074 30.4955ZM91.6564 26.4974C91.6477 26.3978 91.6391 26.2982 91.5395 26.3068C91.4398 26.3155 91.2406 26.3328 91.141 26.3414L91.0587 26.5493C91.1669 26.6403 91.2666 26.6317 91.4658 26.6144C91.4745 26.714 91.5654 26.6057 91.6564 26.4974Z" fill="black"/>
<path d="M167.159 27.8686C166.851 27.795 166.643 27.7126 166.436 27.6303C166.011 27.3661 165.678 26.9935 165.353 26.7206C164.694 26.0752 163.846 25.5466 163.005 25.1178C162.373 24.7712 161.766 24.7235 161.195 25.0743C160.142 25.6676 159.089 26.2609 158.587 27.4087C158.331 27.9328 157.959 28.2663 157.378 28.5174C156.798 28.7686 156.226 29.1194 155.646 29.3706C155.065 29.6217 154.467 29.6737 153.761 29.6346C153.454 29.561 153.194 28.8809 153.376 28.6643C153.649 28.3395 153.931 28.1143 154.212 27.8891C154.866 27.3304 155.637 26.9623 156.391 26.3949C156.954 25.9445 157.301 25.3121 157.539 24.5888C157.769 23.7658 157.517 23.1854 156.785 22.8475C155.638 22.3449 154.598 21.9333 153.377 21.7383C152.87 21.6819 152.454 21.5173 152.038 21.3527C151.731 21.279 151.506 20.9974 151.28 20.7159C150.947 20.3433 151.086 19.6286 151.475 19.4944C152.246 19.1263 152.926 18.8665 153.706 18.598C154.975 18.1866 156.244 17.7753 157.613 17.3552C157.804 17.2383 158.103 17.2123 158.293 17.0954C158.575 16.8702 158.856 16.645 158.939 16.4371C159.086 15.822 159.233 15.207 159.281 14.6006C159.411 13.7863 159.533 12.8723 159.654 11.9584C159.728 11.6509 160.109 11.417 160.308 11.3997C160.607 11.3737 160.914 11.4474 161.14 11.729C161.257 11.9196 161.373 12.1102 161.49 12.3008C161.75 12.9808 162.01 13.6609 162.361 14.2327C162.989 15.6838 163.205 15.8657 164.89 15.619C166.285 15.4978 167.771 15.2684 169.166 15.1473C169.664 15.104 170.162 15.0607 170.56 15.0261C170.859 15.0001 171.175 15.1734 171.483 15.2471C171.899 15.4117 172.15 15.9922 171.985 16.408C171.738 17.0317 171.383 17.5644 170.911 17.9066C169.984 18.7901 168.949 19.5827 167.896 20.176C167.225 20.5354 166.653 20.8862 166.198 21.4276C166.016 21.6442 165.951 22.0513 166.077 22.3416C166.678 23.4938 167.389 24.737 167.991 25.8892C168.108 26.0798 168.324 26.2618 168.35 26.5606C168.367 26.7599 168.393 27.0588 168.203 27.1757C167.822 27.4096 167.44 27.6434 167.159 27.8686ZM160 20.5608C159.969 21.3664 160.212 21.8472 160.727 22.0032C161.559 22.3325 162.239 22.0726 162.776 21.3234C162.867 21.2151 162.949 21.0072 162.941 20.9075C162.755 19.9199 162.477 19.0406 161.81 18.2956C161.594 18.1136 161.395 18.1309 161.096 18.1569C160.706 18.2911 160.325 18.525 160.26 18.9321C160.121 19.6468 160.073 20.2532 160 20.5608ZM166.904 16.8493C166.415 16.9922 165.726 17.1524 165.046 17.4122C164.557 17.5551 164.401 18.0706 164.444 18.5687C164.513 19.3657 165.146 19.7123 165.817 19.3528C166.571 18.7855 167.324 18.2181 168.078 17.6508C168.169 17.5425 168.251 17.3346 168.143 17.2436C168.134 17.144 167.918 16.962 167.818 16.9707C167.511 16.897 167.312 16.9143 166.904 16.8493ZM157.795 19.4474C157.197 19.4993 156.608 19.6508 156.045 20.1012C155.954 20.2095 155.971 20.4088 155.98 20.5084C156.521 20.9633 157.037 21.1192 157.726 20.959C157.825 20.9504 158.007 20.7338 158.098 20.6255C158.271 20.3094 158.245 20.0105 158.12 19.7203C158.111 19.6206 157.903 19.5383 157.795 19.4474Z" fill="black"/>
<path d="M118.767 30.0648C118.468 30.0907 118.36 29.9998 118.36 29.9998C118.152 29.9175 117.953 29.9348 117.728 29.6532C117.602 29.363 117.667 28.9558 117.749 28.7479C117.84 28.6396 117.923 28.4317 118.022 28.4231C119.465 27.6955 119.95 26.3485 120.119 24.8281C120.11 24.7285 120.201 24.6202 120.102 24.6289C119.985 24.4383 119.959 24.1394 119.751 24.0571C118.911 23.6282 117.971 23.208 117.057 23.0866C116.55 23.0302 115.935 22.8829 115.428 22.8266C115.121 22.7529 114.778 22.2807 114.753 21.9819C114.718 21.5834 114.982 21.1589 115.372 21.0247C116.451 20.7302 117.52 20.3362 118.599 20.0417C119.188 19.8902 119.877 19.73 120.466 19.5784C121.354 19.4009 121.809 18.8595 122.03 17.9369C122.298 16.408 122.576 14.9786 122.845 13.4496C122.918 13.1421 122.892 12.8432 122.966 12.5357C123.048 12.3278 123.23 12.1112 123.312 11.9033C123.585 11.5785 124.391 11.6089 124.525 11.9987C124.794 12.7784 125.17 13.6491 125.339 14.4374C125.625 15.4164 125.911 16.3953 126.205 17.4739C126.348 17.9633 126.773 18.2276 127.37 18.1757C128.068 18.1151 128.765 18.0545 129.571 18.0849C130.675 18.0893 131.771 17.9942 132.884 18.0982C133.283 18.0636 133.699 18.2282 134.006 18.3019C134.413 18.3669 134.665 18.9474 134.491 19.2635C134.062 20.1038 133.525 20.8531 132.564 21.3381C131.602 21.8232 130.541 22.3169 129.579 22.8019C129.488 22.9102 129.289 22.9275 129.198 23.0358C128.817 23.2696 128.652 23.6854 128.786 24.0753C129.046 24.7553 129.306 25.4354 129.657 26.0072C129.774 26.1978 129.899 26.488 129.917 26.6873C129.934 26.8865 129.86 27.194 129.769 27.3023C129.687 27.5102 129.397 27.6358 129.206 27.7527C128.825 27.9866 128.426 28.0212 128.102 27.7483C127.56 27.2935 127.019 26.8386 126.477 26.3837C126.053 26.1195 125.646 26.0545 125.156 26.1974C123.987 26.6001 123.051 27.384 121.999 27.9773C121.808 28.0942 121.626 28.3108 121.544 28.5187C120.941 29.6752 119.755 29.8786 118.767 30.0648ZM124.715 23.4252C125.412 23.3646 125.767 22.8319 125.724 22.3337C125.681 21.8356 125.547 21.4458 125.304 20.9649C125.187 20.7744 124.771 20.6097 124.472 20.6357C123.983 20.7786 123.593 20.9128 123.229 21.3459C122.683 21.9956 122.753 22.7926 123.584 23.1219C124 23.2865 124.507 23.3429 124.715 23.4252ZM129.038 20.0384C128.839 20.0557 128.449 20.1899 128.15 20.2159C127.76 20.3501 127.496 20.7746 127.621 21.0648C127.747 21.355 128.154 21.42 128.436 21.1948C128.726 21.0692 129.008 20.844 129.198 20.7271C129.389 20.6101 129.553 20.1943 129.445 20.1034C129.454 20.203 129.246 20.1207 129.038 20.0384ZM122.636 24.9107L122.527 24.8197C122.428 24.8284 122.428 24.8284 122.337 24.9366C122.354 25.1359 122.354 25.1359 122.553 25.1186C122.653 25.1099 122.644 25.0103 122.636 24.9107ZM124.131 17.8548C124.031 17.8635 124.04 17.9631 123.94 17.9718C123.949 18.0714 123.957 18.171 123.957 18.171C124.066 18.262 124.265 18.2447 124.247 18.0454C124.239 17.9458 124.139 17.9545 124.131 17.8548ZM120.492 22.186C120.591 22.1773 120.583 22.0777 120.682 22.069L120.574 21.9781C120.474 21.9867 120.483 22.0864 120.383 22.095C120.392 22.1946 120.492 22.186 120.492 22.186Z" fill="black"/>
<path d="M194.322 18.182C194.24 18.3899 194.257 18.5891 194.166 18.6974C193.802 19.1305 193.222 19.3817 192.706 19.2257C192.2 19.1694 191.775 18.9051 191.359 18.7405C190.844 18.5845 190.328 18.4285 189.713 18.2812C189.198 18.1252 188.799 18.1598 188.31 18.3027C186.751 18.8397 185.408 19.5586 184.533 21.0398C184.442 21.1481 184.359 21.356 184.268 21.4643C183.276 22.755 182.96 22.5817 181.63 22.2957C181.223 22.2307 181.054 21.4423 181.327 21.1175C181.418 21.0092 181.509 20.9009 181.7 20.784C182.753 20.1907 183.164 19.1512 183.368 18.0293C183.351 17.8301 183.441 17.7218 183.424 17.5226C183.619 16.3011 183.385 15.9199 182.346 15.5083C181.415 15.1877 180.483 14.8671 179.652 14.5378C179.236 14.3732 178.92 14.1999 178.504 14.0353C177.88 13.7883 177.802 12.8917 178.374 12.5409C178.664 12.4153 178.946 12.1901 179.236 12.0645C180.115 11.7874 181.094 11.5016 181.974 11.2245C182.563 11.0729 183.143 10.8217 183.832 10.6615C184.321 10.5187 184.586 10.0942 184.642 9.58741C184.828 8.26633 185.015 6.94524 184.894 5.5505C184.868 5.25162 184.941 4.94409 185.015 4.63656C185.097 4.42866 185.362 4.0042 185.66 3.97824C185.959 3.95228 186.267 4.02594 186.492 4.30751C186.717 4.58908 186.843 4.8793 186.968 5.16952C187.246 6.04884 187.414 6.83718 187.692 7.7165C187.835 8.20597 188.086 8.78641 188.328 9.26723C188.454 9.55745 188.77 9.73074 189.168 9.69612C190.563 9.57497 192.066 9.54479 193.461 9.42364C194.358 9.34576 195.254 9.26788 196.051 9.19865C196.25 9.18134 196.558 9.255 196.757 9.2377C197.164 9.30271 197.524 9.97412 197.26 10.3986C196.74 11.3471 195.995 12.0141 195.15 12.6897C194.678 13.0319 194.197 13.2744 193.725 13.6165C193.443 13.8417 193.062 14.0756 192.78 14.3008C192.308 14.643 192.252 15.1497 192.585 15.5223C193.053 16.2847 193.521 17.0471 194.08 17.7012C194.188 17.7921 194.313 18.0824 194.322 18.182ZM188.904 14.7379C188.886 14.5387 188.878 14.4391 188.761 14.2485C188.41 13.6767 187.951 13.0139 187.6 12.4421C187.366 12.0609 186.851 11.905 186.561 12.0305C186.171 12.1648 185.889 12.39 185.725 12.8058C185.651 13.1133 185.577 13.4209 185.603 13.7197C185.547 14.2265 185.781 14.6077 186.205 14.872C186.621 15.0366 187.037 15.2012 187.552 15.3572C187.76 15.4395 188.05 15.3139 188.25 15.2966C188.557 15.3703 188.921 14.9372 188.904 14.7379ZM191.715 11.2817C191.516 11.299 190.927 11.4505 190.346 11.7017C190.247 11.7104 190.164 11.9183 190.074 12.0265C190.134 12.7239 190.875 13.1615 191.347 12.8193C191.728 12.5855 192.101 12.252 192.374 11.9271C192.465 11.8189 192.447 11.6196 192.538 11.5113C192.729 11.3944 192.413 11.2211 191.715 11.2817ZM183.949 13.1608C183.931 12.9616 183.706 12.68 183.507 12.6973C183.108 12.7319 182.818 12.8575 182.446 13.191C182.255 13.3079 182.389 13.6978 182.597 13.7801C182.805 13.8624 183.013 13.9447 183.312 13.9188C183.619 13.9924 183.892 13.6676 183.949 13.1608ZM186.205 17.1806C186.279 16.8731 186.17 16.7821 185.971 16.7995C185.564 16.7344 185.373 16.8514 185.3 17.1589C185.308 17.2585 185.326 17.4578 185.434 17.5487C185.542 17.6397 185.742 17.6224 185.841 17.6138C186.032 17.4968 186.114 17.2889 186.205 17.1806Z" fill="black"/>
<path d="M229.214 17.1585C229.132 17.3664 229.149 17.5657 229.058 17.674C228.694 18.1071 228.114 18.3583 227.598 18.2023C227.092 18.1459 226.667 17.8817 226.251 17.717C225.736 17.561 225.221 17.4051 224.606 17.2577C224.09 17.1017 223.692 17.1364 223.202 17.2793C221.643 17.8162 220.3 18.5351 219.425 20.0164C219.334 20.1247 219.252 20.3326 219.161 20.4409C218.169 21.7315 217.852 21.5583 216.523 21.2723C216.115 21.2072 215.947 20.4189 216.219 20.0941C216.31 19.9858 216.401 19.8775 216.592 19.7606C217.645 19.1673 218.056 18.1277 218.26 17.0059C218.243 16.8067 218.334 16.6984 218.316 16.4991C218.511 15.2777 218.277 14.8965 217.238 14.4849C216.307 14.1643 215.375 13.8437 214.544 13.5144C214.128 13.3498 213.812 13.1765 213.396 13.0118C212.772 12.7649 212.694 11.8683 213.266 11.5175C213.556 11.3919 213.838 11.1667 214.128 11.0411C215.008 10.7639 215.986 10.4782 216.866 10.201C217.455 10.0495 218.035 9.79831 218.724 9.63811C219.214 9.49521 219.478 9.07075 219.534 8.56397C219.721 7.24289 219.907 5.92181 219.786 4.52706C219.76 4.22818 219.833 3.92066 219.907 3.61313C219.989 3.40522 220.254 2.98076 220.553 2.9548C220.851 2.92884 221.159 3.00251 221.384 3.28407C221.609 3.56564 221.735 3.85586 221.861 4.14608C222.138 5.0254 222.307 5.81374 222.584 6.69306C222.727 7.18253 222.978 7.76297 223.22 8.24379C223.346 8.53401 223.662 8.7073 224.061 8.67269C225.455 8.55153 226.958 8.52135 228.353 8.4002C229.25 8.32232 230.146 8.24444 230.943 8.17521C231.143 8.1579 231.45 8.23157 231.649 8.21426C232.056 8.27927 232.416 8.95068 232.152 9.37514C231.632 10.3237 230.887 10.9907 230.042 11.6663C229.57 12.0084 229.089 12.251 228.617 12.5931C228.335 12.8183 227.954 13.0522 227.673 13.2774C227.2 13.6195 227.144 14.1263 227.478 14.4988C227.945 15.2612 228.413 16.0236 228.972 16.6777C229.08 16.7687 229.206 17.0589 229.214 17.1585ZM223.796 13.7145C223.779 13.5153 223.77 13.4156 223.653 13.225C223.302 12.6532 222.843 11.9905 222.492 11.4187C222.258 11.0375 221.743 10.8815 221.453 11.0071C221.063 11.1413 220.781 11.3666 220.617 11.7824C220.543 12.0899 220.469 12.3974 220.495 12.6963C220.439 13.2031 220.673 13.5843 221.097 13.8485C221.513 14.0132 221.929 14.1778 222.444 14.3338C222.652 14.4161 222.942 14.2905 223.142 14.2732C223.449 14.3469 223.813 13.9138 223.796 13.7145ZM226.607 10.2582C226.408 10.2756 225.819 10.4271 225.239 10.6783C225.139 10.6869 225.057 10.8948 224.966 11.0031C225.026 11.7005 225.767 12.138 226.239 11.7959C226.62 11.562 226.993 11.2285 227.266 10.9037C227.357 10.7954 227.339 10.5962 227.43 10.4879C227.621 10.371 227.305 10.1977 226.607 10.2582ZM218.841 12.1374C218.823 11.9381 218.598 11.6566 218.399 11.6739C218.001 11.7085 217.71 11.8341 217.338 12.1676C217.147 12.2845 217.281 12.6743 217.489 12.7567C217.697 12.839 217.905 12.9213 218.204 12.8953C218.512 12.969 218.784 12.6442 218.841 12.1374ZM221.097 16.1572C221.171 15.8497 221.062 15.7587 220.863 15.776C220.456 15.711 220.265 15.8279 220.192 16.1355C220.2 16.2351 220.218 16.4343 220.326 16.5253C220.434 16.6163 220.634 16.599 220.733 16.5903C220.924 16.4734 221.006 16.2655 221.097 16.1572Z" fill="black"/>
<path d="M628.233 42.9549C628.532 42.9787 628.816 43.2019 628.891 43.5089C629.059 43.9235 629.027 44.3222 629.203 44.6371C629.49 46.0645 629.678 47.4839 629.966 48.9112C630.11 49.6248 630.493 49.856 631.091 49.9036C631.689 49.9512 632.387 50.0067 632.993 49.9546C634.496 49.974 635.975 50.2924 637.455 50.6108C637.654 50.6266 637.746 50.7343 637.838 50.8419C638.029 50.9574 638.289 51.4797 638.173 51.6711C637.703 52.5365 637.141 53.2943 636.112 53.6137C635.084 53.9331 634.155 54.2604 633.126 54.5798C632.72 54.6478 632.405 54.8233 631.99 54.991C631.368 55.2424 631.229 55.7329 631.381 56.3469C631.684 57.5748 631.988 58.8028 632.698 59.9628C632.782 60.1701 632.865 60.3774 633.049 60.5926C633.308 61.1149 633.169 61.6054 632.539 61.9565C632.009 62.3155 631.518 62.1762 631.251 61.7536C631.167 61.5463 630.984 61.3311 630.9 61.1238C630.122 59.5571 628.798 58.5489 627.473 57.5406C626.708 57.0784 626.01 57.0228 625.181 57.3581C624.236 57.8848 623.299 58.3118 622.362 58.7388C622.047 58.9144 621.717 59.2893 621.493 59.5725C621.27 59.8557 621.039 60.2386 620.816 60.5217C620.162 61.1719 619.648 61.3316 618.998 60.678C618.715 60.4548 618.439 60.1319 618.156 59.9088C617.973 59.6935 618.012 59.1951 618.228 59.0116C618.443 58.8281 618.558 58.6367 618.766 58.5528C619.595 58.2176 620.149 57.5595 620.619 56.694C620.85 56.3112 621.089 55.8286 621.32 55.4458C622.022 54.1975 621.946 53.8905 620.59 53.281C619.433 52.6873 618.261 52.293 617.104 51.6994C616.813 51.5759 616.522 51.4524 616.239 51.2292C615.948 51.1058 615.872 50.7988 615.904 50.4C615.927 50.101 616.258 49.726 616.458 49.7419C616.864 49.674 617.271 49.606 617.678 49.5381C619.28 49.5653 620.883 49.5926 622.494 49.5202C623.092 49.5678 623.599 49.5078 624.205 49.4557C624.404 49.4716 624.619 49.2881 624.735 49.0967C625.074 48.6221 625.313 48.1395 625.452 47.649C625.946 46.4845 626.44 45.3201 626.942 44.0559C627.065 43.7648 627.189 43.4737 627.412 43.1905C627.428 42.9911 627.942 42.8314 628.233 42.9549ZM628.788 53.6326C628.62 53.218 628.56 52.7116 628.392 52.297C628.309 52.0897 628.018 51.9662 627.826 51.8506C627.236 51.7034 626.538 51.6478 625.924 51.7996C625.31 51.9513 624.864 52.5177 624.717 53.1079C624.709 53.2076 624.693 53.4069 624.784 53.5145C625.243 54.0526 625.818 54.3993 626.499 54.6542C626.599 54.6622 626.799 54.678 627.006 54.5942C627.42 54.4266 627.935 54.2669 628.258 53.9916C628.449 54.1072 628.573 53.8161 628.788 53.6326ZM632.443 51.8169C631.646 51.7534 631.538 51.8452 630.817 52.0887C630.609 52.1725 630.486 52.4636 630.57 52.6709C630.653 52.8782 630.953 52.902 631.144 53.0176C631.244 53.0255 631.343 53.0335 631.343 53.0335C631.858 52.8738 632.372 52.7141 632.894 52.4547C632.994 52.4626 633.018 52.1636 633.026 52.0639C633.026 52.0639 632.934 51.9563 632.834 51.9483C632.834 51.9483 632.635 51.9325 632.443 51.8169ZM627.741 49.1354C627.665 48.8284 627.582 48.6211 627.498 48.4138C627.498 48.4138 627.306 48.2982 627.298 48.3979C626.884 48.5655 626.637 49.1478 626.912 49.4706C627.004 49.5782 627.203 49.5941 627.303 49.602C627.411 49.5103 627.526 49.3189 627.741 49.1354ZM623.458 56.3181C623.665 56.2343 623.872 56.1505 623.988 55.959C624.096 55.8673 624.111 55.6679 624.02 55.5603C623.928 55.4527 623.737 55.3371 623.629 55.4289C623.322 55.5048 623.099 55.7879 623.075 56.087C623.075 56.087 623.266 56.2026 623.458 56.3181ZM622.786 52.1517C622.794 52.052 622.802 51.9523 622.703 51.9444C622.603 51.9365 622.403 51.9206 622.304 51.9126L622.188 52.1041C622.28 52.2117 622.38 52.2196 622.579 52.2355C622.571 52.3352 622.679 52.2434 622.786 52.1517Z" fill="black"/>
<path d="M48.4788 572.674C53.4501 572.44 58.4215 573.142 63.3928 572.908C65.0499 572.674 66.7071 573.142 68.3642 573.142C75.2294 573.376 82.3313 573.611 89.1965 574.079C95.5882 574.547 101.98 575.249 108.372 576.653C109.082 576.887 109.792 576.887 110.502 576.887C116.421 576.887 122.102 577.823 128.02 578.291C134.885 578.759 141.514 578.993 148.379 578.993C153.114 578.993 157.848 578.759 162.583 578.993C165.187 579.227 167.791 578.993 170.632 578.993C179.391 578.759 188.15 578.993 196.672 579.227C199.04 579.227 201.644 579.695 204.011 579.695C211.113 579.929 217.978 580.163 225.08 580.163C226.264 580.163 227.447 580.397 228.394 580.397C231.472 580.631 234.312 580.865 237.39 580.397C239.994 580.163 242.598 580.397 245.439 580.397C251.594 580.865 257.512 581.099 263.667 580.631C264.14 580.631 264.851 580.631 265.324 580.631C269.349 581.099 273.373 580.865 277.161 580.865C281.895 580.865 286.63 581.333 291.364 581.099C295.862 580.865 300.36 581.099 305.095 581.099C313.144 581.333 320.956 581.099 329.005 581.099C335.87 581.099 342.735 581.333 349.363 581.333C355.518 581.333 361.437 581.333 367.592 581.333C371.379 581.333 375.167 581.333 378.955 581.099C383.926 580.631 388.897 580.631 393.632 580.631C403.575 580.397 413.517 580.397 423.697 580.163C432.219 580.163 440.742 580.397 449.264 580.397C455.656 580.397 462.047 580.397 468.439 580.865C479.802 580.397 491.165 581.567 502.528 581.333C504.896 581.333 507.5 581.567 509.867 581.802C510.34 581.802 511.051 582.036 511.524 582.036C519.573 581.567 527.858 582.27 535.907 582.504C543.009 582.738 550.348 582.972 557.45 583.206C559.107 583.206 560.764 583.44 562.658 583.44C564.078 583.44 565.735 583.674 567.156 583.674C573.547 583.908 579.939 584.142 586.331 584.376C587.278 584.376 588.225 584.376 589.172 584.61C590.592 585.078 592.012 585.078 593.67 584.844C594.853 584.61 596.274 584.844 597.694 584.844C601.955 585.312 606.453 585.78 610.714 585.546C612.608 585.546 614.502 585.78 616.396 585.78C627.522 586.716 638.648 587.184 649.775 587.652C657.824 588.12 666.109 588.822 674.158 588.822C681.497 589.993 688.835 589.524 696.174 590.227C700.198 589.993 703.986 590.929 708.01 590.461C708.484 590.461 708.721 590.461 709.194 590.461C715.112 591.397 721.267 590.929 727.186 591.631C731.21 592.099 735.234 591.865 739.022 591.865C747.071 591.865 754.883 592.801 762.932 593.035C765.536 593.269 768.14 593.269 770.981 593.503C771.454 593.503 772.164 593.503 772.638 593.503C779.266 594.673 786.132 594.205 792.997 595.609C793.944 595.843 794.891 595.609 795.838 595.609C797.731 595.375 799.625 595.609 801.519 595.843C806.017 596.545 810.515 597.013 815.013 597.481C821.168 598.184 827.323 598.886 833.478 600.056C835.845 600.524 838.449 600.992 840.58 602.162C841.527 602.63 842 603.332 842 604.502C842 605.906 841.526 607.311 840.106 607.779C837.029 608.715 833.951 609.417 830.637 608.715C824.008 607.779 817.617 607.311 810.988 607.077C810.041 607.077 809.094 607.077 808.148 607.077C800.099 605.672 791.813 605.906 783.764 604.97C782.107 604.736 780.45 604.736 778.556 604.736C774.532 604.502 770.744 604.268 766.72 604.034C761.748 603.8 756.777 603.566 752.042 603.332C745.651 602.864 739.259 603.098 732.867 602.63C728.606 602.396 724.108 601.928 719.847 601.694C717.716 601.46 715.586 601.226 713.692 601.46C708.247 601.694 702.802 601.226 697.358 600.758C695.937 600.758 694.753 600.524 693.333 600.524C688.362 600.29 683.39 600.524 678.656 600.056C672.974 599.588 667.293 599.822 661.611 599.12C655.693 598.418 650.011 598.418 644.093 598.184C642.909 598.184 641.726 598.184 640.779 597.949C636.281 597.013 631.783 597.247 627.285 597.013C624.681 597.013 622.077 596.779 619.236 596.545C615.922 596.311 612.371 596.311 609.057 596.077C604.559 595.843 600.061 595.843 595.563 594.907C594.38 594.673 592.959 594.673 591.539 594.673C586.568 594.673 581.596 594.439 576.862 593.971C572.364 593.737 567.866 593.503 563.131 593.503C559.344 593.269 555.556 593.269 551.768 593.035C545.613 592.567 539.221 592.567 533.066 592.567C532.12 592.567 531.173 592.801 530.226 592.567C524.781 591.631 519.336 592.099 513.891 591.865C508.683 591.631 503.238 591.865 498.03 591.631C494.479 591.397 490.928 591.397 487.141 591.631C486.667 591.631 486.431 591.631 485.957 591.631C480.039 590.929 474.121 591.397 468.439 591.163C464.415 590.929 460.39 590.929 456.602 590.929C445.476 590.695 434.35 590.695 422.987 590.461C422.75 590.461 422.513 590.461 422.513 590.461C413.991 590.695 405.469 590.461 396.946 590.929C388.661 591.397 380.375 591.397 372.09 591.397C364.514 591.397 356.939 591.631 349.363 591.631C339.184 591.631 329.005 591.631 318.589 591.631C306.752 591.631 294.679 591.397 282.842 591.163C274.557 590.929 266.271 590.695 257.985 590.695C249.937 590.695 242.124 590.695 234.076 590.461C226.264 590.227 218.451 589.993 210.876 589.758C208.982 589.758 207.088 589.524 205.195 589.524C198.093 589.29 190.754 589.056 183.652 588.822C180.575 588.822 177.497 588.588 174.656 588.822C171.105 588.822 167.554 589.056 163.767 588.822C160.689 588.588 157.375 588.822 154.061 589.056C148.853 589.524 143.408 589.29 138.2 589.056C136.779 589.056 135.122 588.588 133.702 588.588C126.837 588.588 120.208 587.418 113.343 586.482C104.347 585.546 95.3515 583.908 86.3557 583.44C76.8865 583.206 67.8907 582.972 59.1317 582.972C54.6338 582.972 50.1359 582.738 45.4013 582.504C41.3769 582.27 37.3525 582.036 33.5648 581.802C30.9607 581.567 28.3567 581.567 25.7527 581.099C22.9119 580.865 19.8344 580.865 16.9936 580.865C14.3896 580.865 11.7855 580.865 8.94478 580.631C6.34074 580.631 3.7367 579.461 1.13266 578.057C0.185741 577.589 -0.28772 576.185 0.185741 575.249C0.422472 574.781 0.422472 574.547 0.659203 574.313C1.13266 572.44 2.31632 571.504 4.44689 571.27C8.94478 570.802 13.4427 571.036 17.9405 571.27C23.8588 571.504 29.7771 571.738 35.4586 571.972C39.9565 572.206 44.2176 572.44 48.4788 572.674Z" fill="black"/>
<path d="M654.13 629.411C657.849 628.665 661.543 628.771 664.978 629.865C666.351 630.331 667.972 630.236 669.101 631.121C669.328 631.27 669.085 631.689 669.085 631.689C668.619 631.818 668.153 631.947 667.688 632.075C658.439 632.236 649.418 632.545 640.397 632.855C628.135 633.355 615.658 633.28 603.401 633.639C596.462 633.866 589.3 633.802 582.365 633.887C575.199 633.965 568.029 634.186 560.859 634.406C555.775 634.402 550.918 634.547 545.83 634.685C539.126 634.776 532.191 634.861 525.256 634.946C518.09 635.024 510.92 635.245 503.754 635.323C497.974 635.441 492.189 635.701 486.178 635.813C478.546 636.02 471.145 636.233 463.513 636.44C457.732 636.558 452.183 636.683 446.402 636.801C441.545 636.946 436.919 637.097 432.062 637.242C426.278 637.502 420.728 637.627 414.943 637.887C408.235 638.121 401.292 638.49 394.58 638.865C383.468 639.541 372.352 640.358 361.01 641.027C351.288 641.601 341.562 642.316 331.84 642.89C322.583 643.334 313.558 643.786 304.306 644.088C300.603 644.266 296.913 644.018 293.219 643.912C290.679 643.839 288.617 643.211 287.038 641.886C286.361 641.298 285.916 640.716 286.167 640.013C286.419 639.309 287.132 638.619 288.29 638.51C292.228 638.197 295.942 637.593 299.872 637.564C301.257 637.603 302.416 637.495 303.805 637.392C311.911 636.772 320.248 636.159 328.354 635.539C336.69 634.926 345.254 634.462 353.586 633.99C354.976 633.888 356.134 633.779 357.516 633.961C360.513 634.189 363.296 633.843 366.314 633.361C367.473 633.252 368.401 633.137 369.559 633.028C375.571 632.917 381.363 632.372 387.156 631.828C391.325 631.521 395.493 631.215 399.888 631.057C406.134 630.81 412.381 630.563 418.619 630.6C421.621 630.687 424.404 630.34 427.414 630.142C429.727 630.067 432.275 629.856 434.588 629.78C442.219 629.573 449.62 629.359 457.248 629.294C464.876 629.229 472.734 629.171 480.824 629.119C484.757 628.948 488.922 628.783 492.855 628.612C495.168 628.537 497.25 628.454 499.563 628.379C500.256 628.399 500.949 628.418 501.876 628.303C506.972 627.881 512.279 628.176 517.367 628.038C520.137 628.117 523.143 628.061 525.918 627.999C534.935 627.832 543.956 627.523 552.969 627.498C556.668 627.462 560.362 627.568 564.056 627.674C565.673 627.721 567.289 627.767 568.913 627.529C572.624 627.068 576.557 626.896 580.487 626.867C590.662 626.591 600.603 626.45 610.544 626.31C612.16 626.356 613.776 626.403 615.624 626.456C617.933 626.522 620.007 626.724 622.311 626.932C629.692 627.429 637.085 627.499 644.473 627.712C648.86 627.838 649.091 627.845 654.13 629.411Z" fill="#F0F0F0"/>
<defs>
<clipPath id="clip0_132_27">
<rect width="340" height="412" fill="white" transform="translate(37 177)"/>
</clipPath>
<clipPath id="clip1_132_27">
<rect width="354" height="384" fill="white" transform="translate(434 205)"/>
</clipPath>
</defs>
</svg>
