<svg xmlns="http://www.w3.org/2000/svg" width="842" height="655" fill="none"><rect width="289" height="76" x="16" y="56.858" fill="#5BB98C" rx="38" transform="rotate(-4.964 16 56.858)"/><path fill="#fff" d="m81.908 98.31-1.51-17.389 6.656-.578c1.257-.109 2.318-.002 3.185.322.872.318 1.543.799 2.016 1.442.478.643.754 1.395.829 2.255.061.708-.022 1.325-.25 1.852a3.44 3.44 0 0 1-.99 1.31c-.431.35-.924.619-1.478.804l.014.17c.62-.02 1.228.118 1.824.415.602.29 1.11.73 1.527 1.321.416.592.663 1.329.74 2.212.077.9-.07 1.728-.444 2.485-.374.75-.981 1.371-1.823 1.86-.841.49-1.927.793-3.257.908l-7.04.611Zm2.921-2.905 3.388-.295c1.144-.099 1.948-.388 2.414-.868.471-.486.677-1.074.617-1.764a2.61 2.61 0 0 0-1.676-2.25c-.49-.203-1.062-.276-1.713-.22l-3.472.302.442 5.095Zm-.64-7.362 3.117-.27a3.525 3.525 0 0 0 1.443-.425c.418-.242.736-.558.953-.947.222-.396.311-.848.267-1.358-.058-.673-.344-1.208-.858-1.602-.508-.395-1.226-.552-2.154-.472l-3.184.277.417 4.797Zm16.619 8.89c-.827.073-1.584-.01-2.272-.247a3.659 3.659 0 0 1-1.677-1.189c-.43-.55-.682-1.252-.756-2.107-.064-.736.019-1.356.249-1.86.23-.505.567-.922 1.012-1.252a5.63 5.63 0 0 1 1.53-.792 12.968 12.968 0 0 1 1.814-.49c.758-.146 1.371-.271 1.842-.375.469-.109.806-.24 1.009-.395.208-.161.3-.388.274-.683l-.004-.05c-.056-.64-.288-1.12-.698-1.437-.41-.318-.971-.446-1.685-.384-.752.065-1.335.281-1.748.648-.408.366-.668.78-.782 1.24L96.01 87.4c.158-.812.474-1.507.948-2.084a4.894 4.894 0 0 1 1.806-1.371c.73-.337 1.55-.546 2.461-.625a8.165 8.165 0 0 1 1.896.058 5.305 5.305 0 0 1 1.77.582c.544.29.997.709 1.358 1.26.367.55.589 1.257.664 2.123l.758 8.729-2.955.256-.155-1.791-.102.009a3.764 3.764 0 0 1-.702 1.087c-.306.34-.706.629-1.199.866-.488.23-1.071.375-1.75.434Zm.602-2.327c.617-.053 1.141-.222 1.573-.504.431-.289.751-.647.959-1.076.213-.43.299-.884.257-1.366l-.133-1.536c-.089.087-.247.175-.473.263-.221.088-.47.17-.749.245-.279.075-.555.145-.829.209l-.713.164c-.453.102-.854.24-1.204.413s-.619.396-.806.669c-.188.267-.265.599-.23.995.049.566.293.975.73 1.228.439.253.978.352 1.618.296Zm10.46-16.418 1.511 17.389-3.074.267-1.51-17.39 3.073-.266Zm9.077 16.962c-1.025.09-1.964-.094-2.82-.55-.855-.456-1.561-1.165-2.118-2.126-.557-.961-.897-2.158-1.022-3.59-.125-1.449.006-2.692.395-3.73.394-1.044.977-1.856 1.748-2.436a5.013 5.013 0 0 1 2.658-1.01c.764-.066 1.404.01 1.919.228.514.212.932.486 1.252.823.32.332.572.65.758.953l.128-.012-.565-6.504 3.082-.267 1.51 17.389-3.022.262-.179-2.054-.187.016c-.13.33-.33.687-.6 1.07-.269.377-.639.711-1.11 1.003-.471.292-1.08.47-1.827.535Zm.638-2.596c.651-.056 1.191-.28 1.619-.67.427-.397.733-.923.915-1.577.183-.655.238-1.404.164-2.248-.073-.843-.255-1.566-.547-2.168-.286-.602-.674-1.056-1.162-1.362-.483-.305-1.056-.43-1.718-.372-.685.06-1.241.287-1.669.684-.427.396-.73.919-.907 1.567-.178.648-.231 1.377-.161 2.187.071.815.25 1.532.538 2.152.293.613.684 1.084 1.175 1.412.495.322 1.08.454 1.753.395Zm16.944-4.688-.656-7.557 3.074-.267 1.133 13.042-2.981.259-.201-2.318-.136.011a3.938 3.938 0 0 1-1.296 1.918c-.628.522-1.431.826-2.41.911-.855.074-1.627-.05-2.317-.372-.684-.328-1.242-.842-1.674-1.54-.431-.704-.693-1.577-.783-2.618l-.721-8.304 3.073-.267.68 7.829c.072.826.356 1.463.851 1.91.495.448 1.11.64 1.846.576.453-.04.882-.188 1.287-.446.406-.257.725-.616.959-1.075.239-.466.33-1.03.272-1.692Zm6.257 4.983-1.133-13.042 2.98-.259.189 2.174.136-.012c.172-.774.53-1.39 1.072-1.847a3.376 3.376 0 0 1 1.941-.793c.17-.015.36-.023.571-.024a3.84 3.84 0 0 1 .54.013l.246 2.827a3.24 3.24 0 0 0-.63-.065 5.719 5.719 0 0 0-.812.011 3.12 3.12 0 0 0-1.48.496c-.421.276-.74.638-.958 1.084-.218.447-.303.948-.254 1.503l.666 7.667-3.074.267Zm10.519-18.434.15 1.732a4.62 4.62 0 0 1-.153 1.579 6.733 6.733 0 0 1-.64 1.595c-.287.51-.625.956-1.013 1.337l-1.507-.801c.27-.497.498-1.028.683-1.591.184-.57.246-1.2.186-1.89l-.152-1.749 2.446-.212Zm11.333 6.869-2.776.549a2.258 2.258 0 0 0-.485-.762 2.073 2.073 0 0 0-.834-.535c-.341-.125-.75-.166-1.225-.125-.64.056-1.166.241-1.577.556-.406.315-.587.693-.543 1.134.027.38.192.676.496.89.309.212.802.366 1.477.461l2.266.283c1.257.159 2.211.5 2.861 1.026.656.525 1.027 1.254 1.114 2.187a3.557 3.557 0 0 1-.533 2.237c-.416.663-1.027 1.206-1.834 1.63-.808.424-1.755.683-2.842.777-1.596.14-2.91-.083-3.941-.667-1.032-.589-1.694-1.475-1.985-2.659l2.972-.549c.187.577.514.996.982 1.258.468.262 1.055.362 1.763.3.73-.063 1.303-.264 1.718-.603.421-.338.613-.728.574-1.17a1.16 1.16 0 0 0-.513-.888c-.304-.219-.762-.367-1.373-.445l-2.265-.274c-1.274-.152-2.238-.51-2.891-1.075-.654-.57-1.02-1.331-1.097-2.283-.075-.803.082-1.518.473-2.145.395-.634.975-1.146 1.74-1.537.769-.398 1.675-.642 2.716-.733 1.529-.132 2.76.089 3.694.663.939.575 1.562 1.407 1.868 2.499Zm19.427-3.946a4.496 4.496 0 0 0-.693-1.18 3.792 3.792 0 0 0-.965-.866 3.566 3.566 0 0 0-1.222-.484 4.906 4.906 0 0 0-1.461-.079c-.934.081-1.746.389-2.435.922-.69.533-1.204 1.273-1.544 2.221-.335.942-.445 2.064-.332 3.365.114 1.314.417 2.408.909 3.284.493.875 1.128 1.518 1.905 1.93.776.406 1.651.567 2.625.482.883-.077 1.633-.313 2.248-.709a3.603 3.603 0 0 0 1.378-1.574c.296-.658.408-1.41.335-2.253l.722.048-4.721.41-.213-2.462 7.055-.613.182 2.09c.129 1.488-.076 2.803-.616 3.945a6.517 6.517 0 0 1-2.396 2.74c-1.059.68-2.308 1.082-3.745 1.207-1.602.139-3.04-.098-4.314-.712-1.268-.62-2.3-1.565-3.095-2.837-.79-1.277-1.264-2.832-1.423-4.666-.122-1.404-.033-2.675.267-3.813.306-1.14.785-2.125 1.437-2.957a7.188 7.188 0 0 1 2.377-1.986c.933-.492 1.968-.787 3.106-.886a8.334 8.334 0 0 1 2.728.191 7.158 7.158 0 0 1 2.319.996 6.64 6.64 0 0 1 1.764 1.695 6.488 6.488 0 0 1 1.028 2.272l-3.21.279Zm10.614 11.268c-.827.072-1.584-.01-2.272-.247a3.657 3.657 0 0 1-1.677-1.189c-.43-.55-.682-1.252-.756-2.107-.064-.736.019-1.356.249-1.861.23-.505.567-.922 1.012-1.251.444-.33.955-.594 1.531-.792a12.946 12.946 0 0 1 1.813-.491c.758-.146 1.371-.27 1.841-.374.47-.11.806-.241 1.01-.396.208-.16.3-.388.274-.682l-.004-.051c-.056-.64-.289-1.119-.698-1.437-.41-.318-.971-.446-1.685-.384-.753.066-1.335.282-1.748.648-.408.366-.668.78-.782 1.24l-2.906-.158c.158-.812.474-1.507.948-2.084a4.901 4.901 0 0 1 1.806-1.372c.729-.337 1.55-.545 2.461-.624a8.17 8.17 0 0 1 1.896.057 5.305 5.305 0 0 1 1.77.582c.544.29.997.71 1.358 1.26.367.55.588 1.257.664 2.123l.758 8.729-2.955.257-.156-1.792-.101.009a3.765 3.765 0 0 1-.702 1.088c-.307.34-.706.628-1.199.865-.488.23-1.071.375-1.75.434Zm.602-2.328c.617-.053 1.141-.221 1.573-.504.431-.288.751-.647.959-1.076.213-.429.299-.884.257-1.365l-.133-1.537c-.09.088-.247.175-.473.264a7.1 7.1 0 0 1-.749.244c-.279.076-.555.145-.829.21l-.713.164c-.453.102-.854.24-1.204.412a2.05 2.05 0 0 0-.806.67c-.188.266-.265.598-.23.994.049.566.292.976.731 1.229.438.252.977.351 1.617.295Zm14.277-12.37.206 2.378-7.497.651-.207-2.377 7.498-.651Zm-5.918-2.634 3.074-.267 1.063 12.244c.036.413.126.725.27.935.148.204.331.336.547.397.217.061.452.08.707.058.192-.016.367-.046.523-.088.161-.042.284-.078.367-.109l.726 2.358c-.159.071-.388.154-.688.248a5.803 5.803 0 0 1-1.094.215c-.768.09-1.471.034-2.11-.167a3.25 3.25 0 0 1-1.574-1.078c-.404-.513-.638-1.177-.703-1.992l-1.108-12.754Zm14.823 15.258c-1.308.114-2.461-.06-3.459-.52a5.538 5.538 0 0 1-2.384-2.138c-.597-.963-.955-2.127-1.073-3.491-.117-1.342.036-2.541.457-3.599.427-1.063 1.077-1.918 1.95-2.564.873-.652 1.932-1.032 3.178-1.14a6.609 6.609 0 0 1 2.309.192 5.163 5.163 0 0 1 2.005 1.024c.602.49 1.097 1.137 1.486 1.941.389.8.633 1.77.732 2.914l.082.942-10.69.929-.18-2.072 7.744-.673c-.057-.588-.23-1.1-.518-1.537a2.796 2.796 0 0 0-1.14-1.005c-.465-.228-.991-.316-1.58-.265-.628.055-1.167.256-1.616.603-.449.34-.786.77-1.009 1.285a3.435 3.435 0 0 0-.26 1.64l.158 1.808c.065.758.261 1.397.585 1.917a2.98 2.98 0 0 0 1.271 1.138c.523.24 1.118.33 1.786.273a3.73 3.73 0 0 0 1.198-.292 2.7 2.7 0 0 0 .893-.651c.245-.272.419-.598.523-.978l2.897.073a4.49 4.49 0 0 1-.863 2.077c-.455.604-1.062 1.096-1.822 1.476-.76.374-1.647.605-2.66.693Zm19.627-1.722c-1.223.106-2.328-.009-3.315-.345-.982-.337-1.78-.855-2.394-1.555-.614-.699-.98-1.537-1.099-2.513l3.192-.278c.069.468.261.865.574 1.191.313.32.713.557 1.199.709a4.153 4.153 0 0 0 1.605.151c.622-.054 1.165-.21 1.627-.466.462-.263.812-.601 1.05-1.015.238-.415.332-.876.282-1.385a2.35 2.35 0 0 0-.529-1.357c-.312-.378-.741-.657-1.287-.838-.541-.181-1.179-.24-1.915-.176l-1.537.134-.21-2.429 1.536-.133c.606-.053 1.126-.204 1.561-.452.44-.25.774-.575 1.001-.977.227-.408.316-.863.267-1.366-.037-.493-.185-.911-.443-1.254a2.236 2.236 0 0 0-1.017-.775c-.419-.17-.901-.23-1.444-.183a3.76 3.76 0 0 0-1.453.417 2.694 2.694 0 0 0-1.023.919 2.097 2.097 0 0 0-.333 1.295l-3.031.263c-.062-.975.144-1.854.618-2.637.479-.789 1.153-1.429 2.023-1.92.869-.498 1.867-.796 2.994-.894 1.16-.1 2.187.03 3.079.391.898.356 1.614.878 2.147 1.568.533.689.838 1.475.915 2.358.09.979-.127 1.825-.652 2.538-.52.712-1.241 1.211-2.163 1.496l.012.136c1.237.064 2.213.435 2.928 1.115.72.673 1.125 1.553 1.213 2.64a4.375 4.375 0 0 1-.605 2.688c-.482.812-1.189 1.478-2.119 1.998-.924.519-2.009.833-3.254.941Z"/><rect width="188" height="76" x="531.031" y="70.629" fill="#E5484D" rx="38" transform="rotate(4.551 531.031 70.63)"/><path fill="#fff" d="M585.352 109.406c-.021-.748-.309-1.353-.865-1.813-.55-.46-1.293-.727-2.227-.802-.657-.052-1.229.002-1.715.163s-.867.401-1.143.721c-.276.32-.435.698-.475 1.134-.029.362.028.683.171.963.149.279.36.524.634.734.275.204.583.383.924.535.341.153.687.286 1.037.399l1.599.538c.644.205 1.26.462 1.845.771a6.685 6.685 0 0 1 1.561 1.116c.456.435.803.944 1.041 1.528.239.583.328 1.251.268 2.004-.081 1.02-.413 1.897-.996 2.631-.582.729-1.384 1.272-2.404 1.63-1.014.353-2.218.473-3.611.362-1.354-.107-2.512-.41-3.476-.909-.958-.498-1.685-1.171-2.182-2.02-.491-.849-.713-1.852-.666-3.012l3.101.247c-.003.61.144 1.129.44 1.557.297.428.7.763 1.211 1.003a5.11 5.11 0 0 0 1.761.439c.685.055 1.294.001 1.825-.162.538-.168.969-.425 1.293-.769.324-.351.509-.775.554-1.273.031-.454-.073-.838-.31-1.153-.236-.321-.582-.599-1.036-.835a10.72 10.72 0 0 0-1.588-.674l-1.939-.667c-1.404-.482-2.492-1.13-3.265-1.944-.767-.819-1.101-1.852-1.002-3.098.082-1.025.431-1.901 1.047-2.627.622-.725 1.431-1.262 2.428-1.611.997-.353 2.105-.482 3.322-.385 1.235.098 2.3.4 3.194.904.901.499 1.587 1.15 2.059 1.951.473.796.679 1.684.618 2.665l-3.033-.241Zm12.041.522-.19 2.379-7.501-.597.189-2.379 7.502.597Zm-5.401-3.576 3.075.245-.975 12.251c-.033.413.004.736.111.966.114.226.272.387.475.483.203.096.432.154.687.174.193.015.37.015.53 0 .167-.016.293-.031.38-.047l.327 2.445a6.628 6.628 0 0 1-.72.131 5.75 5.75 0 0 1-1.114.031c-.772-.038-1.457-.21-2.054-.514a3.247 3.247 0 0 1-1.373-1.323c-.314-.572-.435-1.266-.365-2.081l1.016-12.761Zm10.214 17.357c-.827-.066-1.56-.273-2.199-.62a3.653 3.653 0 0 1-1.458-1.45c-.333-.613-.466-1.348-.398-2.203.059-.736.243-1.334.554-1.794.31-.46.711-.815 1.205-1.067a5.665 5.665 0 0 1 1.64-.528 12.99 12.99 0 0 1 1.87-.184 72.46 72.46 0 0 0 1.878-.065c.481-.03.835-.104 1.061-.223.232-.124.36-.333.383-.628l.004-.051c.051-.64-.099-1.15-.451-1.532-.351-.381-.884-.6-1.598-.657-.753-.06-1.363.057-1.831.35-.463.294-.788.658-.977 1.094l-2.839-.637c.29-.775.717-1.408 1.28-1.898a4.898 4.898 0 0 1 2.008-1.055c.775-.212 1.618-.281 2.53-.209.629.05 1.249.174 1.86.371a5.295 5.295 0 0 1 1.649.866c.489.375.866.864 1.132 1.467.271.603.372 1.338.303 2.204l-.695 8.734-2.957-.235.143-1.793-.102-.008a3.777 3.777 0 0 1-.871.956c-.359.285-.801.504-1.326.656-.519.147-1.118.193-1.798.139Zm.978-2.197c.618.05 1.163-.03 1.635-.237a2.712 2.712 0 0 0 1.124-.902c.281-.388.441-.823.48-1.304l.122-1.538c-.103.071-.273.132-.51.181a6.89 6.89 0 0 1-.779.118c-.287.028-.571.051-.852.069-.281.018-.524.032-.73.044a5.391 5.391 0 0 0-1.257.208 2.052 2.052 0 0 0-.905.527c-.229.232-.36.547-.391.943-.046.567.127 1.011.518 1.332.39.322.905.509 1.545.559Zm8.571 2.692 1.039-13.05 2.982.238-.173 2.175.135.01c.298-.734.752-1.282 1.363-1.644a3.372 3.372 0 0 1 2.045-.461c.17.013.359.037.568.071.214.028.391.062.53.102l-.225 2.829a3.246 3.246 0 0 0-.611-.169 5.87 5.87 0 0 0-.802-.123 3.119 3.119 0 0 0-1.542.245 2.68 2.68 0 0 0-1.124.911c-.288.404-.455.884-.499 1.439l-.611 7.672-3.075-.245Zm17.38-11.749-.189 2.379-7.714-.614.189-2.379 7.714.614Zm-6.824 12.589 1.137-14.281c.07-.878.309-1.595.718-2.149a3.457 3.457 0 0 1 1.582-1.191 4.821 4.821 0 0 1 2.091-.269 7.094 7.094 0 0 1 1.409.24c.406.118.706.219.899.302l-.801 2.331a5.413 5.413 0 0 0-.484-.159 2.959 2.959 0 0 0-.657-.12c-.572-.046-.988.061-1.248.319-.254.254-.401.635-.441 1.145l-1.121 14.078-3.084-.246Zm7.74.616 1.038-13.049 3.076.244-1.039 13.05-3.075-.245Zm2.732-14.778a1.802 1.802 0 0 1-1.219-.585 1.567 1.567 0 0 1-.433-1.223 1.55 1.55 0 0 1 .621-1.139c.378-.3.81-.431 1.297-.392.493.039.899.237 1.218.593.325.35.47.758.433 1.222-.037.459-.244.839-.621 1.139a1.779 1.779 0 0 1-1.296.385Zm8.808 15.953c-1.308-.104-2.417-.466-3.325-1.085a5.545 5.545 0 0 1-1.998-2.502c-.43-1.049-.59-2.255-.481-3.62.107-1.343.455-2.501 1.046-3.474.596-.978 1.379-1.714 2.347-2.207.969-.498 2.076-.698 3.322-.599a6.619 6.619 0 0 1 2.246.572 5.152 5.152 0 0 1 1.808 1.341c.513.582.894 1.302 1.145 2.16.251.852.332 1.85.24 2.995l-.075.943-10.696-.852.165-2.073 7.748.617c.042-.59-.044-1.124-.257-1.602a2.778 2.778 0 0 0-.958-1.179c-.42-.302-.925-.476-1.514-.523-.629-.05-1.193.059-1.693.327-.5.262-.902.629-1.208 1.101a3.435 3.435 0 0 0-.527 1.574l-.144 1.81c-.06.758.026 1.421.261 1.987.234.56.589 1.004 1.065 1.333.476.323 1.048.511 1.716.564a3.77 3.77 0 0 0 1.23-.09 2.71 2.71 0 0 0 .988-.494c.286-.229.512-.521.677-.879l2.846.552a4.48 4.48 0 0 1-1.195 1.905c-.548.521-1.229.906-2.041 1.155-.811.243-1.724.324-2.738.243Zm12.431-16.776-1.385 17.399-3.076-.245 1.385-17.399 3.076.245Zm6.147 18.229c-1.025-.081-1.922-.418-2.69-1.009s-1.347-1.407-1.737-2.446c-.39-1.04-.528-2.277-.414-3.71.115-1.45.45-2.654 1.005-3.613.562-.964 1.27-1.669 2.127-2.114a5.016 5.016 0 0 1 2.788-.556c.765.061 1.383.241 1.855.541.473.294.839.634 1.099 1.02.26.379.457.734.591 1.064l.127.01.518-6.508 3.084.246-1.385 17.399-3.024-.24.163-2.056-.187-.015a5.32 5.32 0 0 1-.768.956c-.328.327-.749.596-1.261.806-.513.21-1.143.285-1.891.225Zm1.059-2.454c.651.051 1.221-.08 1.707-.395.487-.32.875-.788 1.164-1.403.288-.616.466-1.345.533-2.189.067-.844.007-1.587-.182-2.229-.182-.642-.489-1.153-.921-1.535-.425-.382-.969-.599-1.632-.652-.685-.054-1.272.078-1.759.399-.487.32-.872.785-1.154 1.396-.282.61-.456 1.32-.52 2.13-.065.815-.007 1.552.174 2.211.188.653.496 1.182.926 1.587.435.399.99.626 1.664.68Z"/><path fill="#D9D9D9" d="M159.015 444.315c-.18.544-13.151 16.363-13.151 16.363s57.82 28.04 113.476 0l-14.59-18.338-39.446 3.417-46.289-1.442ZM187.295 550.248h-36.608v9.841h36.608v-9.841ZM219.312 550.248h36.609v9.841h-36.609v-9.841Z"/><path fill="#000" d="M150.789 341.861s-15.69 0-15.69 17.445c0 14.151 1.65 25.967 15.69 25.967s15.556-12.642 15.556-22.124-3.578-21.288-15.556-21.288ZM187.655 377.008s-.859 8.722 4.4 13.966c2.319 2.319 5.773 4.105 11.048 4.105 8.19 0 12.112-4.818 13.973-9.647a24.32 24.32 0 0 0 1.496-8.722 3.902 3.902 0 0 0-1.25-2.713 3.919 3.919 0 0 0-2.806-1.038 3.904 3.904 0 0 0-3.758 4.049 15.93 15.93 0 0 1-.982 5.597c-.889 2.309-2.75 4.618-6.683 4.618-2.571 0-4.37-.677-5.516-1.821-2.828-2.827-2.165-7.579-2.165-7.579a3.896 3.896 0 0 0-.828-2.868 3.917 3.917 0 0 0-2.616-1.447 3.93 3.93 0 0 0-2.888.852 3.914 3.914 0 0 0-1.425 2.648ZM241.259 359.306c0-17.445 15.695-17.445 15.695-17.445 11.948 0 15.556 11.806 15.556 21.288 0 9.482-1.516 22.124-15.556 22.124s-15.695-11.816-15.695-25.967Z"/><path fill="#000" fill-rule="evenodd" d="M212.129 506.82a13.338 13.338 0 0 0-9.417-3.896 13.356 13.356 0 0 0-9.421 3.899 13.3 13.3 0 0 0-3.899 9.406 13.285 13.285 0 0 0 3.903 9.399 13.345 13.345 0 0 0 9.417 3.895 13.352 13.352 0 0 0 9.421-3.899 13.3 13.3 0 0 0 3.899-9.406 13.28 13.28 0 0 0-3.903-9.398Zm-4.328 4.329a7.203 7.203 0 0 0-10.178 0 7.174 7.174 0 0 0 0 10.159 7.205 7.205 0 0 0 10.178 0 7.175 7.175 0 0 0 0-10.159Z" clip-rule="evenodd"/><path fill="#000" fill-rule="evenodd" d="M362.528 362.143c13.474-7.065 14.76-16.932 14.426-19.892-.335-2.961-2.201-10.662-13.434-7.255-11.233 3.407-20.152-2.638-23.237-5.937-3.084-3.299.55-4.725.55-4.725 27.309-15.608 24.677-44.737 18.724-54.301-5.954-9.563-14.431-1.647-15.089-.656-.658.99-6.39 9.015-21.808 7.583-6.935-.644-9.57-6.418-13.326-14.65-4.595-10.07-10.869-23.817-28.742-36.351-31.918-22.383-60.798-19.153-67.439-18.411l-.334.037c-5.948.657.304-3.591.304-3.591 9.33-6.234 18.332-26.989 1.542-26.989-32.902 0-39.143 38-39.143 38-63.455-10.519-86.47 60.749-88.424 74.911-1.954 14.161-18.713 14.166-23.874 10.733-5.162-3.432-18.713-12.237-20.651 7.086C40.633 327.058 60 334.354 60 334.354l-3.172 3.33c-.108 0-25.437 15.059-18.723 44.3 6.714 29.241 31.828 30.006 34.691 29.565 2.863-.442 1.871 2.088 1.871 2.088s-3.634 15.167 7.82 22.642c12.53 8.175 21.493 4.154 25.89 2.182 1.015-.455 1.786-.801 2.302-.863 1.066-.127 1.455.554 2.134 1.743 1.073 1.879 2.871 5.029 9.212 8.262 10.354 5.28 17.618-1.431 19.824-4.397 2.205-2.966 7.377.657 7.377.657 1.579.535 3.168 1.039 4.764 1.512l-21.79 26.359c-42.33 53.412-18.045 71.565-18.045 71.565 13.799 9.444 18.329-2.249 19.61-5.556l.001-.002c.087-.224.159-.41.217-.547a2.318 2.318 0 0 1 2.329-1.54l3.93.207c-1.082 8.731-1.529 14.355-1.529 14.355-.175 4.136 7.12 3.079 7.12 3.079l2.218.029c-.023 6.725.226 25.641 3.555 34.116a2.704 2.704 0 0 0 2.432 1.54h29.458s3.696.703 4.051-4.659c.302-4.563 1.367-20.399 2.979-30.437l8.937.118v.083l3.139-.042 3.138.042v-.083l9.548-.126c1.613 10.038 2.679 25.881 2.981 30.445.355 5.362 4.051 4.659 4.051 4.659h29.457a2.697 2.697 0 0 0 2.432-1.54c3.33-8.478 3.578-27.406 3.556-34.124l1.606-.021s7.351 1.057 7.14-3.079c0 0-.45-5.662-1.539-14.443l5.143-.119a2.314 2.314 0 0 1 2.324 1.54 21.83 21.83 0 0 1 .252.617c1.349 3.395 5.906 14.869 19.617 5.488 0 0 24.286-18.153-18.044-71.565l-21.897-26.488c1.071-.282 4.53-1.213 6.063-1.855l.071-.032.188-.094c.913-.466 2.638-1.348 6.131 2.835 3.855 4.618 9.911 5.603 16.739 3.515 6.827-2.089 10.132-9.78 10.795-12.638.571-2.46 2.526-1.745 3.199-1.499.109.04.184.068.215.068.02 0 .104.094.25.259 1.466 1.653 9.219 10.393 22.437 2.599 10.462-6.17 10.43-14.503 10.409-19.838-.008-2.078-.014-3.702.603-4.565.76-1.063 2.046-.998 4.057-.897 3.813.191 10.233.514 20.619-6.466 15.865-10.662 12.338-26.598 10.241-33.412-.789-2.564-2.168-4.285-3.233-5.617-1.767-2.206-2.676-3.341 1.377-5.466ZM250.045 553.418l-26.738.352.499 7.477a1.629 1.629 0 0 0 1.634 1.539h23.407c.302 0 .592-.119.807-.331.215-.212.337-.501.339-.802 0-1.832.029-5.507.052-8.235Zm-94.223 8.235c0-1.83-.028-5.5-.052-8.227l26.738.352-.498 7.469a1.633 1.633 0 0 1-1.635 1.539h-23.407a1.146 1.146 0 0 1-1.146-1.133Zm107.09-40.589c2.903-2.138 16.027-11.729 23.758-16.095-1.351-3.048-2.831-6.026-4.299-8.807a47.388 47.388 0 0 0-.899-1.619c-2.323 2.096-13.726 12.192-20.569 14.754a420.62 420.62 0 0 1 2.009 11.767Zm-3.36-18.679c3.919-2.181 11.58-6.934 18.063-13.889a238.994 238.994 0 0 0-5.414-7.581c-3.274 2.463-11.761 8.754-15.14 10.341a315.462 315.462 0 0 1 2.491 11.129Zm-4.183-17.696c2.266-1.483 7.759-5.236 12.386-9.659a591.228 591.228 0 0 0-5.552-7.098c-2.229 1.673-7.056 5.239-9.794 6.82a205.588 205.588 0 0 1 2.96 9.937Zm-4.556-14.586c1.819-1.221 5.144-3.576 8.071-6.317a792.744 792.744 0 0 0-5.322-6.529l-.124.085c-7.711 5.218-3.856 9.477-3.856 9.477.42 1.077.83 2.173 1.231 3.284Zm-2.491-19.071-3.868-3.946a178.527 178.527 0 0 1-12.477 2.155c-6.234 14.438-19.16 22.289-24.804 25.716l-.005.003a71.15 71.15 0 0 0-1.726 1.068c-2.601 1.699-4.56.036-4.56.036s-3.259-1.662-13.479-9.322c-6.906-5.177-10.915-12.712-12.79-17.055a129.064 129.064 0 0 1-12.917-2.287l-3.961 4.026-.13.153-.25.297c4.224 7.764 19.676 33.371 41.829 37.635a27.068 27.068 0 0 1 3.528-.235c1.147.001 2.287.074 3.412.218 22.994-4.485 38.752-31.945 42.198-38.462Zm-86.896 17.988c10.047 15.4 24.67 22.086 28.33 23.574a27.013 27.013 0 0 0-6.121 4.582 26.94 26.94 0 0 0-6.199 9.622h-24.133c.139-9.615 8.123-37.778 8.123-37.778Zm-9.794 45.198h24.171a26.917 26.917 0 0 0 .696 8.384h-26.245l1.378-8.384Zm1.378 15.392h26.295a26.982 26.982 0 0 0 4.33 5.652 27.041 27.041 0 0 0 19.077 7.899 27.038 27.038 0 0 0 19.084-7.896 26.934 26.934 0 0 0 4.334-5.655h26.09s3.598-.138 3.716 2.884c.119 3.022 1.101 12.365 1.101 12.365s.591 1.663-2.401 1.663H150.589c-2.992 0-2.401-1.663-2.401-1.663s.977-9.343 1.1-12.365c.123-3.022 3.722-2.884 3.722-2.884Zm101.96-7.008h-26.035a26.866 26.866 0 0 0 .697-8.384h23.96l1.378 8.384Zm-3.049-15.804h-23.922a26.978 26.978 0 0 0-12.411-14.253c3.85-1.582 18.27-8.289 28.211-23.525 0 0 7.984 28.163 8.122 37.778Zm-29.868-56.604c1.027-.053 2.059-.123 3.09-.207-1.618 3.52-6.346 11.221-18.971 19.115l-2.668 1.708s-11.442-3.736-22.624-20.494c1.894.144 3.792.246 5.694.306a68.479 68.479 0 0 0 2.952 3.2c8.914 9.138 11.356 9.502 11.356 9.502s1.959 1.663 4.56-.036c.353-.23.741-.479 1.162-.749l.017-.011.003-.001c3.69-2.368 9.8-6.286 15.429-12.333Zm-8.248.166-19.468.242c5.992 7.185 9.167 7.889 9.167 7.889l3.85-2.709c2.652-2.216 4.771-4 6.451-5.422Zm-69.486 58.953a418.12 418.12 0 0 0-2.01 11.775c-2.717-2.002-14.941-10.94-22.786-15.54 1.418-3.25 2.993-6.429 4.554-9.386.149-.282.306-.571.472-.869 3.51 3.11 13.549 11.712 19.77 14.02Zm3.84-18.039a315.615 315.615 0 0 0-2.491 11.132c-3.76-2.091-11.023-6.579-17.362-13.133a224.768 224.768 0 0 1 5.489-7.748c3.71 2.775 11.26 8.306 14.364 9.749Zm4.651-16.504a205.458 205.458 0 0 0-2.961 9.942c-2.127-1.39-7.203-4.85-11.685-8.994a561.596 561.596 0 0 1 5.61-7.196c2.448 1.823 6.591 4.842 9.036 6.248Zm2.832-7.951a144.16 144.16 0 0 0-1.238 3.304c-1.665-1.116-4.626-3.203-7.379-5.672a787.148 787.148 0 0 1 5.412-6.655c6.839 5.009 3.205 9.023 3.205 9.023Zm-60.704-71.941c-7.161.139-23.54-3.981-26.846-23.905-3.306-19.923 19.685-27.753 19.685-27.753s1.47-.651 2.657-.328c1.188.323.844 2.432.844 2.432v22.863c0 11.385 3.466 19.418 5.118 23.246.516 1.197.855 1.983.855 2.332 0 1.462-2.313 1.113-2.313 1.113Zm186.25 23.397c-24.049 24.567-77.113 22.668-77.113 22.668l-8.067-.154c-102.093-1.539-93.24-77.691-93.24-77.691v-25.142c0-2.755 2.313-2.304 2.313-2.304 41.441-7.373 52.566-61.057 52.566-61.057.18-1.442.514-2.114 1.624-1.981 1.111.134 1.106 1.468 1.106 1.468 11.654 42.376 36.5 57.26 61.974 62.93 25.473 5.67 23.884-4.618 22.306-8.661-1.578-4.043-12.626-16.603-13.366-17.111-.741-.508-2.571-1.853-.9-3.71 1.671-1.857 3.27.841 3.27.841 29.912 30.017 61.127 27.961 66.9 27.581.437-.029.728-.048.862-.043 1.902.072 1.625 1.621 1.625 1.621.03 4.313.087 8.313.141 12.046.482 33.607.653 45.559-22.001 68.699Zm57.183-47.296c-3.306 19.923-19.685 24.043-26.846 23.904 0 0-2.313.375-2.313-1.113 0-.357.343-1.154.866-2.366 1.655-3.842 5.107-11.85 5.107-23.211v-22.869s-.349-2.104.843-2.432c1.193-.328 2.658.328 2.658.328s22.985 7.83 19.685 27.759ZM137.608 527.027c-4.691-3.932-16.516-11.557-20.867-14.33-3.004 8.934-3.916 17.569.735 22.814 6.601 7.424 9.341 3.94 10.184-1.406.13-.825.219-1.562.298-2.218.433-3.59.573-4.756 5.624-4.817 1.6-.019 2.932-.033 4.026-.043Zm151.359 8.484c4.765-5.374 3.693-14.307.513-23.474-3.038 1.925-16.748 10.669-21.897 14.983 1.531.011 3.327.027 5.282.05 5.042.061 5.183 1.224 5.617 4.806.079.659.169 1.399.301 2.229.848 5.346 3.583 8.83 10.184 1.406Zm-86.255-38.215a18.99 18.99 0 0 1 13.404 5.545 18.916 18.916 0 0 1 .009 26.772 18.994 18.994 0 0 1-13.413 5.554 18.98 18.98 0 0 1-13.405-5.544 18.908 18.908 0 0 1-5.554-13.379 18.877 18.877 0 0 1 1.438-7.247 18.928 18.928 0 0 1 4.109-6.147 18.983 18.983 0 0 1 13.412-5.554Z" clip-rule="evenodd"/><path fill="#D9D9D9" d="M112.151 374.263c-3.45 13.648 6.066 23.397 6.066 23.397 6.344 5.921 17.32 10.58 24.543 6.465 3.424-1.95-1.378-7.568-1.378-7.568s-15.582-17.753-20.821-23.669c-5.238-5.916-8.41 1.375-8.41 1.375ZM294.093 374.263c3.45 13.648-6.066 23.397-6.066 23.397-6.344 5.921-17.32 10.58-24.543 6.465-3.429-1.95 1.378-7.568 1.378-7.568s15.582-17.753 20.821-23.669c5.238-5.916 8.41 1.375 8.41 1.375ZM451.851 364.86s8.726 15.453 26.451 16.78l2.773 21.257-15.339-3.302-16.135-16.639-1.188-10.296-9.788-7.659-.931-3.462 14.157 3.321ZM550.636 465.352c-.176.532-9.653 15.322-9.653 15.322s70.221 46.479 139.253.392l-10.181-16.081-58.278 6.864-61.141-6.497ZM768.841 364.86s-8.727 15.453-26.447 16.78l-2.778 21.257 15.34-3.302 16.134-16.639 1.188-10.297 9.788-7.658.926-3.438-14.151 3.297ZM594.938 551.189h-35.837v11.227h35.837v-11.227ZM662.119 551.189h-35.838v11.227h35.838v-11.227ZM521.744 378.826c-3.372 13.368 5.938 22.916 5.938 22.916 6.21 5.799 16.955 10.362 24.026 6.332 3.357-1.91-1.349-7.413-1.349-7.413s-15.254-17.387-20.382-23.182c-5.128-5.794-8.233 1.347-8.233 1.347ZM699.858 378.826c3.372 13.368-5.943 22.916-5.943 22.916-6.205 5.799-16.955 10.362-24.026 6.332-3.352-1.91 1.349-7.413 1.349-7.413s15.249-17.387 20.382-23.182c5.133-5.794 8.238 1.347 8.238 1.347Z"/><path fill="#000" d="M572.855 510.912a3.963 3.963 0 0 0 3.966-3.96 3.963 3.963 0 0 0-3.966-3.96 3.962 3.962 0 0 0-3.965 3.96 3.962 3.962 0 0 0 3.965 3.96ZM591.37 506.952a3.962 3.962 0 0 1-3.965 3.96 3.963 3.963 0 0 1-3.966-3.96 3.963 3.963 0 0 1 3.966-3.96 3.962 3.962 0 0 1 3.965 3.96ZM587.404 498.434a2.841 2.841 0 0 0 2.844-2.839 2.842 2.842 0 0 0-2.844-2.84 2.842 2.842 0 0 0-2.843 2.84 2.841 2.841 0 0 0 2.843 2.839ZM575.9 495.595a2.841 2.841 0 0 1-2.844 2.839 2.841 2.841 0 0 1-2.843-2.839 2.842 2.842 0 0 1 2.843-2.84 2.842 2.842 0 0 1 2.844 2.84Z"/><path fill="#000" fill-rule="evenodd" d="M513.529 347.149c11.418-2.964 36.083-12.701 46.805-42.768 0 0 .886-1.759 2.013-1.231.193.09.45.992.871 2.475 2.038 7.17 7.934 27.914 29.194 36.084 0 0 11.988 4.05 12.874-3.171.478-3.901-2.205-7.583-5.193-11.684-2.543-3.49-5.307-7.283-6.533-11.774a1.006 1.006 0 0 1-.015-.81 1 1 0 0 1 .588-.557c1.007-.528 1.762.442 2.335 1.276.553.803 28.402 32.482 61.07 29.751l-18.297 14.578-7.051-5.282 6.875 12.151 7.629-3.681a25.516 25.516 0 0 0-.141 2.727c0 13.859 1.621 25.433 15.365 25.433s15.229-12.383 15.229-21.664c0-6.437-1.685-13.977-6.629-17.993l10.514-5.074-6.107-10.803c8.06 5.183 19.93 10.986 32.753 11.228 3.821 18.395 9.364 82.056-96.988 82.056v14.438s122.021 4.754 112.938-96.486l-.017-.009c-.079-.533-2.538-16.79-12.031-35.244a26.913 26.913 0 0 0-1.339-2.331c-6.321-10.396-35.527-51.792-99.812-51.792-73.517 0-112.691 56.239-112.691 89.381-9.079 101.24 112.937 96.486 112.937 96.486v-14.438c-104.876 0-100.939-61.917-97.146-81.272Zm158.504-13.957c-4.186-2.928-6.897-5.358-7.529-5.991-1.937-1.94-2.601-.136-2.601-.136-.15 1.177.2 1.578.95 2.437.784.897 2.005 2.295 3.549 5.604a7.1 7.1 0 0 1 .63 2.071l5.001-3.985Z" clip-rule="evenodd"/><path fill="#000" d="m580.263 366.187-5.71-2.755c.193 1.523.28 3.045.28 4.509 0 9.287-1.479 21.67-15.229 21.67-13.749 0-15.364-11.574-15.364-25.434 0-6.471 2.204-10.491 4.942-12.989l-10.886-5.253 7.761-13.729 34.03 27.112 7.051-5.282-6.875 12.151ZM625.914 395.289s.835-8.543-4.313-13.679c-2.27-2.271-5.652-4.02-10.81-4.02-8.022 0-11.862 4.714-13.684 9.447a23.814 23.814 0 0 0-1.464 8.513 3.822 3.822 0 0 0 1.265 2.573 3.834 3.834 0 0 0 5.319-.203 3.82 3.82 0 0 0 1.065-2.661 15.562 15.562 0 0 1 .962-5.478c.875-2.266 2.697-4.548 6.542-4.548 2.542 0 4.278.664 5.395 1.784 2.768 2.769 2.119 7.423 2.119 7.423a3.8 3.8 0 0 0 .095 1.512 3.82 3.82 0 0 0 3.271 2.81 3.84 3.84 0 0 0 3.814-2.014c.239-.451.385-.946.429-1.454l-.005-.005Z"/><path fill="#000" fill-rule="evenodd" d="M744.041 307.525c-2.801-12.65-10.125-31.531-28.692-54.111-38.751-47.087-93.214-48.539-103.003-48.404h-3.07c-9.813-.135-64.593 1.302-103.334 48.404-18.203 22.13-25.6 40.707-28.522 53.346-1.924.549-7.775 2.419-13.934 6.399v-27.135c6.489-1.544 11.313-7.371 11.313-14.323 0-8.132-6.602-14.724-14.745-14.724-8.144 0-14.746 6.592-14.746 14.724 0 6.949 4.82 12.773 11.304 14.321v32.555c-5.838 5.636-10.639 13.646-10.858 24.801l-8.231 7.025S434 353.242 434 359.755s3.523 9.357 3.523 9.357l8.37 7.144c2.19 23.494 28.217 31.641 35.061 33.384 5.613 13.091 16.811 28.842 38.873 43.566 0 0 10.044 6.607 25.114 12.815-6.935 9.062-26.285 36.304-27.872 60.097-1.938 29.037 24.509 22.8 25.742 15.76 1.233-7.041 6.789-3.086 6.789-3.086l-1.324 12.237c-.012.288.001.578.04.864-.075 4.312 3.136 3.89 3.136 3.89h4.986l2.351 31.147a2.219 2.219 0 0 0 2.214 2.055h31.263s3.085-.266 4.056-5.372c.834-4.385 2.251-22.736 2.635-27.83h23.026c.378 5.028 1.801 23.469 2.638 27.875.971 5.116 4.056 5.372 4.056 5.372h31.263a2.225 2.225 0 0 0 2.214-2.055l2.331-31.192h5.44c3.799.025 2.642-3.407 2.642-3.407l-1.738-13.181a38.152 38.152 0 0 0 3.313-1.684c2.544-1.403 3.081.634 3.835 3.495.292 1.107.616 2.337 1.102 3.54 3.176 7.835 28.037 5.372 25.219-20.423-2.873-26.261-22.325-50.449-28.73-57.783 15.501-6.298 25.886-13.134 25.886-13.134 21.952-14.645 33.152-30.313 38.794-43.366 5.235-1.232 33.606-9.023 35.881-33.607l8.343-7.121s3.523-2.844 3.523-9.357-3.523-9.352-3.523-9.352l-8.206-7.004c-.557-29.119-32.352-36.817-32.352-36.817l.127.943Zm1.464 20.575v47.907c0 2.115.08 4.191.196 6.281.186 2.931.179 8.738-1.654 16.277 5.044-1.715 9.078-3.928 12.303-6.337v-70.507c-2.905-1.804-6.467-3.395-10.832-4.609.215 2.668.193 4.68.128 5.963a97.875 97.875 0 0 0-.141 5.025Zm21.237 51.646c-1.237 2.595-3.124 5.624-5.984 8.599v-63.311c9.511 8.659 8.284 19.58 8.284 19.58v24.83a23.9 23.9 0 0 1-2.3 10.302ZM544.59 479.322c3.454-5.461 5.752-8.956 6.945-10.743 2.404.875 4.9 1.719 7.474 2.513l-2.243 16.142c-5.875-2.031-10.045-5.692-12.176-7.912Zm15.938 37.6 4.383-44.146c8.948 2.348 18.626 3.933 28.442 3.933h4.363v40.213h-37.188Zm42.679 0v-40.213h24.72c.591 0 1.182-.005 1.771-.017l.924 18.493a21.065 21.065 0 0 0-8.025 3.218 21.004 21.004 0 0 0-7.748 9.425 20.97 20.97 0 0 0-1.575 9.094h-10.067Zm33.7-21.892-.987-18.658c2.2-.182 4.384-.434 6.545-.747l.351 21.047a21.06 21.06 0 0 0-5.909-1.642Zm12.384 6.126-.713-26.58a132.75 132.75 0 0 0 8.071-1.87l3.869 44.216h-5.235a20.978 20.978 0 0 0-5.992-15.766Zm14.664-14.103-2.087-15.834a155.968 155.968 0 0 0 6.883-2.278c1.405 1.94 3.871 5.421 7.036 10.208-2.018 2.136-6.074 5.786-11.832 7.904ZM776.274 351.97v15.573a22.235 22.235 0 0 0 2.531-1.732 6.35 6.35 0 0 0 1.742-2.156 8.535 8.535 0 0 0 0-7.799 6.269 6.269 0 0 0-1.742-2.151 22.39 22.39 0 0 0-2.531-1.735ZM443.19 365.811a22.43 22.43 0 0 0 2.556 1.746v-15.6a22.536 22.536 0 0 0-2.556 1.748 6.269 6.269 0 0 0-1.742 2.151 8.528 8.528 0 0 0 0 7.799 6.35 6.35 0 0 0 1.742 2.156Zm22.46 26.421c3.057 2.285 6.841 4.392 11.527 6.065-1.77-7.408-1.776-13.113-1.597-16.009.126-2.09.206-4.186.206-6.281V328.1c0-1.673-.055-3.346-.141-5.025-.064-1.249-.086-3.19.11-5.755-4.036 1.185-7.363 2.698-10.105 4.401v70.511Zm-4.408-3.885a33 33 0 0 1-5.989-8.601 23.9 23.9 0 0 1-2.3-10.302v-24.83s-1.225-10.922 8.289-19.581v63.314Zm251.863 43.069c1.419-1.653 2.929-3.236 4.438-4.789 5.803-5.92 21.877-26.745 21.877-75.762 0-59.741-43.331-118.401-128.609-118.597-85.277.216-128.941 58.876-128.941 118.597 0 49.017 16.075 69.842 21.877 75.762 1.525 1.553 3.02 3.136 4.439 4.789 33.467 39.017 102.756 37.007 102.756 37.007 6.643.301 68.696 2.02 102.163-37.007ZM563.708 555.783a4188.73 4188.73 0 0 0-.294 8.955.881.881 0 0 0 .291.687.874.874 0 0 0 .715.213c7.132-.935 20.468-.146 25.319.191a.872.872 0 0 0 .351-.048.877.877 0 0 0 .591-.812l.197-9.186h-27.17Zm66.316 0h27.169l.296 8.975a.867.867 0 0 1-.291.687.874.874 0 0 1-.716.213c-7.136-.935-20.467-.146-25.319.191a.874.874 0 0 1-.655-.229.89.89 0 0 1-.286-.631l-.198-9.206Zm39.855-23.797 10.71-2.757s3.019-1.322 3.261 1.407c.027.304.048.734.073 1.249.2 4.109.664 13.653 6.54 8.259 6.548-6.011 10.244-18.764-1.168-39.013l-22.065 10.766 2.649 20.089Zm15.544-37.487a405.59 405.59 0 0 0-6.156-9.985c-4.125 4.631-10.921 7.523-14.486 8.803l1.371 10.398 19.271-9.216Zm-33.656 33.032a20.948 20.948 0 0 0 2.562-5.328h6.652l2.175 24.856a1.42 1.42 0 0 1-.376 1.057 1.4 1.4 0 0 1-1.028.45H559.157a1.057 1.057 0 0 1-1.052-1.11l.82-14.383.063-.633h62.374a21.06 21.06 0 0 0 20.967 2.828 21.023 21.023 0 0 0 9.438-7.737Zm-92.373.814.61-6.142h54.223c.7 2.208 1.76 4.283 3.135 6.142h-57.968Zm-3.496-34.862c-3.345-1.163-10.386-4.023-14.723-8.717a1207 1207 0 0 0-6.082 9.878l19.358 9.259 1.447-10.42Zm-2.581 18.58-2.681 19.297-10.468-2.161a2.081 2.081 0 0 0-2.471 1.407c-.614 1.849-2.289 8.895-2.289 8.895s-.796 3.08-5.204 1.407c-4.255-1.615-10.807-18.317.948-39.661l22.165 10.816Zm80.966 18.06a14.294 14.294 0 0 1-7.936-2.401 14.246 14.246 0 0 1-2.17-21.943 14.294 14.294 0 0 1 21.977 2.159 14.25 14.25 0 0 1-1.773 18.008 14.288 14.288 0 0 1-10.098 4.177Zm-3.754 47.801-.126-5.824a.868.868 0 0 1 .755-.884 101.52 101.52 0 0 1 25.803-.106.862.862 0 0 1 .759.874c0 2.442-.39 4.554-.629 5.847-.105.569-.181.98-.181 1.189 0 2.116-1.917 1.583-1.917 1.583h-22.194c-2.265-.035-2.285-2.699-2.285-2.699l.015.02Zm-64.594 2.629h22.194v.015c2.25 0 2.27-2.694 2.27-2.694l.126-5.824a.878.878 0 0 0-.755-.885 101.52 101.52 0 0 0-25.803-.105.867.867 0 0 0-.76.874c.004 2.471.396 4.589.633 5.873.104.559.178.96.178 1.163 0 2.115 1.917 1.583 1.917 1.583Z" clip-rule="evenodd"/><path fill="#000" d="M95.508 16.527a.752.752 0 0 1 .74.437c.234.382.27.78.494 1.062.52 1.36.94 2.728 1.46 4.089.26.68.675.844 1.273.792.598-.052 1.295-.112 1.884-.264 1.486-.23 2.998-.16 4.509-.09.2-.018.308.073.416.164.208.083.55.555.468.763-.321.931-.75 1.771-1.711 2.256-.962.485-1.824.962-2.786 1.447-.389.134-.671.36-1.052.593-.572.35-.628.858-.377 1.438.502 1.161 1.005 2.322 1.897 3.349.117.19.234.38.45.563.342.472.286.979-.277 1.429-.464.442-.97.385-1.304.013-.117-.19-.333-.373-.45-.563-1.027-1.417-2.5-2.192-3.972-2.968-.832-.329-1.529-.268-2.291.2-.845.675-1.699 1.251-2.552 1.827-.281.225-.546.65-.719.966-.173.316-.338.732-.511 1.048-.537.75-1.018.992-1.767.455-.317-.174-.641-.447-.958-.62-.216-.182-.26-.68-.078-.896.182-.217.265-.425.455-.542.763-.468 1.2-1.208 1.52-2.14.165-.415.322-.93.486-1.347.485-1.346.36-1.637-1.078-2.014-1.239-.394-2.46-.589-3.7-.983-.307-.074-.614-.148-.93-.32-.308-.075-.434-.365-.468-.763-.026-.3.238-.724.437-.741l1.17-.403c1.585-.238 3.17-.476 4.747-.814.598-.052 1.087-.194 1.677-.346.199-.017.38-.234.463-.442.256-.524.412-1.04.468-1.546.295-1.23.59-2.46.875-3.79.074-.308.148-.615.321-.931-.017-.2.464-.442.771-.368Zm2.312 10.439c-.234-.381-.377-.87-.61-1.252-.117-.19-.425-.264-.633-.347-.606-.047-1.304.013-1.884.264-.58.252-.927.884-.975 1.49.009.1.026.3.134.39.542.455 1.165.702 1.88.84.1-.008.299-.025.49-.142.38-.234.862-.477 1.135-.801.207.082.281-.226.463-.442Zm3.305-2.395c-.797.069-.888.177-1.56.537a.48.48 0 0 0-.147.615c.117.19.416.165.624.247l.199-.017c.481-.243.962-.486 1.434-.828.1-.008.074-.307.065-.407 0 0-.108-.09-.208-.082 0 0-.199.017-.407-.065Zm-5.08-1.868c-.126-.29-.243-.48-.36-.671 0 0-.208-.082-.2.017-.38.234-.528.85-.203 1.122.108.091.308.074.407.065.091-.108.174-.316.356-.533Zm-3.038 7.793c.191-.117.382-.234.464-.442a.304.304 0 0 0-.035-.399c-.108-.09-.316-.173-.407-.065a.752.752 0 0 0-.437.74l.415.166Zm-1.35-3.999c-.01-.1-.018-.199-.117-.19l-.399.034-.082.208c.108.091.208.083.407.065.009.1.1-.008.19-.117ZM167.159 27.869a4.81 4.81 0 0 1-.723-.239c-.425-.264-.758-.636-1.083-.91-.659-.645-1.507-1.173-2.348-1.602-.632-.347-1.239-.394-1.81-.044-1.053.594-2.106 1.187-2.608 2.335-.256.524-.628.857-1.209 1.108-.58.252-1.152.602-1.732.854-.581.25-1.179.303-1.885.264-.307-.074-.567-.754-.385-.97.273-.325.555-.55.836-.776.654-.559 1.425-.927 2.179-1.494.563-.45.91-1.083 1.148-1.806.23-.823-.022-1.404-.754-1.741-1.147-.503-2.187-.915-3.408-1.11-.507-.056-.923-.22-1.339-.385-.307-.074-.532-.356-.758-.637-.333-.373-.194-1.087.195-1.222a20.136 20.136 0 0 1 2.231-.896 254.35 254.35 0 0 1 3.907-1.243c.191-.117.49-.143.68-.26.282-.225.563-.45.646-.658.147-.615.294-1.23.342-1.836.13-.815.252-1.729.373-2.643.074-.307.455-.541.654-.558.299-.026.606.047.832.329l.35.572c.26.68.52 1.36.871 1.932.628 1.45.844 1.633 2.529 1.386 1.395-.121 2.881-.35 4.276-.472l1.394-.12c.299-.027.615.146.923.22.416.165.667.745.502 1.161-.247.624-.602 1.156-1.074 1.499-.927.883-1.962 1.676-3.015 2.269-.671.36-1.243.71-1.698 1.252-.182.216-.247.623-.121.914.601 1.152 1.312 2.395 1.914 3.547.117.19.333.373.359.672.017.199.043.498-.147.615-.381.234-.763.467-1.044.693ZM160 20.56c-.031.805.212 1.286.727 1.442.832.33 1.512.07 2.049-.68.091-.108.173-.316.165-.416-.186-.987-.464-1.866-1.131-2.611-.216-.182-.415-.165-.714-.14-.39.135-.771.369-.836.776-.139.715-.187 1.321-.26 1.629Zm6.904-3.712c-.489.143-1.178.303-1.858.563-.489.143-.645.659-.602 1.157.069.797.702 1.143 1.373.784l2.261-1.702c.091-.108.173-.316.065-.407-.009-.1-.225-.282-.325-.273-.307-.074-.506-.057-.914-.122Zm-9.109 2.598c-.598.052-1.187.204-1.75.654-.091.108-.074.308-.065.407.541.455 1.057.611 1.746.451.099-.009.281-.225.372-.334.173-.316.147-.614.022-.905-.009-.1-.217-.182-.325-.273ZM118.767 30.065c-.299.026-.407-.065-.407-.065-.208-.082-.407-.065-.632-.347-.126-.29-.061-.697.021-.905.091-.108.174-.316.273-.325 1.443-.727 1.928-2.074 2.097-3.595-.009-.1.082-.208-.017-.2-.117-.19-.143-.489-.351-.57-.84-.43-1.78-.85-2.694-.971-.507-.057-1.122-.204-1.629-.26-.307-.074-.65-.546-.675-.845a.96.96 0 0 1 .619-.957c1.079-.295 2.148-.689 3.227-.983.589-.152 1.278-.312 1.867-.464.888-.177 1.343-.718 1.564-1.641.268-1.529.546-2.958.815-4.487.073-.308.047-.607.121-.914.082-.208.264-.425.346-.633.273-.325 1.079-.294 1.213.096.269.78.645 1.65.814 2.438.286.98.572 1.958.866 3.037.143.49.568.754 1.165.702.698-.06 1.395-.121 2.201-.091 1.104.004 2.2-.09 3.313.013.399-.034.815.13 1.122.204.407.065.659.645.485.962-.429.84-.966 1.59-1.927 2.074-.962.485-2.023.979-2.985 1.464-.091.108-.29.125-.381.234-.381.234-.546.65-.412 1.04.26.68.52 1.36.871 1.931.117.19.242.481.26.68.017.2-.057.507-.148.615-.082.208-.372.334-.563.45-.381.235-.78.27-1.104-.004l-1.625-1.364c-.424-.265-.831-.33-1.321-.187-1.169.403-2.105 1.187-3.157 1.78a1.2 1.2 0 0 0-.455.542c-.603 1.156-1.789 1.36-2.777 1.546Zm5.948-6.64c.697-.06 1.052-.593 1.009-1.091-.043-.498-.177-.888-.42-1.37-.117-.19-.533-.354-.832-.328-.489.143-.879.277-1.243.71-.546.65-.476 1.447.355 1.776.416.165.923.22 1.131.303Zm4.323-3.387c-.199.018-.589.152-.888.178-.39.134-.654.559-.529.849.126.29.533.355.815.13.29-.126.572-.351.762-.468.191-.117.355-.533.247-.624.009.1-.199.018-.407-.065Zm-6.402 4.873-.109-.091c-.099.008-.099.008-.19.117.017.199.017.199.216.182.1-.01.091-.109.083-.208Zm1.495-7.056c-.1.008-.091.108-.191.117l.017.199c.109.091.308.074.29-.126-.008-.1-.108-.09-.116-.19Zm-3.639 4.331c.099-.009.091-.108.19-.117l-.108-.09c-.1.008-.091.107-.191.116.009.1.109.091.109.091ZM194.322 18.182c-.082.208-.065.407-.156.515-.364.434-.944.685-1.46.529-.506-.057-.931-.32-1.347-.485a27.569 27.569 0 0 0-1.646-.46c-.515-.156-.914-.121-1.403.022-1.559.537-2.902 1.256-3.777 2.737-.091.108-.174.316-.265.424-.992 1.291-1.308 1.118-2.638.832-.407-.065-.576-.854-.303-1.178.091-.109.182-.217.373-.334 1.053-.593 1.464-1.633 1.668-2.755-.017-.199.073-.307.056-.506.195-1.222-.039-1.603-1.078-2.015-.931-.32-1.863-.64-2.694-.97-.416-.165-.732-.338-1.148-.503-.624-.247-.702-1.143-.13-1.494.29-.126.572-.35.862-.476.879-.278 1.858-.563 2.738-.84.589-.152 1.169-.403 1.858-.563.489-.143.754-.568.81-1.075.186-1.32.373-2.642.252-4.036-.026-.3.047-.607.121-.914.082-.208.347-.633.645-.659.299-.026.607.048.832.33.225.281.351.571.476.862.278.879.446 1.667.724 2.546.143.49.394 1.07.636 1.551.126.29.442.464.84.43 1.395-.122 2.898-.152 4.293-.273l2.59-.225c.199-.018.507.056.706.039.407.065.767.736.503 1.16-.52.95-1.265 1.616-2.11 2.292-.472.342-.953.584-1.425.927-.282.225-.663.459-.945.684-.472.342-.528.849-.195 1.221.468.763.936 1.525 1.495 2.18.108.09.233.38.242.48Zm-5.418-3.444c-.018-.2-.026-.299-.143-.49-.351-.571-.81-1.234-1.161-1.806-.234-.381-.749-.537-1.039-.412-.39.135-.672.36-.836.776-.074.307-.148.615-.122.914-.056.506.178.888.602 1.152.416.165.832.33 1.347.485.208.083.498-.043.698-.06.307.073.671-.36.654-.56Zm2.811-3.456c-.199.017-.788.168-1.369.42-.099.008-.182.216-.272.325.06.697.801 1.135 1.273.792a4.445 4.445 0 0 0 1.027-.892c.091-.108.073-.307.164-.416.191-.117-.125-.29-.823-.23Zm-7.766 1.879c-.018-.2-.243-.481-.442-.464-.399.035-.689.16-1.061.494-.191.117-.057.507.151.59.208.081.416.164.715.138.307.073.58-.251.637-.758Zm2.256 4.02c.074-.308-.035-.399-.234-.382-.407-.065-.598.052-.671.36.008.1.026.299.134.39.108.09.308.073.407.065.191-.117.273-.325.364-.433ZM229.214 17.159c-.082.207-.065.407-.156.515-.364.433-.944.684-1.46.528-.506-.056-.931-.32-1.347-.485a27.602 27.602 0 0 0-1.645-.46c-.516-.155-.914-.12-1.404.022-1.559.537-2.902 1.256-3.777 2.737-.091.109-.173.317-.264.425-.992 1.29-1.309 1.117-2.638.831-.408-.065-.576-.853-.304-1.178.091-.108.182-.216.373-.333 1.053-.594 1.464-1.633 1.668-2.755-.017-.2.074-.308.056-.507.195-1.221-.039-1.602-1.078-2.014-.931-.32-1.863-.641-2.694-.97-.416-.165-.732-.338-1.148-.503-.624-.247-.702-1.144-.13-1.495.29-.125.572-.35.862-.476.88-.277 1.858-.563 2.738-.84.589-.152 1.169-.403 1.858-.563.49-.143.754-.567.81-1.074.187-1.321.373-2.642.252-4.037-.026-.299.047-.606.121-.914.082-.208.347-.632.646-.658.298-.026.606.048.831.33.225.28.351.57.477.861.277.88.446 1.668.723 2.547.143.49.394 1.07.636 1.55.126.291.442.464.841.43 1.394-.121 2.897-.152 4.292-.273l2.59-.225c.2-.017.507.057.706.04.407.064.767.736.503 1.16-.52.949-1.265 1.616-2.11 2.291-.472.342-.953.585-1.425.927-.282.225-.663.46-.944.684-.473.343-.529.85-.195 1.222.467.762.935 1.525 1.494 2.179.108.09.234.38.242.48Zm-5.418-3.444c-.017-.2-.026-.3-.143-.49-.351-.572-.81-1.234-1.161-1.806-.234-.382-.749-.537-1.039-.412-.39.134-.672.36-.836.775-.074.308-.148.615-.122.914-.056.507.178.888.602 1.152.416.165.832.33 1.347.486.208.082.498-.043.698-.06.307.073.671-.36.654-.56Zm2.811-3.457c-.199.018-.788.17-1.368.42-.1.009-.182.217-.273.325.06.697.801 1.135 1.273.793a4.45 4.45 0 0 0 1.027-.892c.091-.109.073-.308.164-.416.191-.117-.125-.29-.823-.23Zm-7.766 1.88c-.018-.2-.243-.481-.442-.464-.398.035-.689.16-1.061.494-.191.117-.057.506.151.589.208.082.416.164.715.138.308.074.58-.25.637-.758Zm2.256 4.02c.074-.308-.035-.4-.234-.382-.407-.065-.598.052-.671.36.008.1.026.298.134.39.108.09.308.073.407.064.191-.117.273-.325.364-.433ZM628.233 42.955a.751.751 0 0 1 .658.554c.168.414.136.813.312 1.128.287 1.428.475 2.847.763 4.274.144.714.527.945 1.125.993.598.047 1.296.103 1.902.05 1.503.02 2.982.338 4.462.657.199.016.291.123.383.23.191.116.451.639.335.83-.47.865-1.032 1.623-2.061 1.943-1.028.32-1.957.646-2.986.966-.406.068-.721.243-1.136.411-.622.251-.761.742-.609 1.356.303 1.228.607 2.456 1.317 3.616.084.207.167.414.351.63.259.522.12 1.012-.51 1.363-.53.36-1.021.22-1.288-.202-.084-.208-.267-.423-.351-.63-.778-1.567-2.102-2.575-3.427-3.583-.765-.463-1.463-.518-2.292-.183-.945.527-1.882.954-2.819 1.38-.315.176-.645.551-.869.834-.223.284-.454.667-.677.95-.654.65-1.168.81-1.818.156-.283-.223-.559-.546-.842-.77-.183-.215-.144-.713.072-.896.215-.184.33-.375.538-.46.829-.334 1.383-.992 1.853-1.858.231-.383.47-.865.701-1.248.702-1.248.626-1.555-.73-2.165-1.157-.594-2.329-.988-3.486-1.582-.291-.123-.582-.247-.865-.47-.291-.123-.367-.43-.335-.829.023-.299.354-.674.554-.658l1.22-.204c1.602.027 3.205.055 4.816-.018.598.048 1.105-.012 1.711-.064.199.016.414-.168.53-.36a4.7 4.7 0 0 0 .717-1.447c.494-1.165.988-2.329 1.49-3.593.123-.291.247-.582.47-.865.016-.2.53-.36.821-.236Zm.555 10.678c-.168-.415-.228-.921-.396-1.336-.083-.207-.374-.33-.566-.446-.59-.148-1.288-.203-1.902-.051-.614.151-1.06.718-1.207 1.308-.008.1-.024.299.067.407.459.538 1.034.884 1.715 1.14.1.007.3.023.507-.06.414-.168.929-.328 1.252-.603.191.115.315-.176.53-.36Zm3.655-1.816c-.797-.064-.905.028-1.626.272a.48.48 0 0 0-.247.582c.083.207.383.231.574.347l.199.015c.515-.16 1.029-.319 1.551-.578.1.008.124-.291.132-.391 0 0-.092-.108-.192-.116 0 0-.199-.016-.391-.131Zm-4.702-2.682a4.872 4.872 0 0 0-.243-.721s-.192-.116-.2-.016c-.414.167-.661.75-.386 1.073.092.107.291.123.391.131.108-.092.223-.283.438-.467Zm-4.283 7.183c.207-.084.414-.167.53-.359.108-.092.123-.291.032-.399-.092-.107-.283-.223-.391-.131a.752.752 0 0 0-.554.658l.383.231Zm-.672-4.166c.008-.1.016-.2-.083-.208l-.399-.031-.116.191c.092.108.192.116.391.132-.008.1.1.007.207-.084ZM48.479 572.674c4.971-.234 9.943.468 14.914.234 1.657-.234 3.314.234 4.971.234 6.865.234 13.967.469 20.832.937 6.392.468 12.784 1.17 19.176 2.574.71.234 1.42.234 2.13.234 5.919 0 11.6.936 17.518 1.404 6.865.468 13.494.702 20.359.702 4.735 0 9.469-.234 14.204 0 2.604.234 5.208 0 8.049 0 8.759-.234 17.518 0 26.04.234 2.368 0 4.972.468 7.339.468 7.102.234 13.967.468 21.069.468 1.184 0 2.367.234 3.314.234 3.078.234 5.918.468 8.996 0 2.604-.234 5.208 0 8.049 0 6.155.468 12.073.702 18.228.234h1.657c4.025.468 8.049.234 11.837.234 4.734 0 9.469.468 14.203.234 4.498-.234 8.996 0 13.731 0 8.049.234 15.861 0 23.91 0 6.865 0 13.73.234 20.358.234h18.229c3.787 0 7.575 0 11.363-.234 4.971-.468 9.942-.468 14.677-.468 9.943-.234 19.885-.234 30.065-.468 8.522 0 17.045.234 25.567.234 6.392 0 12.783 0 19.175.468 11.363-.468 22.726.702 34.089.468 2.368 0 4.972.234 7.339.469.473 0 1.184.234 1.657.234 8.049-.469 16.334.234 24.383.468 7.102.234 14.441.468 21.543.702 1.657 0 3.314.234 5.208.234 1.42 0 3.077.234 4.498.234l19.175.702c.947 0 1.894 0 2.841.234 1.42.468 2.84.468 4.498.234 1.183-.234 2.604 0 4.024 0 4.261.468 8.759.936 13.02.702 1.894 0 3.788.234 5.682.234 11.126.936 22.252 1.404 33.379 1.872 8.049.468 16.334 1.17 24.383 1.17 7.339 1.171 14.677.702 22.016 1.405 4.024-.234 7.812.702 11.836.234h1.184c5.918.936 12.073.468 17.992 1.17 4.024.468 8.048.234 11.836.234 8.049 0 15.861.936 23.91 1.17 2.604.234 5.208.234 8.049.468h1.657c6.628 1.17 13.494.702 20.359 2.106.947.234 1.894 0 2.841 0 1.893-.234 3.787 0 5.681.234 4.498.702 8.996 1.17 13.494 1.638 6.155.703 12.31 1.405 18.465 2.575 2.367.468 4.971.936 7.102 2.106.947.468 1.42 1.17 1.42 2.34 0 1.404-.474 2.809-1.894 3.277-3.077.936-6.155 1.638-9.469.936-6.629-.936-13.02-1.404-19.649-1.638h-2.84c-8.049-1.405-16.335-1.171-24.384-2.107-1.657-.234-3.314-.234-5.208-.234-4.024-.234-7.812-.468-11.836-.702-4.972-.234-9.943-.468-14.678-.702-6.391-.468-12.783-.234-19.175-.702-4.261-.234-8.759-.702-13.02-.936-2.131-.234-4.261-.468-6.155-.234-5.445.234-10.89-.234-16.334-.702-1.421 0-2.605-.234-4.025-.234-4.971-.234-9.943 0-14.677-.468-5.682-.468-11.363-.234-17.045-.936-5.918-.702-11.6-.702-17.518-.936-1.184 0-2.367 0-3.314-.235-4.498-.936-8.996-.702-13.494-.936-2.604 0-5.208-.234-8.049-.468-3.314-.234-6.865-.234-10.179-.468-4.498-.234-8.996-.234-13.494-1.17-1.183-.234-2.604-.234-4.024-.234-4.971 0-9.943-.234-14.677-.702-4.498-.234-8.996-.468-13.731-.468-3.787-.234-7.575-.234-11.363-.468-6.155-.468-12.547-.468-18.702-.468-.946 0-1.893.234-2.84 0-5.445-.936-10.89-.468-16.335-.702-5.208-.234-10.653 0-15.861-.234-3.551-.234-7.102-.234-10.889 0h-1.184c-5.918-.702-11.836-.234-17.518-.468-4.024-.234-8.049-.234-11.837-.234-11.126-.234-22.252-.234-33.615-.468h-.474c-8.522.234-17.044 0-25.567.468-8.285.468-16.571.468-24.856.468-7.576 0-15.151.234-22.727.234h-30.774c-11.837 0-23.91-.234-35.747-.468-8.285-.234-16.571-.468-24.857-.468-8.048 0-15.861 0-23.909-.234-7.812-.234-15.625-.468-23.2-.703-1.894 0-3.788-.234-5.681-.234-7.102-.234-14.441-.468-21.543-.702-3.077 0-6.155-.234-8.996 0-3.551 0-7.102.234-10.889 0-3.078-.234-6.392 0-9.706.234-5.208.468-10.653.234-15.861 0-1.421 0-3.078-.468-4.498-.468-6.865 0-13.494-1.17-20.359-2.106-8.996-.936-17.992-2.574-26.987-3.042-9.47-.234-18.465-.468-27.224-.468-4.498 0-8.996-.234-13.73-.468-4.025-.234-8.05-.468-11.837-.702-2.604-.235-5.208-.235-7.812-.703-2.841-.234-5.919-.234-8.76-.234-2.603 0-5.207 0-8.048-.234-2.604 0-5.208-1.17-7.812-2.574-.947-.468-1.42-1.872-.947-2.808.236-.468.236-.702.473-.936.474-1.873 1.657-2.809 3.788-3.043 4.498-.468 8.996-.234 13.494 0 5.918.234 11.836.468 17.518.702 4.497.234 8.759.468 13.02.702Z"/><path fill="#F0F0F0" d="M654.13 629.411c3.719-.746 7.413-.64 10.848.454 1.373.466 2.994.371 4.123 1.256.227.149-.016.568-.016.568l-1.397.386c-9.249.161-18.27.47-27.291.78-12.262.5-24.739.425-36.996.784-6.939.227-14.101.163-21.036.248-7.166.078-14.336.299-21.506.519-5.084-.004-9.941.141-15.029.279-6.704.091-13.639.176-20.574.261-7.166.078-14.336.299-21.502.377-5.78.118-11.565.378-17.576.49-7.632.207-15.033.42-22.665.627-5.781.118-11.33.243-17.111.361-4.857.145-9.483.296-14.34.441-5.784.26-11.334.385-17.119.645-6.708.234-13.651.603-20.363.978-11.112.676-22.228 1.493-33.57 2.162-9.722.574-19.448 1.289-29.17 1.863-9.257.444-18.282.896-27.534 1.198-3.703.178-7.393-.07-11.087-.176-2.54-.073-4.602-.701-6.181-2.026-.677-.588-1.122-1.17-.871-1.873.252-.704.965-1.394 2.123-1.503 3.938-.313 7.652-.917 11.582-.946 1.385.039 2.544-.069 3.933-.172 8.106-.62 16.443-1.233 24.549-1.853 8.336-.613 16.9-1.077 25.232-1.549 1.39-.102 2.548-.211 3.93-.029 2.997.228 5.78-.118 8.798-.6 1.159-.109 2.087-.224 3.245-.333 6.012-.111 11.804-.656 17.597-1.2 4.169-.307 8.337-.613 12.732-.771 6.246-.247 12.493-.494 18.731-.457 3.002.087 5.785-.26 8.795-.458 2.313-.075 4.861-.286 7.174-.362 7.631-.207 15.032-.421 22.66-.486s15.486-.123 23.576-.175c3.933-.171 8.098-.336 12.031-.507 2.313-.075 4.395-.158 6.708-.233.693.02 1.386.039 2.313-.076 5.096-.422 10.403-.127 15.491-.265 2.77.079 5.776.023 8.551-.039 9.017-.167 18.038-.476 27.051-.501 3.699-.036 7.393.07 11.087.176 1.617.047 3.233.093 4.857-.145 3.711-.461 7.644-.633 11.574-.662 10.175-.276 20.116-.417 30.057-.557l5.08.146c2.309.066 4.383.268 6.687.476 7.381.497 14.774.567 22.162.78 4.387.126 4.618.133 9.657 1.699Z"/></svg>