<svg width="218" height="27" viewBox="0 0 218 27" fill="none" xmlns="http://www.w3.org/2000/svg">
<path d="M149.019 8.92236C148.51 8.96001 148.002 8.99765 147.419 8.8245C146.935 8.66367 146.352 8.49052 145.856 8.42893C145.062 8.33038 144.529 8.5665 144.132 9.32345C143.425 9.33646 142.631 9.23791 141.924 9.25091C141.726 9.22628 141.503 9.40011 141.292 9.47472C141.292 9.47472 141.181 9.56164 141.168 9.66087C141.156 9.76011 141.243 9.87167 141.243 9.87167C142.285 10.4041 143.215 10.2173 144.033 9.31113C144.48 9.76968 145.051 10.0421 145.733 10.2275C148.698 10.6963 151.539 11.3513 154.503 11.0139C154.912 10.9639 155.309 11.0132 155.706 11.0625C156.909 11.111 158.1 11.2589 159.304 11.3074C160.705 11.3807 161.995 11.5408 163.224 12.1972C163.695 12.4572 164.291 12.5311 164.886 12.605C166.598 12.616 168.186 12.8131 169.823 13.4195C170.208 13.568 170.617 13.518 171.014 13.5673C171.411 13.6166 171.833 13.4674 171.981 13.0827C172.167 12.4004 172.688 12.2635 173.295 12.2382C174.722 12.1129 175.727 12.9431 176.633 13.7609C176.807 13.9841 176.969 14.3064 177.031 14.6164C177.218 15.5465 177.789 15.8189 178.582 15.9175C178.781 15.9421 179.079 15.9791 179.277 16.0037C180.691 15.9777 181.969 16.2371 183.21 16.7942C183.979 17.0912 184.587 17.0659 185.231 16.7428C185.665 16.4944 185.951 16.6306 186.075 17.2507C186.324 17.6846 186.597 17.92 187.192 17.9939C187.589 18.0432 187.986 18.0925 188.395 18.0425C188.792 18.0918 189.202 18.0418 189.599 18.0911C195.032 18.9671 200.539 19.2477 205.985 20.0244C206.581 20.0983 207.275 20.1846 207.871 20.2585C207.858 20.3577 207.945 20.4693 207.945 20.4693C207.325 20.5938 206.718 20.6192 206.085 20.843C205.552 21.0791 205.205 21.4391 204.585 21.5637C204.486 21.5513 204.473 21.6506 204.362 21.7375C204.35 21.8367 204.238 21.9237 204.238 21.9237C204.325 22.0352 204.3 22.2337 204.486 22.3576C204.573 22.4691 204.772 22.4938 204.859 22.6053C206.732 22.9386 208.593 23.3711 210.515 23.3075C212.339 23.2315 214.1 23.6517 215.862 24.0719C215.837 24.2704 215.726 24.3573 215.527 24.3327C213.431 24.1732 211.322 24.113 209.35 23.7674C208.754 23.6935 208.06 23.6073 207.452 23.6326C206.137 23.6709 204.736 23.5977 203.346 23.4252C202.552 23.3267 201.758 23.2281 200.928 23.4273C200.828 23.415 200.816 23.5142 200.804 23.6135C200.791 23.7127 200.779 23.8119 200.878 23.8243C201.139 24.1589 201.536 24.2082 201.933 24.2575C204.414 24.5654 206.907 24.7742 209.301 24.9706C210.194 25.0815 211.112 24.9939 211.906 25.0924C213.692 25.3141 215.379 25.5236 217.153 25.8445C216.509 26.1676 216.037 25.9075 215.442 25.8336C214.648 25.735 213.842 25.7357 213.11 25.9472C212.378 26.1587 211.572 26.1594 210.778 26.0608C209.29 25.8761 207.789 25.7905 206.201 25.5934C204.005 25.4216 201.921 25.1629 199.713 25.0904C198.101 25.0918 196.525 24.7954 194.925 24.6976C194.231 24.6114 193.536 24.5251 192.742 24.4266C189.343 24.2062 185.833 24.0728 182.434 23.8524C180.834 23.7546 179.246 23.5575 177.646 23.4596C176.257 23.2871 174.967 23.127 173.565 23.0538C170.166 22.8334 166.656 22.7 163.257 22.4796C162.451 22.4803 161.657 22.3817 160.863 22.2832C158.68 22.0122 156.584 21.8527 154.364 21.8794C154.066 21.8425 153.756 21.9048 153.359 21.8555C149.079 21.425 144.75 21.3915 140.459 21.0603C137.457 20.8892 134.542 20.8297 131.615 20.8694C129.196 20.8714 126.802 20.675 124.383 20.6771C121.865 20.6668 119.459 20.5697 116.941 20.5594C114.126 20.5122 111.397 20.5766 108.507 20.3186C105.716 20.0729 102.888 20.1249 100.159 20.1892C96.624 20.2543 93.089 20.3193 89.5787 20.1859C88.2763 20.125 87.0608 20.1756 85.7461 20.214C82.5212 20.2167 79.2963 20.2195 76.1706 20.2345C72.1395 20.238 68.1953 20.353 64.1642 20.3564C62.0432 20.3954 60.0092 20.546 57.8882 20.585C54.8495 20.7117 51.823 20.7391 48.7843 20.8657C46.4648 20.8801 44.1331 20.9937 41.8137 21.0081C41.6152 20.9835 41.3051 21.0457 41.1067 21.0211C37.4355 21.3715 33.8014 21.4242 30.0433 21.6631C27.3023 21.8267 24.6605 22.0026 21.9071 22.2654C19.4638 22.466 16.9459 22.4557 14.478 22.8547C14.2795 22.8301 14.1679 22.917 13.9694 22.8924C10.4591 22.759 6.94885 22.6255 3.5371 21.6982C3.33863 21.6735 3.05323 21.5373 2.85475 21.5127C1.58929 21.1541 0.980857 20.3732 0.830963 19.1454C0.731039 18.3268 0.829589 17.5329 0.828894 16.7267C0.578382 13.8741 1.61799 11.1817 2.44678 8.56381C2.60762 8.07994 2.85537 7.70762 3.10312 7.33531C3.61093 6.49144 4.31724 5.67221 4.73814 4.71678C5.14673 3.86059 6.02686 3.26447 7.0562 3.08994C7.98629 2.90309 9.00333 2.82781 9.9211 2.7402C10.8389 2.65259 11.8436 2.67654 12.8483 2.70049C13.0468 2.72512 13.3445 2.76208 13.5553 2.68748C15.8124 2.36306 18.0203 2.4356 20.2775 2.11118C23.5516 1.71147 26.7889 1.60948 30.1253 1.5198C31.0431 1.4322 32.0478 1.45614 32.9656 1.36853C36.0043 1.2419 39.0431 1.11527 42.0695 1.08788C43.8804 1.11114 45.716 0.935927 47.5393 0.859949C50.3672 0.807921 53.1329 0.445858 55.9239 0.691544C56.5193 0.765457 57.2386 0.65321 57.8463 0.627885C62.0883 0.549841 66.3302 0.471798 70.5721 0.393754C71.1799 0.368429 71.8745 0.454657 72.433 0.826285C73.0784 1.30947 73.7731 1.3957 74.4677 1.48193C74.9639 1.54353 75.4724 1.50588 75.7325 1.03433C75.9926 0.562772 76.4142 0.413569 76.9227 0.375925C79.5398 0.398497 82.157 0.42107 84.8734 0.455959C88.2968 0.477842 91.7201 0.499725 95.1435 0.521608C97.3637 0.494905 99.6708 0.579759 101.879 0.652294C102.486 0.626967 102.97 0.7878 103.566 0.861712C103.653 0.973269 103.541 1.06019 103.33 1.13479C103.219 1.22171 103.107 1.30863 102.983 1.49479C102.859 1.68095 103.12 2.01562 103.319 2.04025C104.87 2.53507 106.457 2.73217 108.082 2.63155C110.005 2.56789 111.927 2.50423 113.85 2.44057C114.966 2.3776 116.07 2.41387 117.161 2.54938C118.749 2.74648 120.325 3.04281 121.925 3.14068C123.5 3.43701 124.74 3.18789 125.956 3.13723C126.365 3.08727 126.775 3.03731 127.171 3.08658C127.37 3.11122 127.469 3.12354 127.655 3.24741C127.742 3.35897 127.928 3.48285 127.916 3.58208C127.904 3.68132 127.879 3.8798 127.768 3.96672C127.544 4.14056 127.433 4.22748 127.123 4.28976C126.59 4.52588 125.994 4.45197 125.486 4.48961C123.774 4.47867 122.174 4.38081 120.462 4.36987C119.954 4.40751 119.545 4.45748 119.111 4.70592C118.441 5.22744 117.673 5.73663 116.904 6.24583L116.879 6.44431C116.867 6.54355 116.954 6.65511 116.954 6.65511C117.053 6.66742 117.239 6.7913 117.438 6.81594C118.963 6.703 120.44 6.98702 121.915 6.46482C122.225 6.40253 122.523 6.43949 122.821 6.47645C123.118 6.5134 123.429 6.45112 123.751 6.2896C124.197 5.94192 124.606 5.89196 124.867 6.22663C125.401 6.79673 126.096 6.88296 126.79 6.96919C127.894 7.00546 129.023 6.84325 130.015 6.16022C130.238 5.98638 130.448 5.91178 130.659 5.83717C130.969 5.77489 131.379 5.72493 131.565 5.8488C132.409 6.35663 133.426 6.28134 134.331 6.29297C135.943 6.29159 137.06 7.03484 137.682 8.52273C137.248 8.77117 136.826 8.92037 136.492 9.18113C136.281 9.25573 136.331 9.665 136.517 9.78888C137.286 10.0859 137.733 9.73823 137.732 8.932C137.756 8.73353 137.67 8.62197 137.694 8.42349C138.822 7.45506 140.211 6.82129 141.413 6.06365C142.033 5.93909 142.306 6.17452 142.691 6.32304C144.416 7.04097 146.029 7.84581 147.939 7.88139C148.435 7.94299 148.931 8.00458 149.341 7.95462C150.767 7.82936 152.268 7.91491 153.645 8.18661C154.836 8.33443 156.039 8.38302 157.254 8.33236C159.276 8.28102 160.951 8.58968 163.097 9.15841C162.081 10.0399 160.841 10.2891 159.551 10.1289C158.955 10.055 158.248 10.068 157.665 9.89485C155.693 9.54924 153.708 9.30287 151.674 9.45344C150.744 9.64029 149.875 9.33095 149.019 8.92236ZM107.291 5.7579C107.589 5.79486 107.787 5.8195 107.899 5.73258C110.02 5.69356 112.19 5.25758 114.299 5.3178C114.398 5.33012 114.522 5.14396 114.633 5.05704C114.856 4.8832 114.819 4.37469 114.533 4.23849C113.863 3.95379 113.169 3.86756 112.449 3.9798C111.532 4.06741 110.725 4.0681 109.832 3.95723C109.137 3.871 108.431 3.88401 107.724 3.89701C106.508 3.94767 105.305 3.89908 104.114 3.75126C103.618 3.68966 102.998 3.81422 102.489 3.85187C102.39 3.83955 102.167 4.01339 102.155 4.11263C102.142 4.21187 102.217 4.42266 102.415 4.4473C102.986 4.71969 103.693 4.70668 104.14 5.16523C104.587 5.62378 105.021 5.37534 105.368 5.01534C105.826 4.56842 106.211 4.71693 106.67 5.07624C106.819 5.49783 107.105 5.63403 107.291 5.7579ZM173.843 14.3215C172.553 14.1613 171.56 14.0381 170.618 14.3242C170.507 14.4112 170.395 14.4981 170.283 14.585C170.172 14.6719 170.433 15.0066 170.73 15.0435C172.095 15.4145 173.397 15.4754 174.737 15.2386C174.836 15.2509 174.848 15.1517 174.948 15.164C174.96 15.0647 175.071 14.9778 175.071 14.9778C175.084 14.8786 175.022 14.5685 174.922 14.5562C174.438 14.3954 173.942 14.3338 173.843 14.3215ZM148.565 14.2066C149.073 14.169 149.768 14.2552 150.388 14.1307C150.586 14.1553 150.896 14.093 151.02 13.9069C151.132 13.8199 151.256 13.6338 151.268 13.5345C151.28 13.4353 151.206 13.2245 151.02 13.1006C150.933 12.9891 150.734 12.9644 150.647 12.8529C149.58 12.5189 148.452 12.6811 147.385 13.1533L147.261 13.3395C147.324 13.6495 147.398 13.8603 147.498 13.8726C147.783 14.0088 148.18 14.0581 148.565 14.2066ZM154.307 14.2141C154.915 14.1888 155.411 14.2504 156.019 14.2251C156.218 14.2497 156.428 14.1751 156.565 13.8897C156.688 13.7036 156.328 13.3566 155.931 13.3073C155.336 13.2334 154.641 13.1471 154.034 13.1725C153.934 13.1602 153.724 13.2348 153.612 13.3217C153.5 13.4086 153.377 13.5948 153.464 13.7063C153.451 13.8055 153.526 14.0163 153.724 14.041C153.811 14.1525 154.109 14.1895 154.307 14.2141ZM195.172 23.519C196.276 23.5553 197.182 23.5669 198.075 23.6778C198.273 23.7025 198.385 23.6155 198.41 23.4171C198.422 23.3178 198.323 23.3055 198.223 23.2932C197.343 23.0831 196.561 22.8853 195.668 22.7744C194.973 22.6882 194.279 22.602 193.547 22.8134C193.448 22.8011 193.336 22.888 193.423 22.9996C193.51 23.1112 193.485 23.3096 193.585 23.3219C194.18 23.3959 194.775 23.4698 195.172 23.519ZM129.93 9.27356C128.7 7.00477 128.49 7.8856 127.089 8.6186C126.99 8.60628 126.978 8.70552 126.966 8.80476C126.953 8.904 126.842 8.99092 126.941 9.00324C127.015 9.21403 127.102 9.32559 127.202 9.33791C128.082 9.54801 128.876 9.64656 129.707 9.4474C129.806 9.45972 129.918 9.3728 129.93 9.27356ZM121.93 9.59048C122.439 9.55283 122.947 9.51519 123.456 9.47754C123.766 9.41526 124.014 9.04295 123.927 8.93139C123.84 8.81983 123.753 8.70828 123.666 8.59672C122.897 8.29969 122.091 8.30038 121.347 8.6111C121.247 8.59878 121.235 8.69802 121.223 8.79726C121.21 8.8965 121.186 9.09498 121.273 9.20653C121.459 9.33041 121.657 9.35505 121.93 9.59048ZM154.027 19.7215C153.717 19.7838 153.208 19.8214 152.799 19.8714C152.7 19.8591 152.663 20.1568 152.65 20.256C152.65 20.256 152.737 20.3676 152.837 20.3799C153.507 20.6646 154.214 20.6516 154.846 20.4278C154.945 20.4401 154.97 20.2417 154.995 20.0432C154.995 20.0432 154.908 19.9316 154.808 19.9193C154.61 19.8947 154.312 19.8577 154.027 19.7215ZM167.622 21.4092C167.933 21.3469 168.23 21.3839 168.54 21.3216C168.639 21.3339 168.676 21.0362 168.689 20.9369C168.689 20.9369 168.602 20.8254 168.614 20.7261C168.143 20.4661 167.547 20.3922 167.026 20.529C166.927 20.5167 166.89 20.8144 166.779 20.9014C166.779 20.9014 166.866 21.0129 166.853 21.1122C167.139 21.2483 167.325 21.3722 167.622 21.4092ZM105.867 9.10806C106.177 9.04578 106.587 8.99581 106.996 8.94585C106.996 8.94585 107.033 8.64814 107.045 8.5489C106.598 8.09035 106.102 8.02876 105.569 8.26488C105.47 8.25256 105.358 8.33948 105.346 8.43872C105.334 8.53796 105.21 8.72411 105.297 8.83567C105.396 8.84799 105.582 8.97186 105.867 9.10806ZM194.463 21.1134C193.893 20.841 193.297 20.7671 192.578 20.8793C192.479 20.867 192.367 20.9539 192.367 20.9539C192.342 21.1524 192.429 21.264 192.628 21.2886C193.124 21.3502 193.533 21.3002 194.042 21.2626C194.129 21.3741 194.253 21.188 194.463 21.1134ZM139.701 19.8578C139.8 19.8701 139.999 19.8947 140.11 19.8078C140.222 19.7209 140.333 19.634 140.346 19.5347C140.358 19.4355 140.172 19.3116 140.085 19.2001C139.986 19.1878 139.787 19.1631 139.688 19.1508C139.589 19.1385 139.366 19.3123 139.353 19.4116C139.242 19.4985 139.515 19.7339 139.701 19.8578ZM133.738 9.44396C133.751 9.34472 133.763 9.24548 133.664 9.23316C133.49 9.01005 133.093 8.96077 132.87 9.13461C132.758 9.22153 132.734 9.42001 132.821 9.53156C132.895 9.74236 133.193 9.77932 133.404 9.70472C133.503 9.71703 133.627 9.53088 133.738 9.44396ZM123.762 19.1892C123.861 19.2015 124.06 19.2262 124.159 19.2385C124.27 19.1516 124.382 19.0646 124.494 18.9777C124.407 18.8662 124.32 18.7546 124.22 18.7423C124.121 18.73 123.923 18.7053 123.823 18.693C123.712 18.7799 123.6 18.8669 123.489 18.9538C123.576 19.0653 123.663 19.1769 123.762 19.1892ZM158.431 20.772C158.53 20.7844 158.741 20.7098 158.84 20.7221C158.952 20.6352 159.076 20.449 159.088 20.3498C159.1 20.2505 158.926 20.0274 158.827 20.0151C158.629 19.9905 158.331 19.9535 158.12 20.0281C158.009 20.115 157.885 20.3012 157.872 20.4004C157.86 20.4997 158.046 20.6235 158.133 20.7351C158.22 20.8466 158.332 20.7597 158.431 20.772ZM99.846 2.41532C100.131 2.55152 100.355 2.37768 100.478 2.19152C100.602 2.00536 100.441 1.68301 100.242 1.65837C99.9569 1.52218 99.7338 1.69602 99.6099 1.88218C99.4984 1.9691 99.5607 2.27913 99.846 2.41532ZM184.329 20.7623C184.528 20.787 184.627 20.7993 184.838 20.7247C184.949 20.6378 185.061 20.5508 185.173 20.4639C185.073 20.4516 185.086 20.3524 184.986 20.3401C184.788 20.3154 184.701 20.2039 184.49 20.2785C184.193 20.2415 183.87 20.403 183.945 20.6138C184.044 20.6261 184.242 20.6508 184.329 20.7623ZM166.538 14.7246C166.835 14.7616 167.145 14.6993 167.071 14.4885C167.083 14.3893 166.909 14.1662 166.81 14.1538C166.525 14.0176 166.202 14.1792 166.277 14.39C166.364 14.5015 166.451 14.6131 166.538 14.7246ZM157.803 12.0281L157.729 11.8173L157.704 12.0158L157.803 12.0281ZM137.034 19.4259C137.133 19.4383 137.133 19.4383 137.245 19.3513C137.257 19.2521 137.257 19.2521 137.17 19.1405C137.071 19.1282 137.071 19.1282 136.959 19.2151C136.959 19.2151 137.046 19.3267 137.034 19.4259Z" fill="black"/>
<path d="M142.082 4.73591C141.499 4.56276 140.804 4.47653 140.122 4.29106C140.122 4.29106 140.035 4.1795 140.047 4.08026C140.059 3.98103 140.159 3.99334 140.171 3.89411C140.27 3.90642 140.283 3.80719 140.382 3.81951C142.788 3.91668 145.306 3.92693 147.712 4.0241C148.109 4.07338 148.506 4.12265 148.891 4.27117C148.99 4.28349 149.077 4.39504 148.966 4.48196C148.953 4.5812 148.829 4.76736 148.718 4.85428C148.606 4.9412 148.408 4.91656 148.296 5.00348C146.398 4.86866 144.302 4.70921 142.082 4.73591Z" fill="black"/>
<path d="M168.481 10.4314C167.985 10.3698 167.39 10.2959 166.894 10.2343C166.894 10.2343 166.807 10.1227 166.819 10.0235C166.831 9.92423 166.844 9.825 166.844 9.825C167.401 9.3904 168.133 9.17891 168.84 9.16591C169.547 9.1529 170.118 9.42529 170.441 10.07C170.428 10.1692 170.515 10.2808 170.515 10.2808C170.392 10.4669 170.268 10.6531 170.168 10.6408C169.561 10.6661 169.064 10.6045 168.481 10.4314C168.469 10.5306 168.469 10.5306 168.481 10.4314Z" fill="black"/>
<path d="M131.762 4.26099C131.377 4.11248 131.092 3.97628 130.707 3.82777C130.608 3.81545 130.62 3.71621 130.633 3.61697C130.645 3.51774 130.781 3.23234 130.88 3.24466C131.711 3.04549 132.381 3.3302 133.039 3.71415C133.039 3.71415 133.126 3.8257 133.113 3.92494C133.101 4.02418 132.99 4.1111 132.99 4.1111C132.568 4.2603 132.159 4.31027 131.762 4.26099Z" fill="black"/>
<path d="M116.602 1.37152C118.612 1.41942 120.15 1.20725 121.638 1.39203C121.737 1.40435 121.837 1.41667 121.824 1.51591C121.899 1.7267 121.8 1.71438 121.589 1.78898C120.051 2.00116 118.575 1.71714 116.602 1.37152Z" fill="black"/>
<path d="M131.859 1.85463C130.606 2.203 129.316 2.04286 128.014 1.98195C128.783 1.47275 129.291 1.43511 131.859 1.85463Z" fill="black"/>
<path d="M173.48 9.94336C173.591 9.85644 173.727 9.57105 173.839 9.48413C174.161 9.32261 174.459 9.35956 174.744 9.49576C174.943 9.52039 175.117 9.74351 175.104 9.84275C175.142 10.3513 174.473 10.8728 173.976 10.8112C173.679 10.7742 173.529 10.3526 173.48 9.94336Z" fill="black"/>
<path d="M180.007 13.3736C179.994 13.4728 179.982 13.572 179.883 13.5597C179.573 13.622 179.263 13.6843 178.953 13.7466C178.853 13.7342 178.866 13.635 178.767 13.6227C178.68 13.5111 178.704 13.3126 178.915 13.238C179.237 13.0765 179.535 13.1135 179.821 13.2497C179.92 13.262 179.907 13.3612 180.007 13.3736Z" fill="black"/>
<path d="M112.186 1.22645C112.583 1.27573 112.881 1.31268 113.179 1.34964C112.77 1.3996 112.77 1.3996 112.186 1.22645Z" fill="black"/>
<path d="M107.349 1.23058C107.25 1.21827 107.25 1.21827 107.151 1.20595C107.25 1.21827 107.262 1.11903 107.361 1.13135C107.361 1.13135 107.461 1.14367 107.548 1.25522C107.448 1.2429 107.349 1.23058 107.349 1.23058Z" fill="black"/>
<path d="M182.885 13.7308C182.897 13.6316 182.798 13.6192 182.81 13.52C182.822 13.4208 182.922 13.4331 182.922 13.4331C183.12 13.4577 183.207 13.5693 182.984 13.7431C183.083 13.7554 182.984 13.7431 182.885 13.7308Z" fill="black"/>
</svg>
